<svg width="680" height="275" viewBox="0 0 680 275" fill="none" xmlns="http://www.w3.org/2000/svg">
<g clip-path="url(#clip0_13_3)">
<path d="M680 0H0V275H680V0Z" fill="url(#paint0_linear_13_3)"/>
<path d="M28.6953 33.5V25.5H30.3594V28.5078H30.4102C30.4831 28.3464 30.5885 28.1823 30.7266 28.0156C30.8672 27.8464 31.0495 27.7057 31.2734 27.5938C31.5 27.4792 31.7813 27.4219 32.1172 27.4219C32.5547 27.4219 32.9583 27.5365 33.3281 27.7656C33.6979 27.9922 33.9935 28.3346 34.2148 28.793C34.4362 29.2487 34.5469 29.8203 34.5469 30.5078C34.5469 31.1771 34.4388 31.7422 34.2227 32.2031C34.0091 32.6615 33.7174 33.0091 33.3477 33.2461C32.9805 33.4805 32.569 33.5977 32.1133 33.5977C31.7904 33.5977 31.5156 33.5443 31.2891 33.4375C31.0651 33.3307 30.8815 33.1966 30.7383 33.0352C30.5951 32.8711 30.4857 32.7057 30.4102 32.5391H30.3359V33.5H28.6953ZM30.3242 30.5C30.3242 30.8568 30.3737 31.168 30.4727 31.4336C30.5716 31.6992 30.7148 31.9062 30.9023 32.0547C31.0898 32.2005 31.3177 32.2734 31.5859 32.2734C31.8568 32.2734 32.0859 32.1992 32.2734 32.0508C32.4609 31.8997 32.6029 31.6914 32.6992 31.4258C32.7982 31.1576 32.8477 30.849 32.8477 30.5C32.8477 30.1536 32.7995 29.849 32.7031 29.5859C32.6068 29.3229 32.4648 29.1172 32.2773 28.9687C32.0898 28.8203 31.8594 28.7461 31.5859 28.7461C31.3151 28.7461 31.0859 28.8177 30.8984 28.9609C30.7135 29.1042 30.5716 29.3073 30.4727 29.5703C30.3737 29.8333 30.3242 30.1432 30.3242 30.5ZM39.5049 30.9453V27.5H41.1689V33.5H39.5713V32.4102H39.5088C39.3734 32.7617 39.1481 33.0443 38.833 33.2578C38.5205 33.4714 38.139 33.5781 37.6885 33.5781C37.2874 33.5781 36.9346 33.487 36.6299 33.3047C36.3252 33.1224 36.0869 32.8633 35.915 32.5273C35.7458 32.1914 35.6598 31.7891 35.6572 31.3203V27.5H37.3213V31.0234C37.3239 31.3776 37.4189 31.6576 37.6064 31.8633C37.7939 32.069 38.0452 32.1719 38.3604 32.1719C38.5609 32.1719 38.7484 32.1263 38.9229 32.0352C39.0973 31.9414 39.238 31.8034 39.3447 31.6211C39.4541 31.4388 39.5075 31.2135 39.5049 30.9453ZM42.5 33.5V27.5H44.1641V33.5H42.5ZM43.3359 26.7266C43.0885 26.7266 42.8763 26.6445 42.6992 26.4805C42.5247 26.3138 42.4375 26.1146 42.4375 25.8828C42.4375 25.6536 42.5247 25.457 42.6992 25.293C42.8763 25.1263 43.0885 25.043 43.3359 25.043C43.5833 25.043 43.7943 25.1263 43.9688 25.293C44.1458 25.457 44.2344 25.6536 44.2344 25.8828C44.2344 26.1146 44.1458 26.3138 43.9688 26.4805C43.7943 26.6445 43.5833 26.7266 43.3359 26.7266ZM47.1611 25.5V33.5H45.4971V25.5H47.1611ZM50.7051 33.5977C50.2493 33.5977 49.8366 33.4805 49.4668 33.2461C49.0996 33.0091 48.8079 32.6615 48.5918 32.2031C48.3783 31.7422 48.2715 31.1771 48.2715 30.5078C48.2715 29.8203 48.3822 29.2487 48.6035 28.793C48.8249 28.3346 49.1191 27.9922 49.4863 27.7656C49.8561 27.5365 50.2611 27.4219 50.7012 27.4219C51.0371 27.4219 51.3171 27.4792 51.541 27.5938C51.7676 27.7057 51.9499 27.8464 52.0879 28.0156C52.2285 28.1823 52.3353 28.3464 52.4082 28.5078H52.459V25.5H54.1191V33.5H52.4785V32.5391H52.4082C52.3301 32.7057 52.2194 32.8711 52.0762 33.0352C51.9355 33.1966 51.752 33.3307 51.5254 33.4375C51.3014 33.5443 51.028 33.5977 50.7051 33.5977ZM51.2324 32.2734C51.5007 32.2734 51.7272 32.2005 51.9121 32.0547C52.0996 31.9062 52.2428 31.6992 52.3418 31.4336C52.4434 31.168 52.4941 30.8568 52.4941 30.5C52.4941 30.1432 52.4447 29.8333 52.3457 29.5703C52.2467 29.3073 52.1035 29.1042 51.916 28.9609C51.7285 28.8177 51.5007 28.7461 51.2324 28.7461C50.959 28.7461 50.7285 28.8203 50.541 28.9687C50.3535 29.1172 50.2116 29.3229 50.1152 29.5859C50.0189 29.849 49.9707 30.1536 49.9707 30.5C49.9707 30.849 50.0189 31.1576 50.1152 31.4258C50.2142 31.6914 50.3561 31.8997 50.541 32.0508C50.7285 32.1992 50.959 32.2734 51.2324 32.2734ZM59.2256 29.5547V30.875H55.5771V29.5547H59.2256ZM62.3545 33.6133C61.9717 33.6133 61.6305 33.5469 61.3311 33.4141C61.0316 33.2786 60.7946 33.0794 60.6201 32.8164C60.4482 32.5508 60.3623 32.2201 60.3623 31.8242C60.3623 31.4909 60.4235 31.2109 60.5459 30.9844C60.6683 30.7578 60.835 30.5755 61.0459 30.4375C61.2568 30.2995 61.4964 30.1953 61.7646 30.125C62.0355 30.0547 62.3193 30.0052 62.6162 29.9766C62.9652 29.9401 63.2464 29.9062 63.46 29.875C63.6735 29.8411 63.8285 29.7917 63.9248 29.7266C64.0212 29.6615 64.0693 29.5651 64.0693 29.4375V29.4141C64.0693 29.1667 63.9912 28.9753 63.835 28.8398C63.6813 28.7044 63.4626 28.6367 63.1787 28.6367C62.8792 28.6367 62.641 28.7031 62.4639 28.8359C62.2868 28.9661 62.1696 29.1302 62.1123 29.3281L60.5732 29.2031C60.6514 28.8385 60.805 28.5234 61.0342 28.2578C61.2633 27.9896 61.5589 27.7839 61.9209 27.6406C62.2855 27.4948 62.7074 27.4219 63.1865 27.4219C63.5199 27.4219 63.8389 27.4609 64.1436 27.5391C64.4508 27.6172 64.723 27.7383 64.96 27.9023C65.1995 28.0664 65.3883 28.2773 65.5264 28.5352C65.6644 28.7904 65.7334 29.0964 65.7334 29.4531V33.5H64.1553V32.668H64.1084C64.012 32.8555 63.8831 33.0208 63.7217 33.1641C63.5602 33.3047 63.3662 33.4154 63.1396 33.4961C62.9131 33.5742 62.6514 33.6133 62.3545 33.6133ZM62.8311 32.4648C63.0758 32.4648 63.292 32.4167 63.4795 32.3203C63.667 32.2214 63.8141 32.0885 63.9209 31.9219C64.0277 31.7552 64.0811 31.5664 64.0811 31.3555V30.7188C64.029 30.7526 63.9574 30.7839 63.8662 30.8125C63.7777 30.8385 63.6774 30.8633 63.5654 30.8867C63.4535 30.9076 63.3415 30.9271 63.2295 30.9453C63.1175 30.9609 63.016 30.9753 62.9248 30.9883C62.7295 31.0169 62.5589 31.0625 62.4131 31.125C62.2673 31.1875 62.154 31.2721 62.0732 31.3789C61.9925 31.4831 61.9521 31.6133 61.9521 31.7695C61.9521 31.9961 62.0342 32.1693 62.1982 32.2891C62.3649 32.4062 62.5758 32.4648 62.8311 32.4648ZM68.6885 30.0313V33.5H67.0244V27.5H68.6104V28.5586H68.6807C68.8135 28.2096 69.0361 27.9336 69.3486 27.7305C69.6611 27.5247 70.04 27.4219 70.4854 27.4219C70.902 27.4219 71.2653 27.513 71.5752 27.6953C71.8851 27.8776 72.126 28.138 72.2979 28.4766C72.4697 28.8125 72.5557 29.2135 72.5557 29.6797V33.5H70.8916V29.9766C70.8942 29.6094 70.8005 29.3229 70.6104 29.1172C70.4202 28.9089 70.1585 28.8047 69.8252 28.8047C69.6012 28.8047 69.4033 28.8529 69.2314 28.9492C69.0622 29.0456 68.9294 29.1862 68.833 29.3711C68.7393 29.5534 68.6911 29.7734 68.6885 30.0313ZM76.0781 33.5977C75.6224 33.5977 75.2096 33.4805 74.8398 33.2461C74.4727 33.0091 74.181 32.6615 73.9648 32.2031C73.7513 31.7422 73.6445 31.1771 73.6445 30.5078C73.6445 29.8203 73.7552 29.2487 73.9766 28.793C74.1979 28.3346 74.4922 27.9922 74.8594 27.7656C75.2292 27.5365 75.6341 27.4219 76.0742 27.4219C76.4102 27.4219 76.6901 27.4792 76.9141 27.5938C77.1406 27.7057 77.3229 27.8464 77.4609 28.0156C77.6016 28.1823 77.7083 28.3464 77.7813 28.5078H77.832V25.5H79.4922V33.5H77.8516V32.5391H77.7813C77.7031 32.7057 77.5924 32.8711 77.4492 33.0352C77.3086 33.1966 77.125 33.3307 76.8984 33.4375C76.6745 33.5443 76.401 33.5977 76.0781 33.5977ZM76.6055 32.2734C76.8737 32.2734 77.1003 32.2005 77.2852 32.0547C77.4727 31.9062 77.6159 31.6992 77.7148 31.4336C77.8164 31.168 77.8672 30.8568 77.8672 30.5C77.8672 30.1432 77.8177 29.8333 77.7188 29.5703C77.6198 29.3073 77.4766 29.1042 77.2891 28.9609C77.1016 28.8177 76.8737 28.7461 76.6055 28.7461C76.332 28.7461 76.1016 28.8203 75.9141 28.9687C75.7266 29.1172 75.5846 29.3229 75.4883 29.5859C75.3919 29.849 75.3438 30.1536 75.3438 30.5C75.3438 30.849 75.3919 31.1576 75.4883 31.4258C75.5872 31.6914 75.7292 31.8997 75.9141 32.0508C76.1016 32.1992 76.332 32.2734 76.6055 32.2734ZM84.5986 29.5547V30.875H80.9502V29.5547H84.5986ZM86.0166 35.75V27.5H87.6572V28.5078H87.7314C87.8044 28.3464 87.9098 28.1823 88.0479 28.0156C88.1885 27.8464 88.3708 27.7057 88.5947 27.5938C88.8213 27.4792 89.1025 27.4219 89.4385 27.4219C89.876 27.4219 90.2796 27.5365 90.6494 27.7656C91.0192 27.9922 91.3148 28.3346 91.5361 28.793C91.7575 29.2487 91.8682 29.8203 91.8682 30.5078C91.8682 31.1771 91.7601 31.7422 91.5439 32.2031C91.3304 32.6615 91.0387 33.0091 90.6689 33.2461C90.3018 33.4805 89.8903 33.5977 89.4346 33.5977C89.1117 33.5977 88.8369 33.5443 88.6104 33.4375C88.3864 33.3307 88.2028 33.1966 88.0596 33.0352C87.9163 32.8711 87.807 32.7057 87.7314 32.5391H87.6807V35.75H86.0166ZM87.6455 30.5C87.6455 30.8568 87.695 31.168 87.7939 31.4336C87.8929 31.6992 88.0361 31.9062 88.2236 32.0547C88.4111 32.2005 88.639 32.2734 88.9072 32.2734C89.1781 32.2734 89.4072 32.1992 89.5947 32.0508C89.7822 31.8997 89.9242 31.6914 90.0205 31.4258C90.1195 31.1576 90.1689 30.849 90.1689 30.5C90.1689 30.1536 90.1208 29.849 90.0244 29.5859C89.9281 29.3229 89.7861 29.1172 89.5986 28.9687C89.4111 28.8203 89.1807 28.7461 88.9072 28.7461C88.6364 28.7461 88.4072 28.8177 88.2197 28.9609C88.0348 29.1042 87.8929 29.3073 87.7939 29.5703C87.695 29.8333 87.6455 30.1432 87.6455 30.5ZM96.8252 30.9453V27.5H98.4893V33.5H96.8916V32.4102H96.8291C96.6937 32.7617 96.4684 33.0443 96.1533 33.2578C95.8408 33.4714 95.4593 33.5781 95.0088 33.5781C94.6077 33.5781 94.2549 33.487 93.9502 33.3047C93.6455 33.1224 93.4072 32.8633 93.2354 32.5273C93.0661 32.1914 92.9801 31.7891 92.9775 31.3203V27.5H94.6416V31.0234C94.6442 31.3776 94.7393 31.6576 94.9268 31.8633C95.1143 32.069 95.3656 32.1719 95.6807 32.1719C95.8812 32.1719 96.0687 32.1263 96.2432 32.0352C96.4176 31.9414 96.5583 31.8034 96.665 31.6211C96.7744 31.4388 96.8278 31.2135 96.8252 30.9453ZM104.813 29.2109L103.289 29.3047C103.263 29.1745 103.207 29.0573 103.121 28.9531C103.035 28.8464 102.922 28.7617 102.781 28.6992C102.643 28.6341 102.478 28.6016 102.285 28.6016C102.027 28.6016 101.81 28.6562 101.633 28.7656C101.456 28.8724 101.367 29.0156 101.367 29.1953C101.367 29.3385 101.424 29.4596 101.539 29.5586C101.654 29.6576 101.85 29.737 102.129 29.7969L103.215 30.0156C103.798 30.1354 104.233 30.3281 104.52 30.5937C104.806 30.8594 104.949 31.2083 104.949 31.6406C104.949 32.0339 104.833 32.3789 104.602 32.6758C104.372 32.9727 104.057 33.2044 103.656 33.3711C103.258 33.5352 102.798 33.6172 102.277 33.6172C101.483 33.6172 100.85 33.4518 100.379 33.1211C99.9102 32.7878 99.6354 32.3346 99.5547 31.7617L101.191 31.6758C101.241 31.918 101.361 32.1029 101.551 32.2305C101.741 32.3555 101.984 32.418 102.281 32.418C102.573 32.418 102.807 32.362 102.984 32.25C103.164 32.1354 103.255 31.9883 103.258 31.8086C103.255 31.6576 103.191 31.5339 103.066 31.4375C102.941 31.3385 102.749 31.263 102.488 31.2109L101.449 31.0039C100.863 30.8867 100.427 30.6836 100.141 30.3945C99.8568 30.1055 99.7148 29.737 99.7148 29.2891C99.7148 28.9036 99.819 28.5716 100.027 28.293C100.238 28.0143 100.534 27.7995 100.914 27.6484C101.297 27.4974 101.745 27.4219 102.258 27.4219C103.016 27.4219 103.612 27.582 104.047 27.9023C104.484 28.2227 104.74 28.6589 104.813 29.2109ZM107.661 30.0313V33.5H105.997V25.5H107.614V28.5586H107.685C107.82 28.2044 108.039 27.9271 108.341 27.7266C108.643 27.5234 109.022 27.4219 109.478 27.4219C109.894 27.4219 110.257 27.513 110.567 27.6953C110.88 27.875 111.122 28.1341 111.294 28.4727C111.468 28.8086 111.554 29.2109 111.552 29.6797V33.5H109.888V29.9766C109.89 29.6068 109.797 29.319 109.606 29.1133C109.419 28.9076 109.156 28.8047 108.817 28.8047C108.591 28.8047 108.39 28.8529 108.216 28.9492C108.044 29.0456 107.909 29.1862 107.81 29.3711C107.713 29.5534 107.664 29.7734 107.661 30.0313ZM116.6 29.5547V30.875H112.951V29.5547H116.6ZM118.018 35.75V27.5H119.658V28.5078H119.732C119.805 28.3464 119.911 28.1823 120.049 28.0156C120.189 27.8464 120.372 27.7057 120.596 27.5938C120.822 27.4792 121.104 27.4219 121.439 27.4219C121.877 27.4219 122.281 27.5365 122.65 27.7656C123.02 27.9922 123.316 28.3346 123.537 28.793C123.758 29.2487 123.869 29.8203 123.869 30.5078C123.869 31.1771 123.761 31.7422 123.545 32.2031C123.331 32.6615 123.04 33.0091 122.67 33.2461C122.303 33.4805 121.891 33.5977 121.436 33.5977C121.113 33.5977 120.838 33.5443 120.611 33.4375C120.387 33.3307 120.204 33.1966 120.061 33.0352C119.917 32.8711 119.808 32.7057 119.732 32.5391H119.682V35.75H118.018ZM119.646 30.5C119.646 30.8568 119.696 31.168 119.795 31.4336C119.894 31.6992 120.037 31.9062 120.225 32.0547C120.412 32.2005 120.64 32.2734 120.908 32.2734C121.179 32.2734 121.408 32.1992 121.596 32.0508C121.783 31.8997 121.925 31.6914 122.021 31.4258C122.12 31.1576 122.17 30.849 122.17 30.5C122.17 30.1536 122.122 29.849 122.025 29.5859C121.929 29.3229 121.787 29.1172 121.6 28.9687C121.412 28.8203 121.182 28.7461 120.908 28.7461C120.637 28.7461 120.408 28.8177 120.221 28.9609C120.036 29.1042 119.894 29.3073 119.795 29.5703C119.696 29.8333 119.646 30.1432 119.646 30.5ZM124.979 33.5V27.5H126.643V33.5H124.979ZM125.814 26.7266C125.567 26.7266 125.355 26.6445 125.178 26.4805C125.003 26.3138 124.916 26.1146 124.916 25.8828C124.916 25.6536 125.003 25.457 125.178 25.293C125.355 25.1263 125.567 25.043 125.814 25.043C126.062 25.043 126.273 25.1263 126.447 25.293C126.624 25.457 126.713 25.6536 126.713 25.8828C126.713 26.1146 126.624 26.3138 126.447 26.4805C126.273 26.6445 126.062 26.7266 125.814 26.7266ZM127.976 35.75V27.5H129.616V28.5078H129.69C129.763 28.3464 129.869 28.1823 130.007 28.0156C130.147 27.8464 130.33 27.7057 130.554 27.5938C130.78 27.4792 131.062 27.4219 131.397 27.4219C131.835 27.4219 132.239 27.5365 132.608 27.7656C132.978 27.9922 133.274 28.3346 133.495 28.793C133.716 29.2487 133.827 29.8203 133.827 30.5078C133.827 31.1771 133.719 31.7422 133.503 32.2031C133.289 32.6615 132.998 33.0091 132.628 33.2461C132.261 33.4805 131.849 33.5977 131.394 33.5977C131.071 33.5977 130.796 33.5443 130.569 33.4375C130.345 33.3307 130.162 33.1966 130.019 33.0352C129.875 32.8711 129.766 32.7057 129.69 32.5391H129.64V35.75H127.976ZM129.604 30.5C129.604 30.8568 129.654 31.168 129.753 31.4336C129.852 31.6992 129.995 31.9062 130.183 32.0547C130.37 32.2005 130.598 32.2734 130.866 32.2734C131.137 32.2734 131.366 32.1992 131.554 32.0508C131.741 31.8997 131.883 31.6914 131.979 31.4258C132.078 31.1576 132.128 30.849 132.128 30.5C132.128 30.1536 132.08 29.849 131.983 29.5859C131.887 29.3229 131.745 29.1172 131.558 28.9687C131.37 28.8203 131.14 28.7461 130.866 28.7461C130.595 28.7461 130.366 28.8177 130.179 28.9609C129.994 29.1042 129.852 29.3073 129.753 29.5703C129.654 29.8333 129.604 30.1432 129.604 30.5ZM137.671 33.6172C137.054 33.6172 136.522 33.4922 136.077 33.2422C135.634 32.9896 135.293 32.6328 135.054 32.1719C134.814 31.7083 134.694 31.1602 134.694 30.5273C134.694 29.9102 134.814 29.3685 135.054 28.9023C135.293 28.4362 135.631 28.0729 136.065 27.8125C136.503 27.5521 137.016 27.4219 137.604 27.4219C138 27.4219 138.369 27.4857 138.71 27.6133C139.054 27.7383 139.353 27.9271 139.608 28.1797C139.866 28.4323 140.067 28.75 140.21 29.1328C140.353 29.513 140.425 29.9583 140.425 30.4687V30.9258H135.358V29.8945H138.858C138.858 29.6549 138.806 29.4427 138.702 29.2578C138.598 29.0729 138.453 28.9284 138.269 28.8242C138.086 28.7174 137.874 28.6641 137.632 28.6641C137.379 28.6641 137.155 28.7227 136.96 28.8398C136.767 28.9544 136.616 29.1094 136.507 29.3047C136.397 29.4974 136.341 29.7122 136.339 29.9492V30.9297C136.339 31.2266 136.394 31.4831 136.503 31.6992C136.615 31.9154 136.772 32.082 136.976 32.1992C137.179 32.3164 137.42 32.375 137.698 32.375C137.883 32.375 138.052 32.349 138.206 32.2969C138.36 32.2448 138.491 32.1667 138.601 32.0625C138.71 31.9583 138.793 31.8307 138.851 31.6797L140.39 31.7812C140.312 32.151 140.151 32.474 139.909 32.75C139.67 33.0234 139.36 33.237 138.979 33.3906C138.602 33.5417 138.166 33.6172 137.671 33.6172ZM143.175 25.5V33.5H141.511V25.5H143.175ZM144.508 33.5V27.5H146.172V33.5H144.508ZM145.344 26.7266C145.096 26.7266 144.884 26.6445 144.707 26.4805C144.533 26.3138 144.445 26.1146 144.445 25.8828C144.445 25.6536 144.533 25.457 144.707 25.293C144.884 25.1263 145.096 25.043 145.344 25.043C145.591 25.043 145.802 25.1263 145.977 25.293C146.154 25.457 146.242 25.6536 146.242 25.8828C146.242 26.1146 146.154 26.3138 145.977 26.4805C145.802 26.6445 145.591 26.7266 145.344 26.7266ZM149.169 30.0313V33.5H147.505V27.5H149.091V28.5586H149.161C149.294 28.2096 149.517 27.9336 149.829 27.7305C150.142 27.5247 150.521 27.4219 150.966 27.4219C151.382 27.4219 151.746 27.513 152.056 27.6953C152.366 27.8776 152.606 28.138 152.778 28.4766C152.95 28.8125 153.036 29.2135 153.036 29.6797V33.5H151.372V29.9766C151.375 29.6094 151.281 29.3229 151.091 29.1172C150.901 28.9089 150.639 28.8047 150.306 28.8047C150.082 28.8047 149.884 28.8529 149.712 28.9492C149.543 29.0456 149.41 29.1862 149.313 29.3711C149.22 29.5534 149.172 29.7734 149.169 30.0313ZM157.082 33.6172C156.465 33.6172 155.934 33.4922 155.488 33.2422C155.046 32.9896 154.704 32.6328 154.465 32.1719C154.225 31.7083 154.105 31.1602 154.105 30.5273C154.105 29.9102 154.225 29.3685 154.465 28.9023C154.704 28.4362 155.042 28.0729 155.477 27.8125C155.914 27.5521 156.427 27.4219 157.016 27.4219C157.411 27.4219 157.78 27.4857 158.121 27.6133C158.465 27.7383 158.764 27.9271 159.02 28.1797C159.277 28.4323 159.478 28.75 159.621 29.1328C159.764 29.513 159.836 29.9583 159.836 30.4687V30.9258H154.77V29.8945H158.27C158.27 29.6549 158.217 29.4427 158.113 29.2578C158.009 29.0729 157.865 28.9284 157.68 28.8242C157.497 28.7174 157.285 28.6641 157.043 28.6641C156.79 28.6641 156.566 28.7227 156.371 28.8398C156.178 28.9544 156.027 29.1094 155.918 29.3047C155.809 29.4974 155.753 29.7122 155.75 29.9492V30.9297C155.75 31.2266 155.805 31.4831 155.914 31.6992C156.026 31.9154 156.184 32.082 156.387 32.1992C156.59 32.3164 156.831 32.375 157.109 32.375C157.294 32.375 157.464 32.349 157.617 32.2969C157.771 32.2448 157.902 32.1667 158.012 32.0625C158.121 31.9583 158.204 31.8307 158.262 31.6797L159.801 31.7812C159.723 32.151 159.563 32.474 159.32 32.75C159.081 33.0234 158.771 33.237 158.391 33.3906C158.013 33.5417 157.577 33.6172 157.082 33.6172ZM161.895 33.6016C161.637 33.6016 161.415 33.5104 161.23 33.3281C161.048 33.1432 160.957 32.9219 160.957 32.6641C160.957 32.4089 161.048 32.1901 161.23 32.0078C161.415 31.8255 161.637 31.7344 161.895 31.7344C162.145 31.7344 162.363 31.8255 162.551 32.0078C162.738 32.1901 162.832 32.4089 162.832 32.6641C162.832 32.8359 162.788 32.9935 162.699 33.1367C162.613 33.2773 162.5 33.3906 162.359 33.4766C162.219 33.5599 162.064 33.6016 161.895 33.6016ZM165.226 35.75C165.015 35.75 164.817 35.7331 164.632 35.6992C164.45 35.668 164.299 35.6276 164.179 35.5781L164.554 34.3359C164.749 34.3958 164.925 34.4284 165.081 34.4336C165.24 34.4388 165.377 34.4023 165.491 34.3242C165.608 34.2461 165.703 34.1133 165.776 33.9258L165.874 33.6719L163.722 27.5H165.472L166.714 31.9062H166.776L168.03 27.5H169.792L167.46 34.1484C167.348 34.4714 167.196 34.7526 167.003 34.9922C166.813 35.2344 166.572 35.4206 166.28 35.5508C165.989 35.6836 165.637 35.75 165.226 35.75ZM172.193 33.6133C171.811 33.6133 171.469 33.5469 171.17 33.4141C170.87 33.2786 170.633 33.0794 170.459 32.8164C170.287 32.5508 170.201 32.2201 170.201 31.8242C170.201 31.4909 170.262 31.2109 170.385 30.9844C170.507 30.7578 170.674 30.5755 170.885 30.4375C171.096 30.2995 171.335 30.1953 171.604 30.125C171.874 30.0547 172.158 30.0052 172.455 29.9766C172.804 29.9401 173.085 29.9062 173.299 29.875C173.512 29.8411 173.667 29.7917 173.764 29.7266C173.86 29.6615 173.908 29.5651 173.908 29.4375V29.4141C173.908 29.1667 173.83 28.9753 173.674 28.8398C173.52 28.7044 173.301 28.6367 173.018 28.6367C172.718 28.6367 172.48 28.7031 172.303 28.8359C172.126 28.9661 172.008 29.1302 171.951 29.3281L170.412 29.2031C170.49 28.8385 170.644 28.5234 170.873 28.2578C171.102 27.9896 171.398 27.7839 171.76 27.6406C172.124 27.4948 172.546 27.4219 173.025 27.4219C173.359 27.4219 173.678 27.4609 173.982 27.5391C174.29 27.6172 174.562 27.7383 174.799 27.9023C175.038 28.0664 175.227 28.2773 175.365 28.5352C175.503 28.7904 175.572 29.0964 175.572 29.4531V33.5H173.994V32.668H173.947C173.851 32.8555 173.722 33.0208 173.561 33.1641C173.399 33.3047 173.205 33.4154 172.979 33.4961C172.752 33.5742 172.49 33.6133 172.193 33.6133ZM172.67 32.4648C172.915 32.4648 173.131 32.4167 173.318 32.3203C173.506 32.2214 173.653 32.0885 173.76 31.9219C173.867 31.7552 173.92 31.5664 173.92 31.3555V30.7188C173.868 30.7526 173.796 30.7839 173.705 30.8125C173.617 30.8385 173.516 30.8633 173.404 30.8867C173.292 30.9076 173.18 30.9271 173.068 30.9453C172.956 30.9609 172.855 30.9753 172.764 30.9883C172.568 31.0169 172.398 31.0625 172.252 31.125C172.106 31.1875 171.993 31.2721 171.912 31.3789C171.831 31.4831 171.791 31.6133 171.791 31.7695C171.791 31.9961 171.873 32.1693 172.037 32.2891C172.204 32.4062 172.415 32.4648 172.67 32.4648ZM176.863 33.5V27.5H178.449V28.5586H178.52C178.645 28.207 178.853 27.9297 179.145 27.7266C179.436 27.5234 179.785 27.4219 180.191 27.4219C180.603 27.4219 180.953 27.5247 181.242 27.7305C181.531 27.9336 181.724 28.2096 181.82 28.5586H181.883C182.005 28.2148 182.227 27.9401 182.547 27.7344C182.87 27.526 183.251 27.4219 183.691 27.4219C184.251 27.4219 184.706 27.6003 185.055 27.957C185.406 28.3112 185.582 28.8138 185.582 29.4648V33.5H183.922V29.793C183.922 29.4596 183.833 29.2096 183.656 29.043C183.479 28.8763 183.258 28.793 182.992 28.793C182.69 28.793 182.454 28.8893 182.285 29.082C182.116 29.2721 182.031 29.5234 182.031 29.8359V33.5H180.418V29.7578C180.418 29.4635 180.333 29.2292 180.164 29.0547C179.997 28.8802 179.777 28.793 179.504 28.793C179.319 28.793 179.152 28.8398 179.004 28.9336C178.858 29.0247 178.742 29.1536 178.656 29.3203C178.57 29.4844 178.527 29.6771 178.527 29.8984V33.5H176.863ZM188.561 25.5V33.5H186.896V25.5H188.561Z" fill="white"/>
<path d="M31.2813 50.2917C30.7396 50.2917 30.2643 50.1628 29.8555 49.9049C29.4492 49.6471 29.1315 49.2864 28.9023 48.8229C28.6758 48.3594 28.5625 47.8177 28.5625 47.1979C28.5625 46.5729 28.6758 46.0273 28.9023 45.5612C29.1315 45.095 29.4492 44.7331 29.8555 44.4753C30.2643 44.2174 30.7396 44.0885 31.2813 44.0885C31.8229 44.0885 32.2969 44.2174 32.7031 44.4753C33.112 44.7331 33.4297 45.095 33.6563 45.5612C33.8854 46.0273 34 46.5729 34 47.1979C34 47.8177 33.8854 48.3594 33.6563 48.8229C33.4297 49.2864 33.112 49.6471 32.7031 49.9049C32.2969 50.1628 31.8229 50.2917 31.2813 50.2917ZM31.2813 49.4635C31.6927 49.4635 32.0312 49.3581 32.2969 49.1471C32.5625 48.9362 32.7591 48.6588 32.8867 48.3151C33.0143 47.9713 33.0781 47.5989 33.0781 47.1979C33.0781 46.7969 33.0143 46.4232 32.8867 46.0768C32.7591 45.7305 32.5625 45.4505 32.2969 45.237C32.0312 45.0234 31.6927 44.9167 31.2813 44.9167C30.8698 44.9167 30.5313 45.0234 30.2656 45.237C30 45.4505 29.8034 45.7305 29.6758 46.0768C29.5482 46.4232 29.4844 46.7969 29.4844 47.1979C29.4844 47.5989 29.5482 47.9713 29.6758 48.3151C29.8034 48.6588 30 48.9362 30.2656 49.1471C30.5313 49.3581 30.8698 49.4635 31.2813 49.4635ZM36.3291 46.5573V50.1667H35.4072V44.1667H36.2979V45.1042H36.376C36.5166 44.7995 36.7301 44.5547 37.0166 44.3698C37.3031 44.1823 37.6729 44.0885 38.126 44.0885C38.5322 44.0885 38.8877 44.1719 39.1924 44.3385C39.4971 44.5026 39.734 44.7526 39.9033 45.0885C40.0726 45.4219 40.1572 45.8437 40.1572 46.3542V50.1667H39.2354V46.4167C39.2354 45.9453 39.113 45.5781 38.8682 45.3151C38.6234 45.0495 38.2874 44.9167 37.8604 44.9167C37.5661 44.9167 37.3031 44.9805 37.0713 45.1081C36.8421 45.2357 36.6611 45.4219 36.5283 45.6667C36.3955 45.9114 36.3291 46.2083 36.3291 46.5573ZM42.5137 50.2292C42.321 50.2292 42.1556 50.1601 42.0176 50.0221C41.8796 49.8841 41.8105 49.7187 41.8105 49.526C41.8105 49.3333 41.8796 49.168 42.0176 49.0299C42.1556 48.8919 42.321 48.8229 42.5137 48.8229C42.7064 48.8229 42.8717 48.8919 43.0098 49.0299C43.1478 49.168 43.2168 49.3333 43.2168 49.526C43.2168 49.6536 43.1842 49.7708 43.1191 49.8776C43.0566 49.9844 42.972 50.0703 42.8652 50.1354C42.7611 50.1979 42.6439 50.2292 42.5137 50.2292ZM42.5137 45.776C42.321 45.776 42.1556 45.707 42.0176 45.569C41.8796 45.431 41.8105 45.2656 41.8105 45.0729C41.8105 44.8802 41.8796 44.7148 42.0176 44.5768C42.1556 44.4388 42.321 44.3698 42.5137 44.3698C42.7064 44.3698 42.8717 44.4388 43.0098 44.5768C43.1478 44.7148 43.2168 44.8802 43.2168 45.0729C43.2168 45.2005 43.1842 45.3177 43.1191 45.4245C43.0566 45.5312 42.972 45.6172 42.8652 45.6823C42.7611 45.7448 42.6439 45.776 42.5137 45.776ZM44.8711 52.4167V44.1667H45.7617V45.1198H45.8711C45.9388 45.0156 46.0326 44.8828 46.1523 44.7213C46.2747 44.5573 46.4492 44.4114 46.6758 44.2838C46.9049 44.1536 47.2148 44.0885 47.6055 44.0885C48.1107 44.0885 48.556 44.2148 48.9414 44.4674C49.3268 44.72 49.6276 45.0781 49.8438 45.5417C50.0599 46.0052 50.168 46.5521 50.168 47.1823C50.168 47.8177 50.0599 48.3685 49.8438 48.8346C49.6276 49.2982 49.3281 49.6575 48.9453 49.9128C48.5625 50.1654 48.1211 50.2917 47.6211 50.2917C47.2357 50.2917 46.9271 50.2279 46.6953 50.1003C46.4635 49.97 46.2852 49.8229 46.1602 49.6588C46.0352 49.4922 45.9388 49.3542 45.8711 49.2448H45.793V52.4167H44.8711ZM45.7773 47.1667C45.7773 47.6198 45.8437 48.0195 45.9766 48.3659C46.1094 48.7096 46.3034 48.9792 46.5586 49.1745C46.8138 49.3672 47.1263 49.4635 47.4961 49.4635C47.8815 49.4635 48.2031 49.362 48.4609 49.1588C48.7214 48.9531 48.9167 48.6771 49.0469 48.3307C49.1797 47.9818 49.2461 47.5937 49.2461 47.1667C49.2461 46.7448 49.181 46.3646 49.0508 46.026C48.9232 45.6849 48.7292 45.4154 48.4688 45.2174C48.2109 45.0169 47.8867 44.9167 47.4961 44.9167C47.1211 44.9167 46.806 45.0117 46.5508 45.2018C46.2956 45.3893 46.1029 45.6523 45.9727 45.9909C45.8424 46.3268 45.7773 46.7187 45.7773 47.1667ZM55.3555 47.7135V44.1667H56.2773V50.1667H55.3555V49.151H55.293C55.1523 49.4557 54.9336 49.7148 54.6367 49.9284C54.3398 50.1393 53.9648 50.2448 53.5117 50.2448C53.1367 50.2448 52.8034 50.1628 52.5117 49.9987C52.2201 49.832 51.9909 49.582 51.8242 49.2487C51.6576 48.9128 51.5742 48.4896 51.5742 47.9792V44.1667H52.4961V47.9167C52.4961 48.3542 52.6185 48.7031 52.8633 48.9635C53.1107 49.2239 53.4258 49.3542 53.8086 49.3542C54.0378 49.3542 54.2708 49.2956 54.5078 49.1784C54.7474 49.0612 54.9479 48.8815 55.1094 48.6393C55.2734 48.3971 55.3555 48.0885 55.3555 47.7135ZM62.2158 45.5104L61.3877 45.7448C61.3356 45.6068 61.2588 45.4726 61.1572 45.3424C61.0583 45.2096 60.9229 45.1003 60.751 45.0143C60.5791 44.9284 60.359 44.8854 60.0908 44.8854C59.7236 44.8854 59.4176 44.97 59.1729 45.1393C58.9307 45.306 58.8096 45.5182 58.8096 45.776C58.8096 46.0052 58.8929 46.1862 59.0596 46.319C59.2262 46.4518 59.4867 46.5625 59.8408 46.651L60.7314 46.8698C61.2679 47 61.6676 47.1992 61.9307 47.4674C62.1937 47.7331 62.3252 48.0755 62.3252 48.4948C62.3252 48.8385 62.2262 49.1458 62.0283 49.4167C61.833 49.6875 61.5596 49.901 61.208 50.0573C60.8564 50.2135 60.4476 50.2917 59.9814 50.2917C59.3695 50.2917 58.863 50.1588 58.4619 49.8932C58.0609 49.6276 57.807 49.2396 57.7002 48.7292L58.5752 48.5104C58.6585 48.8333 58.8161 49.0755 59.0479 49.237C59.2822 49.3984 59.5882 49.4792 59.9658 49.4792C60.3955 49.4792 60.7367 49.388 60.9893 49.2057C61.2445 49.0208 61.3721 48.7995 61.3721 48.5417C61.3721 48.3333 61.2992 48.1588 61.1533 48.0182C61.0075 47.875 60.7835 47.7682 60.4814 47.6979L59.4814 47.4635C58.932 47.3333 58.5283 47.1315 58.2705 46.8581C58.0153 46.582 57.8877 46.237 57.8877 45.8229C57.8877 45.4844 57.9827 45.1849 58.1729 44.9245C58.3656 44.6641 58.6273 44.4596 58.958 44.3112C59.2913 44.1628 59.6689 44.0885 60.0908 44.0885C60.6846 44.0885 61.1507 44.2187 61.4893 44.4792C61.8304 44.7396 62.0726 45.0833 62.2158 45.5104ZM64.6348 46.5573V50.1667H63.7129V42.1667H64.6348V45.1042H64.7129C64.8535 44.7943 65.0645 44.5482 65.3457 44.3659C65.6296 44.181 66.0072 44.0885 66.4785 44.0885C66.8874 44.0885 67.2454 44.1706 67.5527 44.3346C67.86 44.4961 68.0983 44.7448 68.2676 45.0807C68.4395 45.4141 68.5254 45.8385 68.5254 46.3542V50.1667H67.6035V46.4167C67.6035 45.9401 67.4798 45.5716 67.2324 45.3112C66.9876 45.0482 66.6478 44.9167 66.2129 44.9167C65.9108 44.9167 65.64 44.9805 65.4004 45.1081C65.1634 45.2357 64.9759 45.4219 64.8379 45.6667C64.7025 45.9114 64.6348 46.2083 64.6348 46.5573Z" fill="#7DD3FC" fill-opacity="0.75"/>
<path d="M122 160H138" stroke="white" stroke-opacity="0.22"/>
<path d="M274 160C287 160 287 95.8333 300 95.8333" stroke="white" stroke-opacity="0.22"/>
<path d="M274 160H300" stroke="white" stroke-opacity="0.22"/>
<path d="M274 160C287 160 287 224.167 300 224.167" stroke="white" stroke-opacity="0.22"/>
<path d="M444 95.8333H468" stroke="white" stroke-opacity="0.22"/>
<path d="M444 160H468" stroke="white" stroke-opacity="0.22"/>
<path d="M444 224L468 224.167" stroke="white" stroke-opacity="0.22"/>
<path d="M114 145.833H32C27.5817 145.833 24 148.818 24 152.5V167.5C24 171.182 27.5817 174.167 32 174.167H114C118.418 174.167 122 171.182 122 167.5V152.5C122 148.818 118.418 145.833 114 145.833Z" fill="white" fill-opacity="0.1" stroke="white" stroke-opacity="0.18"/>
<path d="M44 166.667C48.4183 166.667 52 163.682 52 160C52 156.318 48.4183 153.333 44 153.333C39.5817 153.333 36 156.318 36 160C36 163.682 39.5817 166.667 44 166.667Z" fill="#22C55E"/>
<path d="M60.5795 165.47C59.9659 165.47 59.4375 165.325 58.9943 165.035C58.5511 164.745 58.2102 164.346 57.9716 163.838C57.733 163.329 57.6136 162.748 57.6136 162.095C57.6136 161.43 57.7358 160.843 57.9801 160.335C58.2273 159.823 58.571 159.424 59.0114 159.137C59.4545 158.848 59.9716 158.703 60.5625 158.703C61.0227 158.703 61.4375 158.788 61.8068 158.958C62.1761 159.129 62.4787 159.367 62.7145 159.674C62.9503 159.981 63.0966 160.339 63.1534 160.748H62.1477C62.071 160.45 61.9006 160.186 61.6364 159.955C61.375 159.723 61.0227 159.606 60.5795 159.606C60.1875 159.606 59.8438 159.708 59.5483 159.913C59.2557 160.115 59.027 160.4 58.8622 160.769C58.7003 161.136 58.6193 161.566 58.6193 162.061C58.6193 162.566 58.6989 163.007 58.858 163.382C59.0199 163.757 59.2472 164.048 59.5398 164.255C59.8352 164.463 60.1818 164.566 60.5795 164.566C60.8409 164.566 61.0781 164.521 61.2912 164.43C61.5043 164.339 61.6847 164.208 61.8324 164.038C61.9801 163.867 62.0852 163.663 62.1477 163.424H63.1534C63.0966 163.811 62.956 164.159 62.7315 164.468C62.5099 164.775 62.2159 165.019 61.8494 165.201C61.4858 165.38 61.0625 165.47 60.5795 165.47ZM65.6293 156.606V165.333H64.6236V156.606H65.6293ZM70.1303 165.47C69.5394 165.47 69.021 165.329 68.5749 165.048C68.1317 164.767 67.7852 164.373 67.5352 163.867C67.288 163.362 67.1644 162.771 67.1644 162.095C67.1644 161.413 67.288 160.818 67.5352 160.309C67.7852 159.801 68.1317 159.406 68.5749 159.125C69.021 158.843 69.5394 158.703 70.1303 158.703C70.7212 158.703 71.2383 158.843 71.6815 159.125C72.1275 159.406 72.4741 159.801 72.7212 160.309C72.9712 160.818 73.0962 161.413 73.0962 162.095C73.0962 162.771 72.9712 163.362 72.7212 163.867C72.4741 164.373 72.1275 164.767 71.6815 165.048C71.2383 165.329 70.7212 165.47 70.1303 165.47ZM70.1303 164.566C70.5792 164.566 70.9485 164.451 71.2383 164.221C71.5281 163.991 71.7425 163.688 71.8817 163.313C72.021 162.938 72.0906 162.532 72.0906 162.095C72.0906 161.657 72.021 161.25 71.8817 160.872C71.7425 160.494 71.5281 160.188 71.2383 159.955C70.9485 159.723 70.5792 159.606 70.1303 159.606C69.6815 159.606 69.3121 159.723 69.0224 159.955C68.7326 160.188 68.5181 160.494 68.3789 160.872C68.2397 161.25 68.1701 161.657 68.1701 162.095C68.1701 162.532 68.2397 162.938 68.3789 163.313C68.5181 163.688 68.7326 163.991 69.0224 164.221C69.3121 164.451 69.6815 164.566 70.1303 164.566ZM75.6371 161.396V165.333H74.6314V158.788H75.603V159.811H75.6882C75.8416 159.478 76.0746 159.211 76.3871 159.009C76.6996 158.805 77.103 158.703 77.5973 158.703C78.0405 158.703 78.4283 158.794 78.7607 158.975C79.093 159.154 79.3516 159.427 79.5362 159.794C79.7209 160.157 79.8132 160.617 79.8132 161.174V165.333H78.8075V161.242C78.8075 160.728 78.674 160.328 78.407 160.041C78.1399 159.751 77.7734 159.606 77.3075 159.606C76.9865 159.606 76.6996 159.676 76.4467 159.815C76.1967 159.954 75.9993 160.157 75.8544 160.424C75.7095 160.691 75.6371 161.015 75.6371 161.396ZM84.3952 165.47C83.7646 165.47 83.2205 165.33 82.7631 165.052C82.3086 164.771 81.9577 164.379 81.7106 163.876C81.4663 163.37 81.3441 162.782 81.3441 162.112C81.3441 161.441 81.4663 160.85 81.7106 160.339C81.9577 159.825 82.3015 159.424 82.7418 159.137C83.185 158.848 83.7021 158.703 84.293 158.703C84.6339 158.703 84.9705 158.759 85.3029 158.873C85.6353 158.987 85.9379 159.171 86.2106 159.427C86.4833 159.68 86.7006 160.015 86.8626 160.433C87.0245 160.85 87.1055 161.365 87.1055 161.975V162.402H82.06V161.532H86.0827C86.0827 161.163 86.0089 160.833 85.8612 160.544C85.7163 160.254 85.5089 160.025 85.239 159.857C84.9719 159.69 84.6566 159.606 84.293 159.606C83.8924 159.606 83.5458 159.705 83.2532 159.904C82.9634 160.1 82.7404 160.356 82.5842 160.671C82.4279 160.987 82.3498 161.325 82.3498 161.686V162.265C82.3498 162.759 82.435 163.178 82.6055 163.522C82.7788 163.863 83.0188 164.123 83.3256 164.302C83.6325 164.478 83.989 164.566 84.3952 164.566C84.6594 164.566 84.8981 164.529 85.1112 164.455C85.3271 164.379 85.5131 164.265 85.6694 164.115C85.8256 163.961 85.9464 163.771 86.0316 163.544L87.0032 163.816C86.9009 164.146 86.729 164.436 86.4876 164.686C86.2461 164.933 85.9478 165.126 85.5927 165.265C85.2376 165.402 84.8384 165.47 84.3952 165.47Z" fill="white" fill-opacity="0.92"/>
<path d="M266 145.833H146C141.582 145.833 138 148.818 138 152.5V167.5C138 171.182 141.582 174.167 146 174.167H266C270.418 174.167 274 171.182 274 167.5V152.5C274 148.818 270.418 145.833 266 145.833Z" fill="white" fill-opacity="0.1" stroke="white" stroke-opacity="0.18"/>
<path d="M158 166.667C162.418 166.667 166 163.682 166 160C166 156.318 162.418 153.333 158 153.333C153.582 153.333 150 156.318 150 160C150 163.682 153.582 166.667 158 166.667Z" fill="#22C55E"/>
<path d="M176.045 162.657V158.788H177.051V165.333H176.045V164.225H175.977C175.824 164.558 175.585 164.84 175.261 165.073C174.938 165.303 174.528 165.419 174.034 165.419C173.625 165.419 173.261 165.329 172.943 165.15C172.625 164.968 172.375 164.696 172.193 164.332C172.011 163.965 171.92 163.504 171.92 162.947V158.788H172.926V162.879C172.926 163.356 173.06 163.737 173.327 164.021C173.597 164.305 173.94 164.447 174.358 164.447C174.608 164.447 174.862 164.383 175.121 164.255C175.382 164.127 175.601 163.931 175.777 163.667C175.956 163.403 176.045 163.066 176.045 162.657ZM179.899 161.396V165.333H178.893V158.788H179.865V159.811H179.95C180.103 159.478 180.336 159.211 180.649 159.009C180.961 158.805 181.365 158.703 181.859 158.703C182.302 158.703 182.69 158.794 183.022 158.975C183.355 159.154 183.613 159.427 183.798 159.794C183.983 160.157 184.075 160.617 184.075 161.174V165.333H183.069V161.242C183.069 160.728 182.936 160.328 182.669 160.041C182.402 159.751 182.035 159.606 181.569 159.606C181.248 159.606 180.961 159.676 180.708 159.815C180.458 159.954 180.261 160.157 180.116 160.424C179.971 160.691 179.899 161.015 179.899 161.396ZM185.913 165.333V158.788H186.918V165.333H185.913ZM186.424 157.697C186.228 157.697 186.059 157.63 185.917 157.497C185.778 157.363 185.708 157.203 185.708 157.015C185.708 156.828 185.778 156.667 185.917 156.534C186.059 156.4 186.228 156.333 186.424 156.333C186.62 156.333 186.788 156.4 186.927 156.534C187.069 156.667 187.14 156.828 187.14 157.015C187.14 157.203 187.069 157.363 186.927 157.497C186.788 157.63 186.62 157.697 186.424 157.697ZM191.607 158.788V159.64H188.215V158.788H191.607ZM189.203 157.22H190.209V163.458C190.209 163.742 190.25 163.955 190.333 164.098C190.418 164.237 190.526 164.33 190.657 164.379C190.79 164.424 190.931 164.447 191.078 164.447C191.189 164.447 191.28 164.441 191.351 164.43C191.422 164.416 191.479 164.404 191.522 164.396L191.726 165.299C191.658 165.325 191.563 165.35 191.441 165.376C191.319 165.404 191.164 165.419 190.976 165.419C190.692 165.419 190.414 165.357 190.141 165.235C189.871 165.113 189.647 164.927 189.468 164.677C189.292 164.427 189.203 164.112 189.203 163.731V157.22ZM196.635 161.123V162.061H192.817V161.123H196.635ZM201.251 158.788V159.64H197.859V158.788H201.251ZM198.848 157.22H199.854V163.458C199.854 163.742 199.895 163.955 199.977 164.098C200.063 164.237 200.17 164.33 200.301 164.379C200.435 164.424 200.575 164.447 200.723 164.447C200.834 164.447 200.925 164.441 200.996 164.43C201.067 164.416 201.124 164.404 201.166 164.396L201.371 165.299C201.303 165.325 201.207 165.35 201.085 165.376C200.963 165.404 200.808 165.419 200.621 165.419C200.337 165.419 200.058 165.357 199.786 165.235C199.516 165.113 199.291 164.927 199.112 164.677C198.936 164.427 198.848 164.112 198.848 163.731V157.22ZM205.438 165.47C204.808 165.47 204.263 165.33 203.806 165.052C203.352 164.771 203.001 164.379 202.754 163.876C202.509 163.37 202.387 162.782 202.387 162.112C202.387 161.441 202.509 160.85 202.754 160.339C203.001 159.825 203.344 159.424 203.785 159.137C204.228 158.848 204.745 158.703 205.336 158.703C205.677 158.703 206.013 158.759 206.346 158.873C206.678 158.987 206.981 159.171 207.254 159.427C207.526 159.68 207.744 160.015 207.906 160.433C208.067 160.85 208.148 161.365 208.148 161.975V162.402H203.103V161.532H207.126C207.126 161.163 207.052 160.833 206.904 160.544C206.759 160.254 206.552 160.025 206.282 159.857C206.015 159.69 205.7 159.606 205.336 159.606C204.935 159.606 204.589 159.705 204.296 159.904C204.006 160.1 203.783 160.356 203.627 160.671C203.471 160.987 203.393 161.325 203.393 161.686V162.265C203.393 162.759 203.478 163.178 203.648 163.522C203.822 163.863 204.062 164.123 204.369 164.302C204.675 164.478 205.032 164.566 205.438 164.566C205.702 164.566 205.941 164.529 206.154 164.455C206.37 164.379 206.556 164.265 206.712 164.115C206.869 163.961 206.989 163.771 207.075 163.544L208.046 163.816C207.944 164.146 207.772 164.436 207.531 164.686C207.289 164.933 206.991 165.126 206.636 165.265C206.281 165.402 205.881 165.47 205.438 165.47ZM214.315 160.254L213.411 160.509C213.354 160.359 213.271 160.213 213.16 160.071C213.052 159.926 212.904 159.806 212.717 159.713C212.529 159.619 212.289 159.572 211.996 159.572C211.596 159.572 211.262 159.664 210.995 159.849C210.731 160.031 210.599 160.262 210.599 160.544C210.599 160.794 210.69 160.991 210.871 161.136C211.053 161.281 211.337 161.402 211.724 161.498L212.695 161.737C213.281 161.879 213.717 162.096 214.004 162.389C214.29 162.678 214.434 163.052 214.434 163.509C214.434 163.884 214.326 164.22 214.11 164.515C213.897 164.811 213.599 165.044 213.215 165.214C212.832 165.384 212.386 165.47 211.877 165.47C211.21 165.47 210.657 165.325 210.219 165.035C209.782 164.745 209.505 164.322 209.388 163.765L210.343 163.527C210.434 163.879 210.606 164.143 210.859 164.319C211.114 164.495 211.448 164.583 211.86 164.583C212.329 164.583 212.701 164.484 212.977 164.285C213.255 164.083 213.394 163.842 213.394 163.561C213.394 163.333 213.315 163.143 213.156 162.99C212.996 162.833 212.752 162.717 212.423 162.64L211.332 162.384C210.732 162.242 210.292 162.022 210.011 161.724C209.732 161.423 209.593 161.046 209.593 160.595C209.593 160.225 209.697 159.899 209.904 159.615C210.114 159.33 210.4 159.107 210.761 158.946C211.124 158.784 211.536 158.703 211.996 158.703C212.644 158.703 213.153 158.845 213.522 159.129C213.894 159.413 214.158 159.788 214.315 160.254ZM218.794 158.788V159.64H215.402V158.788H218.794ZM216.391 157.22H217.397V163.458C217.397 163.742 217.438 163.955 217.52 164.098C217.605 164.237 217.713 164.33 217.844 164.379C217.978 164.424 218.118 164.447 218.266 164.447C218.377 164.447 218.468 164.441 218.539 164.43C218.61 164.416 218.667 164.404 218.709 164.396L218.914 165.299C218.846 165.325 218.75 165.35 218.628 165.376C218.506 165.404 218.351 165.419 218.164 165.419C217.88 165.419 217.601 165.357 217.328 165.235C217.059 165.113 216.834 164.927 216.655 164.677C216.479 164.427 216.391 164.112 216.391 163.731V157.22ZM224.826 160.254L223.923 160.509C223.866 160.359 223.782 160.213 223.672 160.071C223.564 159.926 223.416 159.806 223.228 159.713C223.041 159.619 222.801 159.572 222.508 159.572C222.108 159.572 221.774 159.664 221.507 159.849C221.243 160.031 221.11 160.262 221.11 160.544C221.11 160.794 221.201 160.991 221.383 161.136C221.565 161.281 221.849 161.402 222.235 161.498L223.207 161.737C223.792 161.879 224.228 162.096 224.515 162.389C224.802 162.678 224.946 163.052 224.946 163.509C224.946 163.884 224.838 164.22 224.622 164.515C224.409 164.811 224.11 165.044 223.727 165.214C223.343 165.384 222.897 165.47 222.389 165.47C221.721 165.47 221.169 165.325 220.731 165.035C220.294 164.745 220.017 164.322 219.9 163.765L220.855 163.527C220.946 163.879 221.118 164.143 221.37 164.319C221.626 164.495 221.96 164.583 222.372 164.583C222.841 164.583 223.213 164.484 223.488 164.285C223.767 164.083 223.906 163.842 223.906 163.561C223.906 163.333 223.826 163.143 223.667 162.99C223.508 162.833 223.264 162.717 222.934 162.64L221.843 162.384C221.244 162.242 220.804 162.022 220.522 161.724C220.244 161.423 220.105 161.046 220.105 160.595C220.105 160.225 220.208 159.899 220.416 159.615C220.626 159.33 220.912 159.107 221.272 158.946C221.636 158.784 222.048 158.703 222.508 158.703C223.156 158.703 223.664 158.845 224.034 159.129C224.406 159.413 224.67 159.788 224.826 160.254Z" fill="white" fill-opacity="0.92"/>
<path d="M436 81.6667H308C303.582 81.6667 300 84.6514 300 88.3333V103.333C300 107.015 303.582 110 308 110H436C440.418 110 444 107.015 444 103.333V88.3333C444 84.6514 440.418 81.6667 436 81.6667Z" fill="white" fill-opacity="0.1" stroke="white" stroke-opacity="0.18"/>
<path d="M320 102.5C324.418 102.5 328 99.5152 328 95.8333C328 92.1514 324.418 89.1667 320 89.1667C315.582 89.1667 312 92.1514 312 95.8333C312 99.5152 315.582 102.5 320 102.5Z" fill="#22C55E"/>
<path d="M334.057 101.167V92.4394H335.062V95.661H335.148C335.222 95.5474 335.324 95.4025 335.455 95.2263C335.588 95.0474 335.778 94.8883 336.026 94.7491C336.276 94.607 336.614 94.536 337.04 94.536C337.591 94.536 338.077 94.6738 338.497 94.9493C338.918 95.2249 339.246 95.6155 339.482 96.1212C339.717 96.6269 339.835 97.2235 339.835 97.911C339.835 98.6042 339.717 99.205 339.482 99.7135C339.246 100.219 338.919 100.611 338.501 100.89C338.084 101.165 337.602 101.303 337.057 101.303C336.636 101.303 336.3 101.233 336.047 101.094C335.794 100.952 335.599 100.792 335.463 100.613C335.327 100.431 335.222 100.28 335.148 100.161H335.028V101.167H334.057ZM335.045 97.8939C335.045 98.3883 335.118 98.8243 335.263 99.2022C335.408 99.5772 335.619 99.8712 335.898 100.084C336.176 100.295 336.517 100.4 336.92 100.4C337.341 100.4 337.692 100.289 337.973 100.067C338.257 99.8428 338.47 99.5417 338.612 99.1638C338.757 98.7831 338.83 98.3599 338.83 97.8939C338.83 97.4337 338.759 97.0189 338.616 96.6496C338.477 96.2775 338.266 95.9834 337.982 95.7675C337.7 95.5488 337.347 95.4394 336.92 95.4394C336.511 95.4394 336.168 95.5431 335.889 95.7505C335.611 95.955 335.401 96.242 335.259 96.6113C335.116 96.9778 335.045 97.4053 335.045 97.8939ZM345.499 98.4905V94.6212H346.504V101.167H345.499V100.059H345.43C345.277 100.391 345.038 100.674 344.714 100.907C344.391 101.137 343.982 101.252 343.487 101.252C343.078 101.252 342.714 101.162 342.396 100.983C342.078 100.802 341.828 100.529 341.646 100.165C341.464 99.7988 341.374 99.3371 341.374 98.7803V94.6212H342.379V98.7121C342.379 99.1894 342.513 99.5701 342.78 99.8542C343.05 100.138 343.393 100.28 343.811 100.28C344.061 100.28 344.315 100.216 344.574 100.089C344.835 99.9607 345.054 99.7647 345.23 99.5005C345.409 99.2363 345.499 98.8996 345.499 98.4905ZM348.346 101.167V94.6212H349.352V101.167H348.346ZM348.858 93.5303C348.662 93.5303 348.493 93.4635 348.35 93.33C348.211 93.1965 348.142 93.036 348.142 92.8485C348.142 92.661 348.211 92.5005 348.35 92.367C348.493 92.2334 348.662 92.1667 348.858 92.1667C349.054 92.1667 349.221 92.2334 349.36 92.367C349.502 92.5005 349.574 92.661 349.574 92.8485C349.574 93.036 349.502 93.1965 349.36 93.33C349.221 93.4635 349.054 93.5303 348.858 93.5303ZM352.2 92.4394V101.167H351.194V92.4394H352.2ZM356.513 101.303C355.968 101.303 355.486 101.165 355.069 100.89C354.651 100.611 354.324 100.219 354.088 99.7135C353.853 99.205 353.735 98.6042 353.735 97.911C353.735 97.2235 353.853 96.6269 354.088 96.1212C354.324 95.6155 354.652 95.2249 355.073 94.9493C355.493 94.6738 355.979 94.536 356.53 94.536C356.956 94.536 357.293 94.607 357.54 94.7491C357.79 94.8883 357.98 95.0474 358.111 95.2263C358.245 95.4025 358.348 95.5474 358.422 95.661H358.507V92.4394H359.513V101.167H358.542V100.161H358.422C358.348 100.28 358.243 100.431 358.107 100.613C357.971 100.792 357.776 100.952 357.523 101.094C357.27 101.233 356.934 101.303 356.513 101.303ZM356.65 100.4C357.053 100.4 357.394 100.295 357.672 100.084C357.951 99.8712 358.162 99.5772 358.307 99.2022C358.452 98.8243 358.525 98.3883 358.525 97.8939C358.525 97.4053 358.453 96.9778 358.311 96.6113C358.169 96.242 357.959 95.955 357.681 95.7505C357.402 95.5431 357.059 95.4394 356.65 95.4394C356.223 95.4394 355.868 95.5488 355.584 95.7675C355.303 95.9834 355.091 96.2775 354.949 96.6496C354.81 97.0189 354.74 97.4337 354.74 97.8939C354.74 98.3599 354.811 98.7831 354.953 99.1638C355.098 99.5417 355.311 99.8428 355.593 100.067C355.877 100.289 356.229 100.4 356.65 100.4ZM365.875 92.4394V101.167H364.87V92.4394H365.875ZM367.717 101.167V94.6212H368.723V101.167H367.717ZM368.229 93.5303C368.033 93.5303 367.864 93.4635 367.722 93.33C367.582 93.1965 367.513 93.036 367.513 92.8485C367.513 92.661 367.582 92.5005 367.722 92.367C367.864 92.2334 368.033 92.1667 368.229 92.1667C368.425 92.1667 368.592 92.2334 368.732 92.367C368.874 92.5005 368.945 92.661 368.945 92.8485C368.945 93.036 368.874 93.1965 368.732 93.33C368.592 93.4635 368.425 93.5303 368.229 93.5303ZM371.571 97.2292V101.167H370.565V94.6212H371.537V95.6439H371.622C371.775 95.3116 372.008 95.0445 372.321 94.8428C372.633 94.6383 373.037 94.536 373.531 94.536C373.974 94.536 374.362 94.6269 374.694 94.8087C375.027 94.9877 375.285 95.2604 375.47 95.6269C375.654 95.9905 375.747 96.4508 375.747 97.0076V101.167H374.741V97.0758C374.741 96.5616 374.608 96.161 374.341 95.8741C374.074 95.5843 373.707 95.4394 373.241 95.4394C372.92 95.4394 372.633 95.509 372.38 95.6482C372.13 95.7874 371.933 95.9905 371.788 96.2576C371.643 96.5246 371.571 96.8485 371.571 97.2292ZM381.71 98.4905V94.6212H382.715V101.167H381.71V100.059H381.641C381.488 100.391 381.249 100.674 380.925 100.907C380.602 101.137 380.192 101.252 379.698 101.252C379.289 101.252 378.925 101.162 378.607 100.983C378.289 100.802 378.039 100.529 377.857 100.165C377.675 99.7988 377.585 99.3371 377.585 98.7803V94.6212H378.59V98.7121C378.59 99.1894 378.724 99.5701 378.991 99.8542C379.261 100.138 379.604 100.28 380.022 100.28C380.272 100.28 380.526 100.216 380.785 100.089C381.046 99.9607 381.265 99.7647 381.441 99.5005C381.62 99.2363 381.71 98.8996 381.71 98.4905ZM385.307 94.6212L386.875 97.2974L388.444 94.6212H389.603L387.489 97.8939L389.603 101.167H388.444L386.875 98.6269L385.307 101.167H384.148L386.228 97.8939L384.148 94.6212H385.307Z" fill="white" fill-opacity="0.92"/>
<path d="M436.709 146H307.291C303.264 146 300 148.95 300 152.588V167.412C300 171.05 303.264 174 307.291 174H436.709C440.736 174 444 171.05 444 167.412V152.588C444 148.95 440.736 146 436.709 146Z" fill="white" fill-opacity="0.1" stroke="white" stroke-opacity="0.18"/>
<path d="M320 166.667C324.418 166.667 328 163.682 328 160C328 156.318 324.418 153.333 320 153.333C315.582 153.333 312 156.318 312 160C312 163.682 315.582 166.667 320 166.667Z" fill="#22C55E"/>
<path d="M334.057 165.333V156.606H335.062V159.828H335.148C335.222 159.714 335.324 159.569 335.455 159.393C335.588 159.214 335.778 159.055 336.026 158.916C336.276 158.774 336.614 158.703 337.04 158.703C337.591 158.703 338.077 158.84 338.497 159.116C338.918 159.392 339.246 159.782 339.482 160.288C339.717 160.794 339.835 161.39 339.835 162.078C339.835 162.771 339.717 163.372 339.482 163.88C339.246 164.386 338.919 164.778 338.501 165.056C338.084 165.332 337.602 165.47 337.057 165.47C336.636 165.47 336.3 165.4 336.047 165.261C335.794 165.119 335.599 164.958 335.463 164.779C335.327 164.598 335.222 164.447 335.148 164.328H335.028V165.333H334.057ZM335.045 162.061C335.045 162.555 335.118 162.991 335.263 163.369C335.408 163.744 335.619 164.038 335.898 164.251C336.176 164.461 336.517 164.566 336.92 164.566C337.341 164.566 337.692 164.455 337.973 164.234C338.257 164.009 338.47 163.708 338.612 163.33C338.757 162.95 338.83 162.527 338.83 162.061C338.83 161.6 338.759 161.186 338.616 160.816C338.477 160.444 338.266 160.15 337.982 159.934C337.7 159.715 337.347 159.606 336.92 159.606C336.511 159.606 336.168 159.71 335.889 159.917C335.611 160.122 335.401 160.409 335.259 160.778C335.116 161.144 335.045 161.572 335.045 162.061ZM345.499 162.657V158.788H346.504V165.333H345.499V164.225H345.43C345.277 164.558 345.038 164.84 344.714 165.073C344.391 165.303 343.982 165.419 343.487 165.419C343.078 165.419 342.714 165.329 342.396 165.15C342.078 164.968 341.828 164.696 341.646 164.332C341.464 163.965 341.374 163.504 341.374 162.947V158.788H342.379V162.879C342.379 163.356 342.513 163.737 342.78 164.021C343.05 164.305 343.393 164.447 343.811 164.447C344.061 164.447 344.315 164.383 344.574 164.255C344.835 164.127 345.054 163.931 345.23 163.667C345.409 163.403 345.499 163.066 345.499 162.657ZM348.346 165.333V158.788H349.352V165.333H348.346ZM348.858 157.697C348.662 157.697 348.493 157.63 348.35 157.497C348.211 157.363 348.142 157.203 348.142 157.015C348.142 156.828 348.211 156.667 348.35 156.534C348.493 156.4 348.662 156.333 348.858 156.333C349.054 156.333 349.221 156.4 349.36 156.534C349.502 156.667 349.574 156.828 349.574 157.015C349.574 157.203 349.502 157.363 349.36 157.497C349.221 157.63 349.054 157.697 348.858 157.697ZM352.2 156.606V165.333H351.194V156.606H352.2ZM356.513 165.47C355.968 165.47 355.486 165.332 355.069 165.056C354.651 164.778 354.324 164.386 354.088 163.88C353.853 163.372 353.735 162.771 353.735 162.078C353.735 161.39 353.853 160.794 354.088 160.288C354.324 159.782 354.652 159.392 355.073 159.116C355.493 158.84 355.979 158.703 356.53 158.703C356.956 158.703 357.293 158.774 357.54 158.916C357.79 159.055 357.98 159.214 358.111 159.393C358.245 159.569 358.348 159.714 358.422 159.828H358.507V156.606H359.513V165.333H358.542V164.328H358.422C358.348 164.447 358.243 164.598 358.107 164.779C357.971 164.958 357.776 165.119 357.523 165.261C357.27 165.4 356.934 165.47 356.513 165.47ZM356.65 164.566C357.053 164.566 357.394 164.461 357.672 164.251C357.951 164.038 358.162 163.744 358.307 163.369C358.452 162.991 358.525 162.555 358.525 162.061C358.525 161.572 358.453 161.144 358.311 160.778C358.169 160.409 357.959 160.122 357.681 159.917C357.402 159.71 357.059 159.606 356.65 159.606C356.223 159.606 355.868 159.715 355.584 159.934C355.303 160.15 355.091 160.444 354.949 160.816C354.81 161.186 354.74 161.6 354.74 162.061C354.74 162.527 354.811 162.95 354.953 163.33C355.098 163.708 355.311 164.009 355.593 164.234C355.877 164.455 356.229 164.566 356.65 164.566ZM366.353 165.333L364.358 158.788H365.415L366.83 163.799H366.898L368.296 158.788H369.37L370.75 163.782H370.819L372.233 158.788H373.29L371.296 165.333H370.307L368.875 160.305H368.773L367.341 165.333H366.353ZM374.62 165.333V158.788H375.625V165.333H374.62ZM375.131 157.697C374.935 157.697 374.766 157.63 374.624 157.497C374.485 157.363 374.415 157.203 374.415 157.015C374.415 156.828 374.485 156.667 374.624 156.534C374.766 156.4 374.935 156.333 375.131 156.333C375.327 156.333 375.495 156.4 375.634 156.534C375.776 156.667 375.847 156.828 375.847 157.015C375.847 157.203 375.776 157.363 375.634 157.497C375.495 157.63 375.327 157.697 375.131 157.697ZM378.473 161.396V165.333H377.467V158.788H378.439V159.811H378.524C378.678 159.478 378.911 159.211 379.223 159.009C379.536 158.805 379.939 158.703 380.433 158.703C380.876 158.703 381.264 158.794 381.597 158.975C381.929 159.154 382.188 159.427 382.372 159.794C382.557 160.157 382.649 160.617 382.649 161.174V165.333H381.643V161.242C381.643 160.728 381.51 160.328 381.243 160.041C380.976 159.751 380.609 159.606 380.143 159.606C379.822 159.606 379.536 159.676 379.283 159.815C379.033 159.954 378.835 160.157 378.69 160.424C378.545 160.691 378.473 161.015 378.473 161.396ZM386.958 165.47C386.413 165.47 385.931 165.332 385.514 165.056C385.096 164.778 384.77 164.386 384.534 163.88C384.298 163.372 384.18 162.771 384.18 162.078C384.18 161.39 384.298 160.794 384.534 160.288C384.77 159.782 385.098 159.392 385.518 159.116C385.939 158.84 386.424 158.703 386.975 158.703C387.402 158.703 387.738 158.774 387.985 158.916C388.235 159.055 388.426 159.214 388.556 159.393C388.69 159.569 388.794 159.714 388.868 159.828H388.953V156.606H389.958V165.333H388.987V164.328H388.868C388.794 164.447 388.689 164.598 388.552 164.779C388.416 164.958 388.221 165.119 387.968 165.261C387.716 165.4 387.379 165.47 386.958 165.47ZM387.095 164.566C387.498 164.566 387.839 164.461 388.118 164.251C388.396 164.038 388.608 163.744 388.752 163.369C388.897 162.991 388.97 162.555 388.97 162.061C388.97 161.572 388.899 161.144 388.757 160.778C388.615 160.409 388.404 160.122 388.126 159.917C387.848 159.71 387.504 159.606 387.095 159.606C386.669 159.606 386.314 159.715 386.029 159.934C385.748 160.15 385.537 160.444 385.395 160.816C385.255 161.186 385.186 161.6 385.186 162.061C385.186 162.527 385.257 162.95 385.399 163.33C385.544 163.708 385.757 164.009 386.038 164.234C386.322 164.455 386.674 164.566 387.095 164.566ZM394.599 165.47C394.008 165.47 393.49 165.329 393.044 165.048C392.6 164.767 392.254 164.373 392.004 163.867C391.757 163.362 391.633 162.771 391.633 162.095C391.633 161.413 391.757 160.818 392.004 160.309C392.254 159.801 392.6 159.406 393.044 159.125C393.49 158.843 394.008 158.703 394.599 158.703C395.19 158.703 395.707 158.843 396.15 159.125C396.596 159.406 396.943 159.801 397.19 160.309C397.44 160.818 397.565 161.413 397.565 162.095C397.565 162.771 397.44 163.362 397.19 163.867C396.943 164.373 396.596 164.767 396.15 165.048C395.707 165.329 395.19 165.47 394.599 165.47ZM394.599 164.566C395.048 164.566 395.417 164.451 395.707 164.221C395.997 163.991 396.211 163.688 396.35 163.313C396.49 162.938 396.559 162.532 396.559 162.095C396.559 161.657 396.49 161.25 396.35 160.872C396.211 160.494 395.997 160.188 395.707 159.955C395.417 159.723 395.048 159.606 394.599 159.606C394.15 159.606 393.781 159.723 393.491 159.955C393.201 160.188 392.987 160.494 392.848 160.872C392.708 161.25 392.639 161.657 392.639 162.095C392.639 162.532 392.708 162.938 392.848 163.313C392.987 163.688 393.201 163.991 393.491 164.221C393.781 164.451 394.15 164.566 394.599 164.566ZM400.36 165.333L398.366 158.788H399.423L400.838 163.799H400.906L402.304 158.788H403.377L404.758 163.782H404.826L406.241 158.788H407.298L405.304 165.333H404.315L402.883 160.305H402.781L401.349 165.333H400.36ZM413.264 160.254L412.36 160.509C412.304 160.359 412.22 160.213 412.109 160.071C412.001 159.926 411.853 159.806 411.666 159.713C411.478 159.619 411.238 159.572 410.946 159.572C410.545 159.572 410.211 159.664 409.944 159.849C409.68 160.031 409.548 160.262 409.548 160.544C409.548 160.794 409.639 160.991 409.821 161.136C410.002 161.281 410.287 161.402 410.673 161.498L411.645 161.737C412.23 161.879 412.666 162.096 412.953 162.389C413.24 162.678 413.383 163.052 413.383 163.509C413.383 163.884 413.275 164.22 413.059 164.515C412.846 164.811 412.548 165.044 412.164 165.214C411.781 165.384 411.335 165.47 410.826 165.47C410.159 165.47 409.606 165.325 409.169 165.035C408.731 164.745 408.454 164.322 408.338 163.765L409.292 163.527C409.383 163.879 409.555 164.143 409.808 164.319C410.064 164.495 410.397 164.583 410.809 164.583C411.278 164.583 411.65 164.484 411.926 164.285C412.204 164.083 412.343 163.842 412.343 163.561C412.343 163.333 412.264 163.143 412.105 162.99C411.946 162.833 411.701 162.717 411.372 162.64L410.281 162.384C409.681 162.242 409.241 162.022 408.96 161.724C408.681 161.423 408.542 161.046 408.542 160.595C408.542 160.225 408.646 159.899 408.853 159.615C409.064 159.33 409.349 159.107 409.71 158.946C410.074 158.784 410.485 158.703 410.946 158.703C411.593 158.703 412.102 158.845 412.471 159.129C412.843 159.413 413.108 159.788 413.264 160.254Z" fill="white" fill-opacity="0.92"/>
<path d="M436.421 210H307.579C303.393 210 300 212.95 300 216.588V231.412C300 235.05 303.393 238 307.579 238H436.421C440.607 238 444 235.05 444 231.412V216.588C444 212.95 440.607 210 436.421 210Z" fill="white" fill-opacity="0.1" stroke="white" stroke-opacity="0.18"/>
<path d="M320 230.833C324.418 230.833 328 227.849 328 224.167C328 220.485 324.418 217.5 320 217.5C315.582 217.5 312 220.485 312 224.167C312 227.849 315.582 230.833 320 230.833Z" fill="#22C55E"/>
<path d="M334.057 229.5V220.773H335.062V223.994H335.148C335.222 223.881 335.324 223.736 335.455 223.56C335.588 223.381 335.778 223.222 336.026 223.082C336.276 222.94 336.614 222.869 337.04 222.869C337.591 222.869 338.077 223.007 338.497 223.283C338.918 223.558 339.246 223.949 339.482 224.455C339.717 224.96 339.835 225.557 339.835 226.244C339.835 226.938 339.717 227.538 339.482 228.047C339.246 228.553 338.919 228.945 338.501 229.223C338.084 229.499 337.602 229.636 337.057 229.636C336.636 229.636 336.3 229.567 336.047 229.428C335.794 229.286 335.599 229.125 335.463 228.946C335.327 228.764 335.222 228.614 335.148 228.494H335.028V229.5H334.057ZM335.045 226.227C335.045 226.722 335.118 227.158 335.263 227.536C335.408 227.911 335.619 228.205 335.898 228.418C336.176 228.628 336.517 228.733 336.92 228.733C337.341 228.733 337.692 228.622 337.973 228.401C338.257 228.176 338.47 227.875 338.612 227.497C338.757 227.116 338.83 226.693 338.83 226.227C338.83 225.767 338.759 225.352 338.616 224.983C338.477 224.611 338.266 224.317 337.982 224.101C337.7 223.882 337.347 223.773 336.92 223.773C336.511 223.773 336.168 223.876 335.889 224.084C335.611 224.288 335.401 224.575 335.259 224.945C335.116 225.311 335.045 225.739 335.045 226.227ZM345.499 226.824V222.955H346.504V229.5H345.499V228.392H345.43C345.277 228.724 345.038 229.007 344.714 229.24C344.391 229.47 343.982 229.585 343.487 229.585C343.078 229.585 342.714 229.496 342.396 229.317C342.078 229.135 341.828 228.862 341.646 228.499C341.464 228.132 341.374 227.67 341.374 227.114V222.955H342.379V227.045C342.379 227.523 342.513 227.903 342.78 228.188C343.05 228.472 343.393 228.614 343.811 228.614C344.061 228.614 344.315 228.55 344.574 228.422C344.835 228.294 345.054 228.098 345.23 227.834C345.409 227.57 345.499 227.233 345.499 226.824ZM348.346 229.5V222.955H349.352V229.5H348.346ZM348.858 221.864C348.662 221.864 348.493 221.797 348.35 221.663C348.211 221.53 348.142 221.369 348.142 221.182C348.142 220.994 348.211 220.834 348.35 220.7C348.493 220.567 348.662 220.5 348.858 220.5C349.054 220.5 349.221 220.567 349.36 220.7C349.502 220.834 349.574 220.994 349.574 221.182C349.574 221.369 349.502 221.53 349.36 221.663C349.221 221.797 349.054 221.864 348.858 221.864ZM352.2 220.773V229.5H351.194V220.773H352.2ZM356.513 229.636C355.968 229.636 355.486 229.499 355.069 229.223C354.651 228.945 354.324 228.553 354.088 228.047C353.853 227.538 353.735 226.938 353.735 226.244C353.735 225.557 353.853 224.96 354.088 224.455C354.324 223.949 354.652 223.558 355.073 223.283C355.493 223.007 355.979 222.869 356.53 222.869C356.956 222.869 357.293 222.94 357.54 223.082C357.79 223.222 357.98 223.381 358.111 223.56C358.245 223.736 358.348 223.881 358.422 223.994H358.507V220.773H359.513V229.5H358.542V228.494H358.422C358.348 228.614 358.243 228.764 358.107 228.946C357.971 229.125 357.776 229.286 357.523 229.428C357.27 229.567 356.934 229.636 356.513 229.636ZM356.65 228.733C357.053 228.733 357.394 228.628 357.672 228.418C357.951 228.205 358.162 227.911 358.307 227.536C358.452 227.158 358.525 226.722 358.525 226.227C358.525 225.739 358.453 225.311 358.311 224.945C358.169 224.575 357.959 224.288 357.681 224.084C357.402 223.876 357.059 223.773 356.65 223.773C356.223 223.773 355.868 223.882 355.584 224.101C355.303 224.317 355.091 224.611 354.949 224.983C354.81 225.352 354.74 225.767 354.74 226.227C354.74 226.693 354.811 227.116 354.953 227.497C355.098 227.875 355.311 228.176 355.593 228.401C355.877 228.622 356.229 228.733 356.65 228.733ZM367.341 229.636C366.796 229.636 366.314 229.499 365.897 229.223C365.479 228.945 365.152 228.553 364.917 228.047C364.681 227.538 364.563 226.938 364.563 226.244C364.563 225.557 364.681 224.96 364.917 224.455C365.152 223.949 365.48 223.558 365.901 223.283C366.321 223.007 366.807 222.869 367.358 222.869C367.784 222.869 368.121 222.94 368.368 223.082C368.618 223.222 368.809 223.381 368.939 223.56C369.073 223.736 369.176 223.881 369.25 223.994H369.336V220.773H370.341V229.5H369.37V228.494H369.25C369.176 228.614 369.071 228.764 368.935 228.946C368.799 229.125 368.604 229.286 368.351 229.428C368.098 229.567 367.762 229.636 367.341 229.636ZM367.478 228.733C367.881 228.733 368.222 228.628 368.5 228.418C368.779 228.205 368.99 227.911 369.135 227.536C369.28 227.158 369.353 226.722 369.353 226.227C369.353 225.739 369.282 225.311 369.14 224.945C368.998 224.575 368.787 224.288 368.509 224.084C368.23 223.876 367.887 223.773 367.478 223.773C367.051 223.773 366.696 223.882 366.412 224.101C366.131 224.317 365.919 224.611 365.777 224.983C365.638 225.352 365.569 225.767 365.569 226.227C365.569 226.693 365.64 227.116 365.782 227.497C365.926 227.875 366.14 228.176 366.421 228.401C366.705 228.622 367.057 228.733 367.478 228.733ZM374.249 229.653C373.834 229.653 373.458 229.575 373.12 229.419C372.782 229.26 372.513 229.031 372.314 228.733C372.115 228.432 372.016 228.068 372.016 227.642C372.016 227.267 372.09 226.963 372.238 226.73C372.385 226.494 372.583 226.31 372.83 226.176C373.077 226.043 373.35 225.943 373.648 225.878C373.949 225.81 374.252 225.756 374.556 225.716C374.953 225.665 375.276 225.626 375.523 225.601C375.773 225.572 375.955 225.526 376.069 225.46C376.185 225.395 376.243 225.281 376.243 225.119V225.085C376.243 224.665 376.128 224.338 375.898 224.105C375.671 223.872 375.326 223.756 374.863 223.756C374.382 223.756 374.006 223.861 373.733 224.071C373.461 224.281 373.269 224.506 373.158 224.744L372.203 224.403C372.374 224.006 372.601 223.696 372.885 223.474C373.172 223.25 373.485 223.094 373.823 223.006C374.164 222.915 374.499 222.869 374.828 222.869C375.039 222.869 375.28 222.895 375.553 222.946C375.828 222.994 376.094 223.095 376.35 223.249C376.608 223.402 376.823 223.634 376.993 223.943C377.164 224.253 377.249 224.668 377.249 225.188V229.5H376.243V228.614H376.192C376.124 228.756 376.01 228.908 375.851 229.07C375.692 229.232 375.48 229.369 375.216 229.483C374.952 229.597 374.63 229.653 374.249 229.653ZM374.402 228.75C374.8 228.75 375.135 228.672 375.408 228.516C375.684 228.359 375.891 228.158 376.03 227.911C376.172 227.663 376.243 227.403 376.243 227.131V226.21C376.201 226.261 376.107 226.308 375.962 226.351C375.82 226.391 375.655 226.426 375.468 226.457C375.283 226.486 375.103 226.511 374.926 226.534C374.753 226.554 374.613 226.571 374.505 226.585C374.243 226.619 373.999 226.675 373.772 226.751C373.547 226.825 373.365 226.937 373.226 227.088C373.09 227.236 373.022 227.437 373.022 227.693C373.022 228.043 373.151 228.307 373.409 228.486C373.671 228.662 374.002 228.75 374.402 228.75ZM379.085 229.5V222.955H380.056V223.943H380.124C380.244 223.619 380.46 223.357 380.772 223.155C381.085 222.953 381.437 222.852 381.829 222.852C381.903 222.852 381.995 222.854 382.106 222.857C382.217 222.859 382.3 222.864 382.357 222.869V223.892C382.323 223.884 382.245 223.871 382.123 223.854C382.004 223.834 381.877 223.824 381.744 223.824C381.425 223.824 381.141 223.891 380.891 224.024C380.644 224.155 380.448 224.337 380.303 224.57C380.161 224.8 380.09 225.062 380.09 225.358V229.5H379.085ZM385.138 229.5L383.143 222.955H384.2L385.615 227.966H385.683L387.081 222.955H388.155L389.536 227.949H389.604L391.018 222.955H392.075L390.081 229.5H389.092L387.661 224.472H387.558L386.126 229.5H385.138ZM393.405 229.5V222.955H394.411V229.5H393.405ZM393.916 221.864C393.72 221.864 393.551 221.797 393.409 221.663C393.27 221.53 393.2 221.369 393.2 221.182C393.2 220.994 393.27 220.834 393.409 220.7C393.551 220.567 393.72 220.5 393.916 220.5C394.112 220.5 394.28 220.567 394.419 220.7C394.561 220.834 394.632 220.994 394.632 221.182C394.632 221.369 394.561 221.53 394.419 221.663C394.28 221.797 394.112 221.864 393.916 221.864ZM397.258 225.562V229.5H396.252V222.955H397.224V223.977H397.309C397.463 223.645 397.696 223.378 398.008 223.176C398.321 222.972 398.724 222.869 399.218 222.869C399.662 222.869 400.049 222.96 400.382 223.142C400.714 223.321 400.973 223.594 401.157 223.96C401.342 224.324 401.434 224.784 401.434 225.341V229.5H400.429V225.409C400.429 224.895 400.295 224.494 400.028 224.207C399.761 223.918 399.395 223.773 398.929 223.773C398.608 223.773 398.321 223.842 398.068 223.982C397.818 224.121 397.62 224.324 397.475 224.591C397.331 224.858 397.258 225.182 397.258 225.562Z" fill="white" fill-opacity="0.92"/>
<path d="M610.593 82H475.407C471.316 82 468 84.9497 468 88.5882V103.412C468 107.05 471.316 110 475.407 110H610.593C614.684 110 618 107.05 618 103.412V88.5882C618 84.9497 614.684 82 610.593 82Z" fill="white" fill-opacity="0.1" stroke="white" stroke-opacity="0.18"/>
<path d="M488 102.5C492.418 102.5 496 99.5152 496 95.8333C496 92.1514 492.418 89.1667 488 89.1667C483.582 89.1667 480 92.1514 480 95.8333C480 99.5152 483.582 102.5 488 102.5Z" fill="#22C55E"/>
<path d="M501.92 103.621V94.6212H502.892V95.661H503.011C503.085 95.5474 503.188 95.4025 503.318 95.2263C503.452 95.0474 503.642 94.8883 503.889 94.7491C504.139 94.607 504.477 94.536 504.903 94.536C505.455 94.536 505.94 94.6738 506.361 94.9493C506.781 95.2249 507.109 95.6155 507.345 96.1212C507.581 96.6269 507.699 97.2235 507.699 97.911C507.699 98.6042 507.581 99.205 507.345 99.7135C507.109 100.219 506.783 100.611 506.365 100.89C505.947 101.165 505.466 101.303 504.92 101.303C504.5 101.303 504.163 101.233 503.911 101.094C503.658 100.952 503.463 100.792 503.327 100.613C503.19 100.431 503.085 100.28 503.011 100.161H502.926V103.621H501.92ZM502.909 97.8939C502.909 98.3883 502.982 98.8243 503.126 99.2022C503.271 99.5772 503.483 99.8712 503.761 100.084C504.04 100.295 504.381 100.4 504.784 100.4C505.205 100.4 505.555 100.289 505.837 100.067C506.121 99.8428 506.334 99.5417 506.476 99.1638C506.621 98.7831 506.693 98.3599 506.693 97.8939C506.693 97.4337 506.622 97.0189 506.48 96.6496C506.341 96.2775 506.129 95.9834 505.845 95.7675C505.564 95.5488 505.21 95.4394 504.784 95.4394C504.375 95.4394 504.031 95.5431 503.753 95.7505C503.474 95.955 503.264 96.242 503.122 96.6113C502.98 96.9778 502.909 97.4053 502.909 97.8939ZM513.358 98.4905V94.6212H514.364V101.167H513.358V100.059H513.29C513.136 100.391 512.898 100.674 512.574 100.907C512.25 101.137 511.841 101.252 511.347 101.252C510.938 101.252 510.574 101.162 510.256 100.983C509.938 100.802 509.688 100.529 509.506 100.165C509.324 99.7988 509.233 99.3371 509.233 98.7803V94.6212H510.239V98.7121C510.239 99.1894 510.372 99.5701 510.639 99.8542C510.909 100.138 511.253 100.28 511.67 100.28C511.92 100.28 512.175 100.216 512.433 100.089C512.695 99.9607 512.913 99.7647 513.089 99.5005C513.268 99.2363 513.358 98.8996 513.358 98.4905ZM516.342 101.167V92.4394H517.348V95.661H517.433C517.507 95.5474 517.609 95.4025 517.74 95.2263C517.873 95.0474 518.064 94.8883 518.311 94.7491C518.561 94.607 518.899 94.536 519.325 94.536C519.876 94.536 520.362 94.6738 520.782 94.9493C521.203 95.2249 521.531 95.6155 521.767 96.1212C522.002 96.6269 522.12 97.2235 522.12 97.911C522.12 98.6042 522.002 99.205 521.767 99.7135C521.531 100.219 521.204 100.611 520.787 100.89C520.369 101.165 519.887 101.303 519.342 101.303C518.922 101.303 518.585 101.233 518.332 101.094C518.079 100.952 517.885 100.792 517.748 100.613C517.612 100.431 517.507 100.28 517.433 100.161H517.314V101.167H516.342ZM517.331 97.8939C517.331 98.3883 517.403 98.8243 517.548 99.2022C517.693 99.5772 517.904 99.8712 518.183 100.084C518.461 100.295 518.802 100.4 519.206 100.4C519.626 100.4 519.977 100.289 520.258 100.067C520.542 99.8428 520.755 99.5417 520.897 99.1638C521.042 98.7831 521.115 98.3599 521.115 97.8939C521.115 97.4337 521.044 97.0189 520.902 96.6496C520.762 96.2775 520.551 95.9834 520.267 95.7675C519.985 95.5488 519.632 95.4394 519.206 95.4394C518.797 95.4394 518.453 95.5431 518.174 95.7505C517.896 95.955 517.686 96.242 517.544 96.6113C517.402 96.9778 517.331 97.4053 517.331 97.8939ZM524.664 92.4394V101.167H523.659V92.4394H524.664ZM526.506 101.167V94.6212H527.512V101.167H526.506ZM527.018 93.5303C526.822 93.5303 526.653 93.4635 526.511 93.33C526.371 93.1965 526.302 93.036 526.302 92.8485C526.302 92.661 526.371 92.5005 526.511 92.367C526.653 92.2334 526.822 92.1667 527.018 92.1667C527.214 92.1667 527.381 92.2334 527.521 92.367C527.663 92.5005 527.734 92.661 527.734 92.8485C527.734 93.036 527.663 93.1965 527.521 93.33C527.381 93.4635 527.214 93.5303 527.018 93.5303ZM533.99 96.0871L533.087 96.3428C533.03 96.1922 532.946 96.0459 532.836 95.9039C532.728 95.759 532.58 95.6397 532.392 95.5459C532.205 95.4522 531.965 95.4053 531.672 95.4053C531.272 95.4053 530.938 95.4976 530.671 95.6823C530.407 95.8641 530.275 96.0956 530.275 96.3769C530.275 96.6269 530.365 96.8243 530.547 96.9692C530.729 97.1141 531.013 97.2349 531.4 97.3314L532.371 97.5701C532.956 97.7121 533.392 97.9295 533.679 98.2221C533.966 98.5118 534.11 98.8854 534.11 99.3428C534.11 99.7178 534.002 100.053 533.786 100.348C533.573 100.644 533.275 100.877 532.891 101.047C532.507 101.218 532.061 101.303 531.553 101.303C530.885 101.303 530.333 101.158 529.895 100.868C529.458 100.579 529.181 100.155 529.064 99.5985L530.019 99.3599C530.11 99.7121 530.282 99.9763 530.534 100.152C530.79 100.329 531.124 100.417 531.536 100.417C532.005 100.417 532.377 100.317 532.652 100.118C532.931 99.9167 533.07 99.6752 533.07 99.3939C533.07 99.1667 532.99 98.9763 532.831 98.8229C532.672 98.6667 532.428 98.5502 532.098 98.4735L531.007 98.2178C530.408 98.0758 529.968 97.8556 529.686 97.5573C529.408 97.2562 529.269 96.8797 529.269 96.428C529.269 96.0587 529.373 95.732 529.58 95.4479C529.79 95.1638 530.076 94.9408 530.436 94.7789C530.8 94.617 531.212 94.536 531.672 94.536C532.32 94.536 532.828 94.678 533.198 94.9621C533.57 95.2462 533.834 95.6212 533.99 96.0871ZM536.629 97.2292V101.167H535.624V92.4394H536.629V95.6439H536.714C536.868 95.3059 537.098 95.0374 537.405 94.8385C537.714 94.6368 538.126 94.536 538.641 94.536C539.087 94.536 539.477 94.6255 539.812 94.8045C540.148 94.9806 540.408 95.2519 540.592 95.6184C540.78 95.982 540.874 96.4451 540.874 97.0076V101.167H539.868V97.0758C539.868 96.5559 539.733 96.1539 539.463 95.8698C539.196 95.5829 538.825 95.4394 538.351 95.4394C538.021 95.4394 537.726 95.509 537.464 95.6482C537.206 95.7874 537.001 95.9905 536.851 96.2576C536.703 96.5246 536.629 96.8485 536.629 97.2292ZM547.094 92.4394V101.167H546.088V92.4394H547.094ZM548.936 101.167V94.6212H549.942V101.167H548.936ZM549.447 93.5303C549.251 93.5303 549.082 93.4635 548.94 93.33C548.801 93.1965 548.732 93.036 548.732 92.8485C548.732 92.661 548.801 92.5005 548.94 92.367C549.082 92.2334 549.251 92.1667 549.447 92.1667C549.643 92.1667 549.811 92.2334 549.95 92.367C550.092 92.5005 550.163 92.661 550.163 92.8485C550.163 93.036 550.092 93.1965 549.95 93.33C549.811 93.4635 549.643 93.5303 549.447 93.5303ZM552.789 97.2292V101.167H551.784V94.6212H552.755V95.6439H552.841C552.994 95.3116 553.227 95.0445 553.539 94.8428C553.852 94.6383 554.255 94.536 554.75 94.536C555.193 94.536 555.581 94.6269 555.913 94.8087C556.245 94.9877 556.504 95.2604 556.689 95.6269C556.873 95.9905 556.966 96.4508 556.966 97.0076V101.167H555.96V97.0758C555.96 96.5616 555.826 96.161 555.559 95.8741C555.292 95.5843 554.926 95.4394 554.46 95.4394C554.139 95.4394 553.852 95.509 553.599 95.6482C553.349 95.7874 553.152 95.9905 553.007 96.2576C552.862 96.5246 552.789 96.8485 552.789 97.2292ZM562.928 98.4905V94.6212H563.934V101.167H562.928V100.059H562.86C562.707 100.391 562.468 100.674 562.144 100.907C561.82 101.137 561.411 101.252 560.917 101.252C560.508 101.252 560.144 101.162 559.826 100.983C559.508 100.802 559.258 100.529 559.076 100.165C558.894 99.7988 558.803 99.3371 558.803 98.7803V94.6212H559.809V98.7121C559.809 99.1894 559.942 99.5701 560.21 99.8542C560.479 100.138 560.823 100.28 561.241 100.28C561.491 100.28 561.745 100.216 562.004 100.089C562.265 99.9607 562.484 99.7647 562.66 99.5005C562.839 99.2363 562.928 98.8996 562.928 98.4905ZM566.526 94.6212L568.094 97.2974L569.662 94.6212H570.821L568.708 97.8939L570.821 101.167H569.662L568.094 98.6269L566.526 101.167H565.367L567.446 97.8939L565.367 94.6212H566.526Z" fill="white" fill-opacity="0.92"/>
<path d="M611.258 146H474.742C471.018 146 468 148.95 468 152.588V167.412C468 171.05 471.018 174 474.742 174H611.258C614.982 174 618 171.05 618 167.412V152.588C618 148.95 614.982 146 611.258 146Z" fill="white" fill-opacity="0.1" stroke="white" stroke-opacity="0.18"/>
<path d="M488 166.667C492.418 166.667 496 163.682 496 160C496 156.318 492.418 153.333 488 153.333C483.582 153.333 480 156.318 480 160C480 163.682 483.582 166.667 488 166.667Z" fill="#22C55E"/>
<path d="M501.92 167.788V158.788H502.892V159.828H503.011C503.085 159.714 503.188 159.569 503.318 159.393C503.452 159.214 503.642 159.055 503.889 158.916C504.139 158.774 504.477 158.703 504.903 158.703C505.455 158.703 505.94 158.84 506.361 159.116C506.781 159.392 507.109 159.782 507.345 160.288C507.581 160.794 507.699 161.39 507.699 162.078C507.699 162.771 507.581 163.372 507.345 163.88C507.109 164.386 506.783 164.778 506.365 165.056C505.947 165.332 505.466 165.47 504.92 165.47C504.5 165.47 504.163 165.4 503.911 165.261C503.658 165.119 503.463 164.958 503.327 164.779C503.19 164.598 503.085 164.447 503.011 164.328H502.926V167.788H501.92ZM502.909 162.061C502.909 162.555 502.982 162.991 503.126 163.369C503.271 163.744 503.483 164.038 503.761 164.251C504.04 164.461 504.381 164.566 504.784 164.566C505.205 164.566 505.555 164.455 505.837 164.234C506.121 164.009 506.334 163.708 506.476 163.33C506.621 162.95 506.693 162.527 506.693 162.061C506.693 161.6 506.622 161.186 506.48 160.816C506.341 160.444 506.129 160.15 505.845 159.934C505.564 159.715 505.21 159.606 504.784 159.606C504.375 159.606 504.031 159.71 503.753 159.917C503.474 160.122 503.264 160.409 503.122 160.778C502.98 161.144 502.909 161.572 502.909 162.061ZM513.358 162.657V158.788H514.364V165.333H513.358V164.225H513.29C513.136 164.558 512.898 164.84 512.574 165.073C512.25 165.303 511.841 165.419 511.347 165.419C510.938 165.419 510.574 165.329 510.256 165.15C509.938 164.968 509.688 164.696 509.506 164.332C509.324 163.965 509.233 163.504 509.233 162.947V158.788H510.239V162.879C510.239 163.356 510.372 163.737 510.639 164.021C510.909 164.305 511.253 164.447 511.67 164.447C511.92 164.447 512.175 164.383 512.433 164.255C512.695 164.127 512.913 163.931 513.089 163.667C513.268 163.403 513.358 163.066 513.358 162.657ZM516.342 165.333V156.606H517.348V159.828H517.433C517.507 159.714 517.609 159.569 517.74 159.393C517.873 159.214 518.064 159.055 518.311 158.916C518.561 158.774 518.899 158.703 519.325 158.703C519.876 158.703 520.362 158.84 520.782 159.116C521.203 159.392 521.531 159.782 521.767 160.288C522.002 160.794 522.12 161.39 522.12 162.078C522.12 162.771 522.002 163.372 521.767 163.88C521.531 164.386 521.204 164.778 520.787 165.056C520.369 165.332 519.887 165.47 519.342 165.47C518.922 165.47 518.585 165.4 518.332 165.261C518.079 165.119 517.885 164.958 517.748 164.779C517.612 164.598 517.507 164.447 517.433 164.328H517.314V165.333H516.342ZM517.331 162.061C517.331 162.555 517.403 162.991 517.548 163.369C517.693 163.744 517.904 164.038 518.183 164.251C518.461 164.461 518.802 164.566 519.206 164.566C519.626 164.566 519.977 164.455 520.258 164.234C520.542 164.009 520.755 163.708 520.897 163.33C521.042 162.95 521.115 162.527 521.115 162.061C521.115 161.6 521.044 161.186 520.902 160.816C520.762 160.444 520.551 160.15 520.267 159.934C519.985 159.715 519.632 159.606 519.206 159.606C518.797 159.606 518.453 159.71 518.174 159.917C517.896 160.122 517.686 160.409 517.544 160.778C517.402 161.144 517.331 161.572 517.331 162.061ZM524.664 156.606V165.333H523.659V156.606H524.664ZM526.506 165.333V158.788H527.512V165.333H526.506ZM527.018 157.697C526.822 157.697 526.653 157.63 526.511 157.497C526.371 157.363 526.302 157.203 526.302 157.015C526.302 156.828 526.371 156.667 526.511 156.534C526.653 156.4 526.822 156.333 527.018 156.333C527.214 156.333 527.381 156.4 527.521 156.534C527.663 156.667 527.734 156.828 527.734 157.015C527.734 157.203 527.663 157.363 527.521 157.497C527.381 157.63 527.214 157.697 527.018 157.697ZM533.99 160.254L533.087 160.509C533.03 160.359 532.946 160.213 532.836 160.071C532.728 159.926 532.58 159.806 532.392 159.713C532.205 159.619 531.965 159.572 531.672 159.572C531.272 159.572 530.938 159.664 530.671 159.849C530.407 160.031 530.275 160.262 530.275 160.544C530.275 160.794 530.365 160.991 530.547 161.136C530.729 161.281 531.013 161.402 531.4 161.498L532.371 161.737C532.956 161.879 533.392 162.096 533.679 162.389C533.966 162.678 534.11 163.052 534.11 163.509C534.11 163.884 534.002 164.22 533.786 164.515C533.573 164.811 533.275 165.044 532.891 165.214C532.507 165.384 532.061 165.47 531.553 165.47C530.885 165.47 530.333 165.325 529.895 165.035C529.458 164.745 529.181 164.322 529.064 163.765L530.019 163.527C530.11 163.879 530.282 164.143 530.534 164.319C530.79 164.495 531.124 164.583 531.536 164.583C532.005 164.583 532.377 164.484 532.652 164.285C532.931 164.083 533.07 163.842 533.07 163.561C533.07 163.333 532.99 163.143 532.831 162.99C532.672 162.833 532.428 162.717 532.098 162.64L531.007 162.384C530.408 162.242 529.968 162.022 529.686 161.724C529.408 161.423 529.269 161.046 529.269 160.595C529.269 160.225 529.373 159.899 529.58 159.615C529.79 159.33 530.076 159.107 530.436 158.946C530.8 158.784 531.212 158.703 531.672 158.703C532.32 158.703 532.828 158.845 533.198 159.129C533.57 159.413 533.834 159.788 533.99 160.254ZM536.629 161.396V165.333H535.624V156.606H536.629V159.811H536.714C536.868 159.473 537.098 159.204 537.405 159.005C537.714 158.803 538.126 158.703 538.641 158.703C539.087 158.703 539.477 158.792 539.812 158.971C540.148 159.147 540.408 159.419 540.592 159.785C540.78 160.149 540.874 160.612 540.874 161.174V165.333H539.868V161.242C539.868 160.723 539.733 160.321 539.463 160.036C539.196 159.75 538.825 159.606 538.351 159.606C538.021 159.606 537.726 159.676 537.464 159.815C537.206 159.954 537.001 160.157 536.851 160.424C536.703 160.691 536.629 161.015 536.629 161.396ZM547.571 165.333L545.577 158.788H546.634L548.049 163.799H548.117L549.515 158.788H550.588L551.969 163.782H552.037L553.452 158.788H554.509L552.515 165.333H551.526L550.094 160.305H549.992L548.56 165.333H547.571ZM555.838 165.333V158.788H556.844V165.333H555.838ZM556.35 157.697C556.154 157.697 555.985 157.63 555.843 157.497C555.703 157.363 555.634 157.203 555.634 157.015C555.634 156.828 555.703 156.667 555.843 156.534C555.985 156.4 556.154 156.333 556.35 156.333C556.546 156.333 556.713 156.4 556.853 156.534C556.995 156.667 557.066 156.828 557.066 157.015C557.066 157.203 556.995 157.363 556.853 157.497C556.713 157.63 556.546 157.697 556.35 157.697ZM559.692 161.396V165.333H558.686V158.788H559.658V159.811H559.743C559.896 159.478 560.129 159.211 560.442 159.009C560.754 158.805 561.158 158.703 561.652 158.703C562.095 158.703 562.483 158.794 562.815 158.975C563.148 159.154 563.406 159.427 563.591 159.794C563.776 160.157 563.868 160.617 563.868 161.174V165.333H562.862V161.242C562.862 160.728 562.729 160.328 562.462 160.041C562.195 159.751 561.828 159.606 561.362 159.606C561.041 159.606 560.754 159.676 560.501 159.815C560.251 159.954 560.054 160.157 559.909 160.424C559.764 160.691 559.692 161.015 559.692 161.396ZM568.177 165.47C567.632 165.47 567.15 165.332 566.733 165.056C566.315 164.778 565.988 164.386 565.752 163.88C565.517 163.372 565.399 162.771 565.399 162.078C565.399 161.39 565.517 160.794 565.752 160.288C565.988 159.782 566.316 159.392 566.737 159.116C567.157 158.84 567.643 158.703 568.194 158.703C568.62 158.703 568.957 158.774 569.204 158.916C569.454 159.055 569.645 159.214 569.775 159.393C569.909 159.569 570.012 159.714 570.086 159.828H570.172V156.606H571.177V165.333H570.206V164.328H570.086C570.012 164.447 569.907 164.598 569.771 164.779C569.635 164.958 569.44 165.119 569.187 165.261C568.934 165.4 568.598 165.47 568.177 165.47ZM568.314 164.566C568.717 164.566 569.058 164.461 569.336 164.251C569.615 164.038 569.826 163.744 569.971 163.369C570.116 162.991 570.189 162.555 570.189 162.061C570.189 161.572 570.118 161.144 569.975 160.778C569.833 160.409 569.623 160.122 569.345 159.917C569.066 159.71 568.723 159.606 568.314 159.606C567.887 159.606 567.532 159.715 567.248 159.934C566.967 160.15 566.755 160.444 566.613 160.816C566.474 161.186 566.404 161.6 566.404 162.061C566.404 162.527 566.475 162.95 566.618 163.33C566.762 163.708 566.975 164.009 567.257 164.234C567.541 164.455 567.893 164.566 568.314 164.566ZM575.818 165.47C575.227 165.47 574.708 165.329 574.262 165.048C573.819 164.767 573.473 164.373 573.223 163.867C572.975 163.362 572.852 162.771 572.852 162.095C572.852 161.413 572.975 160.818 573.223 160.309C573.473 159.801 573.819 159.406 574.262 159.125C574.708 158.843 575.227 158.703 575.818 158.703C576.409 158.703 576.926 158.843 577.369 159.125C577.815 159.406 578.162 159.801 578.409 160.309C578.659 160.818 578.784 161.413 578.784 162.095C578.784 162.771 578.659 163.362 578.409 163.867C578.162 164.373 577.815 164.767 577.369 165.048C576.926 165.329 576.409 165.47 575.818 165.47ZM575.818 164.566C576.267 164.566 576.636 164.451 576.926 164.221C577.216 163.991 577.43 163.688 577.569 163.313C577.708 162.938 577.778 162.532 577.778 162.095C577.778 161.657 577.708 161.25 577.569 160.872C577.43 160.494 577.216 160.188 576.926 159.955C576.636 159.723 576.267 159.606 575.818 159.606C575.369 159.606 575 159.723 574.71 159.955C574.42 160.188 574.206 160.494 574.066 160.872C573.927 161.25 573.858 161.657 573.858 162.095C573.858 162.532 573.927 162.938 574.066 163.313C574.206 163.688 574.42 163.991 574.71 164.221C575 164.451 575.369 164.566 575.818 164.566ZM581.579 165.333L579.585 158.788H580.642L582.056 163.799H582.125L583.522 158.788H584.596L585.977 163.782H586.045L587.46 158.788H588.517L586.522 165.333H585.534L584.102 160.305H584L582.568 165.333H581.579ZM594.483 160.254L593.579 160.509C593.522 160.359 593.439 160.213 593.328 160.071C593.22 159.926 593.072 159.806 592.885 159.713C592.697 159.619 592.457 159.572 592.164 159.572C591.764 159.572 591.43 159.664 591.163 159.849C590.899 160.031 590.767 160.262 590.767 160.544C590.767 160.794 590.858 160.991 591.039 161.136C591.221 161.281 591.505 161.402 591.892 161.498L592.863 161.737C593.449 161.879 593.885 162.096 594.172 162.389C594.458 162.678 594.602 163.052 594.602 163.509C594.602 163.884 594.494 164.22 594.278 164.515C594.065 164.811 593.767 165.044 593.383 165.214C593 165.384 592.554 165.47 592.045 165.47C591.377 165.47 590.825 165.325 590.387 165.035C589.95 164.745 589.673 164.322 589.556 163.765L590.511 163.527C590.602 163.879 590.774 164.143 591.027 164.319C591.282 164.495 591.616 164.583 592.028 164.583C592.497 164.583 592.869 164.484 593.145 164.285C593.423 164.083 593.562 163.842 593.562 163.561C593.562 163.333 593.483 163.143 593.324 162.99C593.164 162.833 592.92 162.717 592.591 162.64L591.5 162.384C590.9 162.242 590.46 162.022 590.179 161.724C589.9 161.423 589.761 161.046 589.761 160.595C589.761 160.225 589.865 159.899 590.072 159.615C590.282 159.33 590.568 159.107 590.929 158.946C591.292 158.784 591.704 158.703 592.164 158.703C592.812 158.703 593.321 158.845 593.69 159.129C594.062 159.413 594.326 159.788 594.483 160.254Z" fill="white" fill-opacity="0.92"/>
<path d="M610.941 210H475.059C471.16 210 468 212.95 468 216.588V231.412C468 235.05 471.16 238 475.059 238H610.941C614.84 238 618 235.05 618 231.412V216.588C618 212.95 614.84 210 610.941 210Z" fill="white" fill-opacity="0.1" stroke="white" stroke-opacity="0.18"/>
<path d="M488 230.833C492.418 230.833 496 227.849 496 224.167C496 220.485 492.418 217.5 488 217.5C483.582 217.5 480 220.485 480 224.167C480 227.849 483.582 230.833 488 230.833Z" fill="#22C55E"/>
<path d="M501.92 231.955V222.955H502.892V223.994H503.011C503.085 223.881 503.188 223.736 503.318 223.56C503.452 223.381 503.642 223.222 503.889 223.082C504.139 222.94 504.477 222.869 504.903 222.869C505.455 222.869 505.94 223.007 506.361 223.283C506.781 223.558 507.109 223.949 507.345 224.455C507.581 224.96 507.699 225.557 507.699 226.244C507.699 226.938 507.581 227.538 507.345 228.047C507.109 228.553 506.783 228.945 506.365 229.223C505.947 229.499 505.466 229.636 504.92 229.636C504.5 229.636 504.163 229.567 503.911 229.428C503.658 229.286 503.463 229.125 503.327 228.946C503.19 228.764 503.085 228.614 503.011 228.494H502.926V231.955H501.92ZM502.909 226.227C502.909 226.722 502.982 227.158 503.126 227.536C503.271 227.911 503.483 228.205 503.761 228.418C504.04 228.628 504.381 228.733 504.784 228.733C505.205 228.733 505.555 228.622 505.837 228.401C506.121 228.176 506.334 227.875 506.476 227.497C506.621 227.116 506.693 226.693 506.693 226.227C506.693 225.767 506.622 225.352 506.48 224.983C506.341 224.611 506.129 224.317 505.845 224.101C505.564 223.882 505.21 223.773 504.784 223.773C504.375 223.773 504.031 223.876 503.753 224.084C503.474 224.288 503.264 224.575 503.122 224.945C502.98 225.311 502.909 225.739 502.909 226.227ZM513.358 226.824V222.955H514.364V229.5H513.358V228.392H513.29C513.136 228.724 512.898 229.007 512.574 229.24C512.25 229.47 511.841 229.585 511.347 229.585C510.938 229.585 510.574 229.496 510.256 229.317C509.938 229.135 509.688 228.862 509.506 228.499C509.324 228.132 509.233 227.67 509.233 227.114V222.955H510.239V227.045C510.239 227.523 510.372 227.903 510.639 228.188C510.909 228.472 511.253 228.614 511.67 228.614C511.92 228.614 512.175 228.55 512.433 228.422C512.695 228.294 512.913 228.098 513.089 227.834C513.268 227.57 513.358 227.233 513.358 226.824ZM516.342 229.5V220.773H517.348V223.994H517.433C517.507 223.881 517.609 223.736 517.74 223.56C517.873 223.381 518.064 223.222 518.311 223.082C518.561 222.94 518.899 222.869 519.325 222.869C519.876 222.869 520.362 223.007 520.782 223.283C521.203 223.558 521.531 223.949 521.767 224.455C522.002 224.96 522.12 225.557 522.12 226.244C522.12 226.938 522.002 227.538 521.767 228.047C521.531 228.553 521.204 228.945 520.787 229.223C520.369 229.499 519.887 229.636 519.342 229.636C518.922 229.636 518.585 229.567 518.332 229.428C518.079 229.286 517.885 229.125 517.748 228.946C517.612 228.764 517.507 228.614 517.433 228.494H517.314V229.5H516.342ZM517.331 226.227C517.331 226.722 517.403 227.158 517.548 227.536C517.693 227.911 517.904 228.205 518.183 228.418C518.461 228.628 518.802 228.733 519.206 228.733C519.626 228.733 519.977 228.622 520.258 228.401C520.542 228.176 520.755 227.875 520.897 227.497C521.042 227.116 521.115 226.693 521.115 226.227C521.115 225.767 521.044 225.352 520.902 224.983C520.762 224.611 520.551 224.317 520.267 224.101C519.985 223.882 519.632 223.773 519.206 223.773C518.797 223.773 518.453 223.876 518.174 224.084C517.896 224.288 517.686 224.575 517.544 224.945C517.402 225.311 517.331 225.739 517.331 226.227ZM524.664 220.773V229.5H523.659V220.773H524.664ZM526.506 229.5V222.955H527.512V229.5H526.506ZM527.018 221.864C526.822 221.864 526.653 221.797 526.511 221.663C526.371 221.53 526.302 221.369 526.302 221.182C526.302 220.994 526.371 220.834 526.511 220.7C526.653 220.567 526.822 220.5 527.018 220.5C527.214 220.5 527.381 220.567 527.521 220.7C527.663 220.834 527.734 220.994 527.734 221.182C527.734 221.369 527.663 221.53 527.521 221.663C527.381 221.797 527.214 221.864 527.018 221.864ZM533.99 224.42L533.087 224.676C533.03 224.526 532.946 224.379 532.836 224.237C532.728 224.092 532.58 223.973 532.392 223.879C532.205 223.786 531.965 223.739 531.672 223.739C531.272 223.739 530.938 223.831 530.671 224.016C530.407 224.197 530.275 224.429 530.275 224.71C530.275 224.96 530.365 225.158 530.547 225.303C530.729 225.447 531.013 225.568 531.4 225.665L532.371 225.903C532.956 226.045 533.392 226.263 533.679 226.555C533.966 226.845 534.11 227.219 534.11 227.676C534.11 228.051 534.002 228.386 533.786 228.682C533.573 228.977 533.275 229.21 532.891 229.381C532.507 229.551 532.061 229.636 531.553 229.636C530.885 229.636 530.333 229.491 529.895 229.202C529.458 228.912 529.181 228.489 529.064 227.932L530.019 227.693C530.11 228.045 530.282 228.31 530.534 228.486C530.79 228.662 531.124 228.75 531.536 228.75C532.005 228.75 532.377 228.651 532.652 228.452C532.931 228.25 533.07 228.009 533.07 227.727C533.07 227.5 532.99 227.31 532.831 227.156C532.672 227 532.428 226.884 532.098 226.807L531.007 226.551C530.408 226.409 529.968 226.189 529.686 225.891C529.408 225.589 529.269 225.213 529.269 224.761C529.269 224.392 529.373 224.065 529.58 223.781C529.79 223.497 530.076 223.274 530.436 223.112C530.8 222.95 531.212 222.869 531.672 222.869C532.32 222.869 532.828 223.011 533.198 223.295C533.57 223.58 533.834 223.955 533.99 224.42ZM536.629 225.562V229.5H535.624V220.773H536.629V223.977H536.714C536.868 223.639 537.098 223.371 537.405 223.172C537.714 222.97 538.126 222.869 538.641 222.869C539.087 222.869 539.477 222.959 539.812 223.138C540.148 223.314 540.408 223.585 540.592 223.952C540.78 224.315 540.874 224.778 540.874 225.341V229.5H539.868V225.409C539.868 224.889 539.733 224.487 539.463 224.203C539.196 223.916 538.825 223.773 538.351 223.773C538.021 223.773 537.726 223.842 537.464 223.982C537.206 224.121 537.001 224.324 536.851 224.591C536.703 224.858 536.629 225.182 536.629 225.562ZM548.56 229.636C548.015 229.636 547.533 229.499 547.115 229.223C546.698 228.945 546.371 228.553 546.135 228.047C545.9 227.538 545.782 226.938 545.782 226.244C545.782 225.557 545.9 224.96 546.135 224.455C546.371 223.949 546.699 223.558 547.12 223.283C547.54 223.007 548.026 222.869 548.577 222.869C549.003 222.869 549.34 222.94 549.587 223.082C549.837 223.222 550.027 223.381 550.158 223.56C550.292 223.736 550.395 223.881 550.469 223.994H550.554V220.773H551.56V229.5H550.588V228.494H550.469C550.395 228.614 550.29 228.764 550.154 228.946C550.017 229.125 549.823 229.286 549.57 229.428C549.317 229.567 548.98 229.636 548.56 229.636ZM548.696 228.733C549.1 228.733 549.441 228.628 549.719 228.418C549.998 228.205 550.209 227.911 550.354 227.536C550.499 227.158 550.571 226.722 550.571 226.227C550.571 225.739 550.5 225.311 550.358 224.945C550.216 224.575 550.006 224.288 549.728 224.084C549.449 223.876 549.105 223.773 548.696 223.773C548.27 223.773 547.915 223.882 547.631 224.101C547.35 224.317 547.138 224.611 546.996 224.983C546.857 225.352 546.787 225.767 546.787 226.227C546.787 226.693 546.858 227.116 547 227.497C547.145 227.875 547.358 228.176 547.64 228.401C547.924 228.622 548.276 228.733 548.696 228.733ZM555.468 229.653C555.053 229.653 554.676 229.575 554.338 229.419C554 229.26 553.732 229.031 553.533 228.733C553.334 228.432 553.235 228.068 553.235 227.642C553.235 227.267 553.309 226.963 553.456 226.73C553.604 226.494 553.801 226.31 554.049 226.176C554.296 226.043 554.569 225.943 554.867 225.878C555.168 225.81 555.471 225.756 555.775 225.716C556.172 225.665 556.495 225.626 556.742 225.601C556.992 225.572 557.174 225.526 557.287 225.46C557.404 225.395 557.462 225.281 557.462 225.119V225.085C557.462 224.665 557.347 224.338 557.117 224.105C556.89 223.872 556.544 223.756 556.081 223.756C555.601 223.756 555.225 223.861 554.952 224.071C554.679 224.281 554.488 224.506 554.377 224.744L553.422 224.403C553.593 224.006 553.82 223.696 554.104 223.474C554.391 223.25 554.703 223.094 555.042 223.006C555.382 222.915 555.718 222.869 556.047 222.869C556.257 222.869 556.499 222.895 556.772 222.946C557.047 222.994 557.313 223.095 557.569 223.249C557.827 223.402 558.042 223.634 558.212 223.943C558.382 224.253 558.468 224.668 558.468 225.188V229.5H557.462V228.614H557.411C557.343 228.756 557.229 228.908 557.07 229.07C556.911 229.232 556.699 229.369 556.435 229.483C556.171 229.597 555.848 229.653 555.468 229.653ZM555.621 228.75C556.019 228.75 556.354 228.672 556.627 228.516C556.902 228.359 557.11 228.158 557.249 227.911C557.391 227.663 557.462 227.403 557.462 227.131V226.21C557.419 226.261 557.326 226.308 557.181 226.351C557.039 226.391 556.874 226.426 556.686 226.457C556.502 226.486 556.321 226.511 556.145 226.534C555.972 226.554 555.831 226.571 555.723 226.585C555.462 226.619 555.218 226.675 554.99 226.751C554.766 226.825 554.584 226.937 554.445 227.088C554.309 227.236 554.24 227.437 554.24 227.693C554.24 228.043 554.37 228.307 554.628 228.486C554.89 228.662 555.221 228.75 555.621 228.75ZM560.303 229.5V222.955H561.275V223.943H561.343C561.462 223.619 561.678 223.357 561.991 223.155C562.303 222.953 562.656 222.852 563.048 222.852C563.121 222.852 563.214 222.854 563.325 222.857C563.435 222.859 563.519 222.864 563.576 222.869V223.892C563.542 223.884 563.464 223.871 563.342 223.854C563.222 223.834 563.096 223.824 562.962 223.824C562.644 223.824 562.36 223.891 562.11 224.024C561.863 224.155 561.667 224.337 561.522 224.57C561.38 224.8 561.309 225.062 561.309 225.358V229.5H560.303ZM566.357 229.5L564.362 222.955H565.419L566.834 227.966H566.902L568.3 222.955H569.374L570.754 227.949H570.822L572.237 222.955H573.294L571.3 229.5H570.311L568.879 224.472H568.777L567.345 229.5H566.357ZM574.624 229.5V222.955H575.629V229.5H574.624ZM575.135 221.864C574.939 221.864 574.77 221.797 574.628 221.663C574.489 221.53 574.419 221.369 574.419 221.182C574.419 220.994 574.489 220.834 574.628 220.7C574.77 220.567 574.939 220.5 575.135 220.5C575.331 220.5 575.499 220.567 575.638 220.7C575.78 220.834 575.851 220.994 575.851 221.182C575.851 221.369 575.78 221.53 575.638 221.663C575.499 221.797 575.331 221.864 575.135 221.864ZM578.477 225.562V229.5H577.471V222.955H578.443V223.977H578.528C578.681 223.645 578.914 223.378 579.227 223.176C579.539 222.972 579.943 222.869 580.437 222.869C580.88 222.869 581.268 222.96 581.6 223.142C581.933 223.321 582.191 223.594 582.376 223.96C582.561 224.324 582.653 224.784 582.653 225.341V229.5H581.647V225.409C581.647 224.895 581.514 224.494 581.247 224.207C580.98 223.918 580.613 223.773 580.147 223.773C579.826 223.773 579.539 223.842 579.287 223.982C579.037 224.121 578.839 224.324 578.694 224.591C578.549 224.858 578.477 225.182 578.477 225.562Z" fill="white" fill-opacity="0.92"/>
</g>
<defs>
<linearGradient id="paint0_linear_13_3" x1="0" y1="0" x2="191.162" y2="472.692" gradientUnits="userSpaceOnUse">
<stop stop-color="#1E3A5F"/>
<stop offset="0.5" stop-color="#0F4C75"/>
<stop offset="1" stop-color="#0D6E72"/>
</linearGradient>
<clipPath id="clip0_13_3">
<rect width="680" height="275" fill="white"/>
</clipPath>
</defs>
</svg>
