<svg fill="none" height="32" viewBox="0 0 244 32" width="244" xmlns="http://www.w3.org/2000/svg"><title>Allianz direct</title><g clip-path="url(#clip0_3279_3508)"><path d="M202.876 17.0158L203.63 13.0419H191.021L190.24 17.0158H202.876Z" fill="#49CAED"></path><path d="M203.501 24.2791L204.081 21.347H189.361L188.581 25.3209H202.251C202.857 25.3209 203.384 24.8856 203.501 24.2828V24.2791Z" fill="#49CAED"></path><path d="M205.74 5.02326H192.574L191.794 8.99722H206.51L206.987 6.57117C207.146 5.76745 206.544 5.01954 205.737 5.01954L205.74 5.02326Z" fill="#49CAED"></path><path d="M142.505 4.92279H147.916C151.144 4.92279 153.584 5.65582 155.232 7.12186C156.884 8.59163 157.713 10.7274 157.713 13.5442C157.713 15.8065 157.21 17.827 156.209 19.6167C155.209 21.3953 153.769 22.7981 151.898 23.8102C150.026 24.8223 147.836 25.3246 145.332 25.3246H138.508L142.505 4.91907V4.92279ZM145.51 21.3433C147.093 21.3433 148.48 21.0344 149.67 20.4279C150.859 19.8177 151.78 18.9581 152.42 17.8605C153.061 16.7628 153.387 15.4753 153.387 14.0056C153.387 10.6047 151.42 8.89675 147.495 8.89675H145.93L143.464 21.3433H145.51Z" fill="#122B54"></path><path d="M167.542 4.92279L163.544 25.3209H159.369L163.366 4.92279H167.542Z" fill="#122B54"></path><path d="M185.44 15.2707C184.391 16.6251 183.03 17.5293 181.367 17.9795L184.974 25.3172H180.378L177.014 18.2214H174.127L172.747 25.3172H168.568L172.566 4.91907H179.567C182.011 4.91907 183.868 5.43628 185.129 6.46326C186.391 7.49023 187.024 8.90419 187.024 10.6977C187.024 12.3907 186.497 13.9126 185.444 15.2707H185.44ZM174.846 14.5265H179.442C180.484 14.5265 181.295 14.2326 181.879 13.6409C182.458 13.0493 182.75 12.294 182.75 11.3786C182.75 10.5637 182.496 9.94605 181.985 9.5293C181.473 9.11256 180.617 8.90047 179.412 8.90047H175.957L174.846 14.5302V14.5265Z" fill="#122B54"></path><path d="M209.76 23.3488C208.218 21.7898 207.449 19.6354 207.449 16.8819C207.449 14.6009 207.938 12.5172 208.908 10.6419C209.882 8.76652 211.238 7.28187 212.981 6.19164C214.728 5.1014 216.709 4.55443 218.933 4.55443C220.32 4.55443 221.608 4.7628 222.809 5.18326C224.014 5.60001 224.942 6.17675 225.605 6.90978L223.919 10.333C223.321 9.76373 222.582 9.31722 221.714 9.00094C220.843 8.68466 219.941 8.52838 218.994 8.52838C217.592 8.52838 216.334 8.87443 215.224 9.56652C214.114 10.2623 213.25 11.2112 212.636 12.413C212.026 13.6149 211.715 14.973 211.715 16.48C211.715 18.1507 212.117 19.4419 212.917 20.3498C213.716 21.2577 214.898 21.7116 216.463 21.7116C217.406 21.7116 218.357 21.5591 219.316 21.2502C220.278 20.9414 221.188 20.4986 222.051 19.9033L222.472 24.0968C221.57 24.6102 220.581 25.0009 219.513 25.2726C218.441 25.5516 217.334 25.6856 216.19 25.6856C213.447 25.6856 211.299 24.9042 209.757 23.3451V23.3526H209.76V23.3488Z" fill="#122B54"></path><path d="M243.212 8.90047H237.468L234.255 25.3209H230.08L233.293 8.90047H227.579L228.329 4.92652H243.989L243.208 8.90047H243.212Z" fill="#122B54"></path><path d="M12.0219 17.0047H7.51702L9.91534 9.32093L12.0219 17.0047ZM5.18311 25.4772L6.71758 20.4279H12.7873L14.227 25.4772H19.8496L14.2611 6.21396C13.9391 5.07535 13.2381 4.5507 12.0219 4.5507H4.06541V6.37024H4.73603C5.56578 6.37024 6.01665 6.68651 6.01665 7.31163C6.01665 7.72093 5.92193 8.06326 5.5923 9.00465L0 25.4772H5.18311Z" fill="#122B54"></path><path d="M26.3247 25.4809V6.15815C26.3247 5.1535 25.7223 4.55443 24.7296 4.55443H19.8117V6.37396H20.13C20.9598 6.37396 21.3083 6.72001 21.3083 7.54233V25.4809H26.3247Z" fill="#122B54"></path><path d="M34.8534 25.4809V6.15815C34.8534 5.1535 34.2434 4.55443 33.2545 4.55443H28.3366V6.37396H28.6511C29.4846 6.37396 29.837 6.72001 29.837 7.54233V25.4809H34.8534Z" fill="#122B54"></path><path d="M43.6017 6.45953C43.6017 5.05674 42.5447 4.20837 40.726 4.20837C38.9074 4.20837 37.8465 5.05674 37.8465 6.45953C37.8465 7.86232 38.9377 8.72186 40.726 8.72186C42.5144 8.72186 43.6017 7.88093 43.6017 6.45953ZM43.507 25.4772V11.3898C43.507 10.3851 42.897 9.79349 41.9044 9.79349H37.0509V11.5795H37.335C38.1648 11.5795 38.5171 11.9553 38.5171 12.7702V25.4772H43.507Z" fill="#122B54"></path><path d="M54.487 17.946V20.9935C53.6535 21.8419 52.6343 22.3479 51.7742 22.3479C50.9142 22.3479 50.558 21.9126 50.558 20.7405C50.558 19.5684 50.8081 19.0512 51.706 18.7088C52.3766 18.4223 53.2405 18.173 54.487 17.946ZM47.7391 14.2846C49.4024 13.4995 51.2248 13.0605 52.6608 13.0605C54.0058 13.0605 54.487 13.533 54.487 14.9023V15.2521C52.4448 15.5684 51.8045 15.6986 50.6527 15.9479C49.9897 16.1005 49.3721 16.2865 48.7659 16.5395C46.7502 17.3321 45.7992 18.8614 45.7992 21.213C45.7992 24.1935 47.1064 25.6335 49.823 25.6335C50.8119 25.6335 51.7098 25.4474 52.5092 25.1349C53.2102 24.8298 53.6269 24.573 54.6499 23.7879V24.0074C54.6499 24.9786 55.1576 25.4772 56.1503 25.4772H60.7196V23.7879H60.4961C59.636 23.7879 59.3178 23.4084 59.3178 22.4074V14.9358C59.3178 10.9544 57.9121 9.56651 53.8505 9.56651C52.5433 9.56651 51.2665 9.73023 50.0238 10.013C48.7697 10.2921 48.1294 10.5451 46.6366 11.267L47.7467 14.2809L47.7391 14.2846Z" fill="#122B54"></path><path d="M67.9942 25.4809V14.8763C68.8277 13.9647 69.6878 13.5554 70.6804 13.5554C71.7375 13.5554 71.9914 13.9647 71.9914 15.5423V25.4809H76.9737V14.8168C76.9737 12.3349 76.788 11.5498 75.9886 10.7088C75.318 9.98326 74.295 9.61117 72.9803 9.61117C71.029 9.61117 69.6575 10.2065 67.8123 11.8995V11.2744C67.8123 10.2995 67.2932 9.79722 66.274 9.79722H61.5418V11.5833H61.8298C62.6595 11.5833 63.0157 11.9591 63.0157 12.774V25.4809H67.998H67.9942Z" fill="#122B54"></path><path d="M91.7614 22.1879H84.7976L91.4432 13.0307V9.79349H81.0315C79.8494 9.79349 79.3076 10.3256 79.3076 11.4902V14.3405H81.1603V14.0614C81.1603 13.3395 81.543 12.9972 82.3386 12.9972H85.9228L79.2128 22.2549V25.4847H91.769V22.1916L91.7614 22.1879Z" fill="#122B54"></path><path d="M117.919 7.34884C117.919 5.93489 117.408 5.46233 116.01 5.46233H111.785V7.44186H112.039C113.005 7.44186 113.191 7.65395 113.191 8.79628V25.0828H117.919V7.34884ZM120.003 25.0791H124.698V11.2707C124.698 9.88279 124.152 9.38419 122.777 9.38419H120.003V25.0791ZM111.115 25.0791V9.38419H108.334C106.958 9.38419 106.42 9.88279 106.42 11.2707V25.0791H111.115ZM129.134 16.067C129.134 23.8809 123.413 29.5591 115.555 29.5591C107.697 29.5591 101.976 23.8772 101.976 16.067C101.976 8.25675 107.697 2.57116 115.555 2.57116C123.413 2.57116 129.134 8.28651 129.134 16.067ZM131.915 16.067C131.915 6.88 124.917 0 115.559 0C106.201 0 99.1989 6.88 99.1989 16.067C99.1989 25.254 106.197 32.1302 115.559 32.1302C124.921 32.1302 131.915 25.2651 131.915 16.067Z" fill="#122B54"></path></g></svg>