<?xml version="1.0" encoding="UTF-8" standalone="no"?>
<!-- Created with Inkscape (http://www.inkscape.org/) -->

<svg
   xmlns:dc="http://purl.org/dc/elements/1.1/"
   xmlns:cc="http://creativecommons.org/ns#"
   xmlns:rdf="http://www.w3.org/1999/02/22-rdf-syntax-ns#"
   xmlns:svg="http://www.w3.org/2000/svg"
   xmlns="http://www.w3.org/2000/svg"
   xmlns:sodipodi="http://sodipodi.sourceforge.net/DTD/sodipodi-0.dtd"
   xmlns:inkscape="http://www.inkscape.org/namespaces/inkscape"
   width="145.416"
   height="68.609352"
   viewBox="0 0 38.474651 18.152891"
   version="1.1"
   id="svg588"
   inkscape:version="0.92.0 r15299"
   sodipodi:docname="marriott vacations.svg">
  <defs
     id="defs582" />
  <sodipodi:namedview
     id="base"
     pagecolor="#ffffff"
     bordercolor="#666666"
     borderopacity="1.0"
     inkscape:pageopacity="0.0"
     inkscape:pageshadow="2"
     inkscape:zoom="6.2112233"
     inkscape:cx="72.207999"
     inkscape:cy="33.804676"
     inkscape:document-units="mm"
     inkscape:current-layer="layer1"
     showgrid="false"
     fit-margin-top="0"
     fit-margin-left="0"
     fit-margin-right="0"
     fit-margin-bottom="0"
     units="px"
     inkscape:window-width="1280"
     inkscape:window-height="744"
     inkscape:window-x="-4"
     inkscape:window-y="-4"
     inkscape:window-maximized="1" />
  <metadata
     id="metadata585">
    <rdf:RDF>
      <cc:Work
         rdf:about="">
        <dc:format>image/svg+xml</dc:format>
        <dc:type
           rdf:resource="http://purl.org/dc/dcmitype/StillImage" />
        <dc:title></dc:title>
      </cc:Work>
    </rdf:RDF>
  </metadata>
  <g
     inkscape:label="Layer 1"
     inkscape:groupmode="layer"
     id="layer1"
     transform="translate(96.212176,66.750401)">
    <g
       id="g759"
       transform="translate(0.13229205,-0.13228846)">
      <path
         d="m -92.805772,-59.676151 -1.441097,2.675467 h -0.510117 l -1.441097,-2.675467 h 0.4953 l 1.200855,2.229203 1.200856,-2.229203"
         style="fill:#1162a5;fill-opacity:1;fill-rule:nonzero;stroke:none;stroke-width:0.35277778"
         id="path68"
         inkscape:connector-curvature="0" />
      <path
         d="m -91.257774,-57.012673 h -0.485069 l 1.414991,-2.675467 h 0.558095 l 1.414991,2.675467 h -0.484716 l -1.205089,-2.293761"
         style="fill:#1162a5;fill-opacity:1;fill-rule:nonzero;stroke:none;stroke-width:0.35277778"
         id="path72"
         inkscape:connector-curvature="0" />
      <path
         d="m -83.91646,-59.066551 -0.402872,0.143933 c -0.270934,-0.287866 -0.65017,-0.432152 -1.138061,-0.432152 -0.369359,0 -0.670631,0.0949 -0.903464,0.284338 -0.232833,0.189795 -0.34925,0.431448 -0.34925,0.724253 0,0.303389 0.115005,0.547511 0.345722,0.733778 0.230011,0.185914 0.541161,0.279047 0.932744,0.279047 0.473075,0 0.844903,-0.146755 1.116189,-0.439914 l 0.380295,0.210609 c -0.191911,0.224366 -0.409575,0.386291 -0.651934,0.485775 -0.242711,0.09984 -0.532694,0.14993 -0.870302,0.14993 -0.473075,0 -0.86607,-0.11818 -1.178631,-0.354894 -0.357364,-0.270934 -0.535869,-0.625828 -0.535869,-1.064331 0,-0.431094 0.180975,-0.783166 0.542925,-1.056569 0.315383,-0.238831 0.705908,-0.358422 1.171575,-0.358422 0.669925,0 1.183569,0.231422 1.540933,0.694619"
         style="fill:#1162a5;fill-opacity:1;fill-rule:nonzero;stroke:none;stroke-width:0.35277778"
         id="path76"
         inkscape:connector-curvature="0" />
      <path
         d="m -81.991722,-57.001031 h -0.485069 l 1.415344,-2.675467 h 0.558094 l 1.415345,2.675467 h -0.48507 l -1.205088,-2.293761"
         style="fill:#1162a5;fill-opacity:1;fill-rule:nonzero;stroke:none;stroke-width:0.35277778"
         id="path80"
         inkscape:connector-curvature="0" />
      <path
         d="m -75.211668,-59.277152 h -1.278467 v 2.276122 h -0.443441 v -2.276122 h -1.278467 v -0.398992 h 3.000375"
         style="fill:#1162a5;fill-opacity:1;fill-rule:nonzero;stroke:none;stroke-width:0.35277778"
         id="path84"
         inkscape:connector-curvature="0" />
      <path
         inkscape:connector-curvature="0"
         id="path86"
         style="fill:#1162a5;fill-opacity:1;fill-rule:nonzero;stroke:none;stroke-width:0.35277778"
         d="m -73.549387,-57.00103 h 0.44345 v -2.67543 h -0.44345 z" />
      <path
         d="m -68.352609,-59.399212 c -0.315383,-0.241653 -0.705908,-0.362303 -1.171575,-0.362303 -0.462844,0 -0.854781,0.12065 -1.17475,0.362303 -0.364772,0.275872 -0.547158,0.627944 -0.547158,1.056922 0,0.436034 0.179916,0.789517 0.53975,1.06045 0.31503,0.238831 0.709436,0.358422 1.182158,0.358422 0.468136,0 0.859719,-0.11818 1.175103,-0.354894 0.359833,-0.270933 0.53975,-0.625475 0.53975,-1.063978 0,-0.428978 -0.180975,-0.78105 -0.543278,-1.056922 m -0.26035,1.788231 c -0.227894,0.187325 -0.531636,0.281163 -0.911225,0.281163 -0.381706,0 -0.687211,-0.09313 -0.916164,-0.279047 -0.229305,-0.185914 -0.343605,-0.430389 -0.343605,-0.733425 0,-0.293158 0.116769,-0.535164 0.351013,-0.726016 0.233892,-0.191206 0.536928,-0.286809 0.908756,-0.286809 0.340078,0 0.624769,0.08396 0.853722,0.251531 0.265995,0.194733 0.398992,0.44838 0.398992,0.761294 0,0.300567 -0.113947,0.544336 -0.341489,0.731309"
         style="fill:#1162a5;fill-opacity:1;fill-rule:nonzero;stroke:none;stroke-width:0.35277778"
         id="path90"
         inkscape:connector-curvature="0" />
      <path
         d="m -62.919496,-57.001031 h -0.551744 l -2.042231,-2.193925 v 2.193925 h -0.443442 v -2.675467 h 0.550686 l 2.043289,2.195336 v -2.195336 h 0.443442"
         style="fill:#1162a5;fill-opacity:1;fill-rule:nonzero;stroke:none;stroke-width:0.35277778"
         id="path94"
         inkscape:connector-curvature="0" />
      <path
         d="m -58.529159,-59.047853 c -0.396522,-0.202142 -0.800806,-0.303036 -1.212144,-0.303036 -0.273403,0 -0.482953,0.0321 -0.627945,0.09596 -0.145344,0.06421 -0.218017,0.152753 -0.218017,0.266348 0,0.117827 0.07726,0.204258 0.232481,0.258586 0.111125,0.03951 0.2921,0.06632 0.543278,0.08114 0.369711,0.02469 0.61348,0.04445 0.731661,0.05927 0.335139,0.04445 0.582789,0.127 0.74295,0.24765 0.160161,0.12065 0.240242,0.291748 0.240242,0.513645 0,0.282928 -0.125942,0.502355 -0.37712,0.657578 -0.251178,0.155222 -0.612069,0.232833 -1.082675,0.232833 -0.682272,0 -1.213203,-0.150283 -1.592791,-0.45085 l 0.244122,-0.321381 c 0.418747,0.256117 0.869597,0.384175 1.35255,0.384175 0.312561,0 0.555272,-0.04304 0.72778,-0.129469 0.1651,-0.08361 0.24765,-0.198261 0.24765,-0.343606 0,-0.170039 -0.108655,-0.28328 -0.325261,-0.339725 -0.113242,-0.02963 -0.418747,-0.06068 -0.916517,-0.09243 -0.440972,-0.02963 -0.750005,-0.0889 -0.927452,-0.177448 -0.206728,-0.103364 -0.310445,-0.277283 -0.310445,-0.521052 0,-0.251531 0.117828,-0.449439 0.353131,-0.595137 0.23495,-0.145344 0.567266,-0.217663 0.995891,-0.217663 0.576439,0 1.059039,0.131586 1.448506,0.395111"
         style="fill:#1162a5;fill-opacity:1;fill-rule:nonzero;stroke:none;stroke-width:0.35277778"
         id="path98"
         inkscape:connector-curvature="0" />
      <path
         d="m -86.064877,-63.381374 h -0.548922 l -1.363134,-2.595033 -1.372658,2.595033 h -0.548569 l 1.600905,-3.02648 h 0.63112 l 1.601258,3.02648"
         style="fill:#231f20;fill-opacity:1;fill-rule:nonzero;stroke:none;stroke-width:0.35277778"
         id="path102"
         inkscape:connector-curvature="0" />
      <path
         inkscape:connector-curvature="0"
         id="path104"
         style="fill:#231f20;fill-opacity:1;fill-rule:nonzero;stroke:none;stroke-width:0.35277778"
         d="m -73.673917,-63.38137 h 0.50169 v -3.026481 h -0.50169 z" />
      <path
         d="m -69.641659,-63.275543 c -0.535164,0 -0.981075,-0.135114 -1.337733,-0.405342 -0.406753,-0.306564 -0.610306,-0.706614 -0.610306,-1.199797 0,-0.485069 0.206375,-0.883355 0.618772,-1.195564 0.362303,-0.27305 0.805392,-0.409575 1.329267,-0.409575 0.526697,0 0.968375,0.136525 1.325033,0.409575 0.409575,0.312209 0.614539,0.710495 0.614539,1.195564 0,0.496006 -0.203553,0.897467 -0.610305,1.204031 -0.356659,0.267405 -0.799748,0.401108 -1.329267,0.401108 m 0,-2.750608 c -0.420864,0 -0.763764,0.10795 -1.028347,0.32385 -0.264936,0.216252 -0.397228,0.490008 -0.397228,0.821619 0,0.3429 0.129469,0.619125 0.388761,0.829733 0.259292,0.210609 0.604661,0.315384 1.036814,0.315384 0.428978,0 0.772583,-0.105481 1.030464,-0.3175 0.257528,-0.211667 0.386644,-0.487539 0.386644,-0.827617 0,-0.353836 -0.150636,-0.640997 -0.451555,-0.86113 -0.259292,-0.189442 -0.581025,-0.284339 -0.965553,-0.284339"
         style="fill:#231f20;fill-opacity:1;fill-rule:nonzero;stroke:none;stroke-width:0.35277778"
         id="path108"
         inkscape:connector-curvature="0" />
      <path
         d="m -64.550388,-63.363382 h -0.50165 v -2.574925 h -1.446389 v -0.451555 h 3.394428 v 0.451555 h -1.446389 v 2.574925"
         style="fill:#231f20;fill-opacity:1;fill-rule:nonzero;stroke:none;stroke-width:0.35277778"
         id="path112"
         inkscape:connector-curvature="0" />
      <path
         d="m -59.700734,-63.363382 h -0.50165 v -2.574925 h -1.446389 v -0.451555 h 3.394428 v 0.451555 h -1.446389 v 2.574925"
         style="fill:#231f20;fill-opacity:1;fill-rule:nonzero;stroke:none;stroke-width:0.35277778"
         id="path116"
         inkscape:connector-curvature="0" />
      <path
         d="m -77.107143,-61.369482 c 0,0 17.962386,-0.01729 19.105033,-0.138994 -1.103489,-0.139348 -19.105033,-0.139348 -19.105033,-0.139348 0,0 -17.962386,0.01729 -19.105033,0.139348 1.103489,0.138994 19.105033,0.138994 19.105033,0.138994"
         style="fill:#1162a5;fill-opacity:1;fill-rule:nonzero;stroke:none;stroke-width:0.35277778"
         id="path120"
         inkscape:connector-curvature="0" />
      <path
         d="m -77.107143,-55.040652 c 0,0 17.962386,-0.01729 19.105033,-0.138994 -1.103489,-0.139348 -19.105033,-0.139348 -19.105033,-0.139348 0,0 -17.962386,0.01729 -19.105033,0.139348 1.103489,0.138994 19.105033,0.138994 19.105033,0.138994"
         style="fill:#1162a5;fill-opacity:1;fill-rule:nonzero;stroke:none;stroke-width:0.35277778"
         id="path124"
         inkscape:connector-curvature="0" />
      <path
         d="m -91.40557,-63.363033 h -0.559153 l -0.762,-2.535061 -0.757061,2.535061 h -0.635705 l -0.758825,-2.54 -0.760942,2.54 h -0.5588 l 0.990953,-3.027892 h 0.650169 l 0.754945,2.528359 0.755297,-2.528359 h 0.641703 l 0.999419,3.027892"
         style="fill:#231f20;fill-opacity:1;fill-rule:nonzero;stroke:none;stroke-width:0.35277778"
         id="path128"
         inkscape:connector-curvature="0" />
      <path
         d="m -81.164079,-63.381374 h -0.583494 l -0.81915,-1.153583 h -0.0035 v -0.451556 h 0.28575 c 0.38735,0 0.581025,-0.155928 0.581025,-0.467783 0,-0.334786 -0.208845,-0.502003 -0.626886,-0.502003 h -1.764242 v 2.574925 h -0.50165 v -3.02648 h 2.386894 c 0.317853,0 0.567267,0.08572 0.748595,0.257175 0.180975,0.17145 0.271639,0.403224 0.271639,0.69603 0,0.256469 -0.07408,0.462844 -0.221545,0.618772 -0.136877,0.144992 -0.324908,0.236714 -0.564444,0.275872 l 0.811036,1.178631"
         style="fill:#231f20;fill-opacity:1;fill-rule:nonzero;stroke:none;stroke-width:0.35277778"
         id="path132"
         inkscape:connector-curvature="0" />
      <path
         d="m -75.887943,-63.381374 h -0.583494 l -0.81915,-1.153583 h -0.0021 v -0.451556 h 0.284339 c 0.38735,0 0.581025,-0.155928 0.581025,-0.467783 0,-0.334786 -0.208845,-0.502003 -0.626886,-0.502003 h -1.764242 v 2.574925 h -0.50165 v -3.02648 h 2.386894 c 0.317853,0 0.567267,0.08572 0.748595,0.257175 0.180975,0.17145 0.271639,0.403224 0.271639,0.69603 0,0.256469 -0.07408,0.462844 -0.221545,0.618772 -0.136877,0.144992 -0.324908,0.236714 -0.564444,0.275872 l 0.811036,1.178631"
         style="fill:#231f20;fill-opacity:1;fill-rule:nonzero;stroke:none;stroke-width:0.35277778"
         id="path136"
         inkscape:connector-curvature="0" />
      <path
         d="m -92.406066,-50.605883 h -0.606425 l -0.704497,-2.358672 -0.704497,2.358672 h -0.598664 l -0.932392,-2.824692 h 0.521758 l 0.710848,2.365375 0.706613,-2.365375 h 0.59302 l 0.707672,2.369609 0.709789,-2.369609 h 0.521406 l -0.924631,2.824692"
         style="fill:#231f20;fill-opacity:1;fill-rule:nonzero;stroke:none;stroke-width:0.35277778"
         id="path140"
         inkscape:connector-curvature="0" />
      <path
         d="m -88.797149,-50.524032 c -0.499533,0 -0.915458,-0.126294 -1.248481,-0.378531 -0.379941,-0.286102 -0.569383,-0.659341 -0.569383,-1.119716 0,-0.452614 0.192264,-0.824442 0.577145,-1.115836 0.338313,-0.255059 0.751769,-0.382411 1.240719,-0.382411 0.491772,0 0.903817,0.127352 1.236839,0.382411 0.382411,0.291394 0.573617,0.663222 0.573617,1.115836 0,0.462844 -0.190148,0.837494 -0.569737,1.123597 -0.333022,0.249767 -0.746477,0.37465 -1.240719,0.37465 m 0,-2.567164 c -0.392642,0 -0.712611,0.100895 -0.959908,0.302331 -0.246945,0.201436 -0.370417,0.4572 -0.370417,0.766586 0,0.319969 0.121003,0.578203 0.362656,0.774347 0.242005,0.196497 0.564444,0.294569 0.967669,0.294569 0.400403,0 0.721078,-0.09878 0.961672,-0.296333 0.240595,-0.197555 0.360892,-0.455436 0.360892,-0.772583 0,-0.3302 -0.140406,-0.598311 -0.421217,-0.803628 -0.242005,-0.177094 -0.542219,-0.265289 -0.901347,-0.265289"
         style="fill:#231f20;fill-opacity:1;fill-rule:nonzero;stroke:none;stroke-width:0.35277778"
         id="path144"
         inkscape:connector-curvature="0" />
      <path
         d="m -82.477497,-50.605523 h -0.544689 l -0.764469,-1.077031 h -0.0028 v -0.421569 h 0.266348 c 0.361244,0 0.542219,-0.145344 0.542219,-0.436386 0,-0.312561 -0.195086,-0.468489 -0.585258,-0.468489 h -1.646414 v 2.403475 h -0.468136 v -2.825044 h 2.227791 c 0.296334,0 0.529167,0.08008 0.698148,0.240241 0.16898,0.159809 0.253647,0.376414 0.253647,0.649464 0,0.239183 -0.06879,0.4318 -0.206728,0.577497 -0.127353,0.135114 -0.303036,0.220839 -0.526697,0.257528 l 0.757061,1.100314"
         style="fill:#231f20;fill-opacity:1;fill-rule:nonzero;stroke:none;stroke-width:0.35277778"
         id="path148"
         inkscape:connector-curvature="0" />
      <path
         d="m -78.553197,-50.605883 h -2.649008 v -2.824692 h 0.468136 v 2.403475 h 2.180872 v 0.421217"
         style="fill:#231f20;fill-opacity:1;fill-rule:nonzero;stroke:none;stroke-width:0.35277778"
         id="path152"
         inkscape:connector-curvature="0" />
      <path
         d="m -75.570814,-50.605883 h -1.876778 v -2.824692 h 1.787172 c 0.49142,0 0.880887,0.130528 1.1684,0.391936 0.287162,0.261409 0.431095,0.61207 0.431095,1.051631 0,0.403225 -0.152047,0.738717 -0.456495,1.006475 -0.283633,0.249767 -0.634647,0.37465 -1.053394,0.37465 m -1.408642,-2.403475 v 1.981906 h 1.4478 c 0.280811,0 0.511528,-0.09066 0.692503,-0.271992 0.180622,-0.181681 0.270933,-0.414514 0.270933,-0.699558 0,-0.302684 -0.09701,-0.546806 -0.290688,-0.732367 -0.193675,-0.185208 -0.448028,-0.277989 -0.762706,-0.277989 h -1.357842"
         style="fill:#231f20;fill-opacity:1;fill-rule:nonzero;stroke:none;stroke-width:0.35277778"
         id="path156"
         inkscape:connector-curvature="0" />
      <path
         d="m -69.662138,-50.606232 h -0.606425 l -0.704497,-2.358672 -0.704497,2.358672 h -0.598664 l -0.932392,-2.824692 h 0.521758 l 0.710848,2.365375 0.706261,-2.365375 h 0.593372 l 0.707672,2.369609 0.709789,-2.369609 h 0.521406 l -0.924631,2.824692"
         style="fill:#231f20;fill-opacity:1;fill-rule:nonzero;stroke:none;stroke-width:0.35277778"
         id="path160"
         inkscape:connector-curvature="0" />
      <path
         inkscape:connector-curvature="0"
         id="path162"
         style="fill:#231f20;fill-opacity:1;fill-rule:nonzero;stroke:none;stroke-width:0.35277778"
         d="m -67.631887,-50.605881 h 0.468141 v -2.82469 h -0.468141 z" />
      <path
         d="m -63.820138,-50.605883 h -1.876778 v -2.824692 h 1.787172 c 0.49142,0 0.880887,0.130528 1.1684,0.391936 0.287162,0.261409 0.431095,0.61207 0.431095,1.051631 0,0.403225 -0.152047,0.738717 -0.456495,1.006475 -0.283633,0.249767 -0.634647,0.37465 -1.053394,0.37465 m -1.408642,-2.403475 v 1.981906 h 1.4478 c 0.280811,0 0.511528,-0.09066 0.692503,-0.271992 0.180622,-0.181681 0.270933,-0.414514 0.270933,-0.699558 0,-0.302684 -0.09701,-0.546806 -0.290688,-0.732367 -0.193675,-0.185208 -0.448028,-0.277989 -0.762706,-0.277989 h -1.357842"
         style="fill:#231f20;fill-opacity:1;fill-rule:nonzero;stroke:none;stroke-width:0.35277778"
         id="path166"
         inkscape:connector-curvature="0" />
      <path
         d="m -58.051851,-50.605883 h -2.957689 v -2.824692 h 2.847975 v 0.42157 h -2.379486 v 0.725311 h 1.653822 v 0.421569 h -1.653822 v 0.835025 h 2.4892 v 0.421217"
         style="fill:#231f20;fill-opacity:1;fill-rule:nonzero;stroke:none;stroke-width:0.35277778"
         id="path170"
         inkscape:connector-curvature="0" />
      <path
         d="m -59.71698,-48.597513 c -0.234244,0 -0.407106,-0.121708 -0.407106,-0.365125 h 0.102659 c 0.01729,0.201436 0.151694,0.274814 0.323144,0.274814 0.201436,0 0.28575,-0.109361 0.28575,-0.232481 0,-0.348191 -0.685094,-0.117122 -0.685094,-0.5588 0,-0.156633 0.129469,-0.301272 0.380647,-0.301272 0.252942,0 0.379236,0.152753 0.377472,0.335492 h -0.101247 c 0,-0.171803 -0.132644,-0.245181 -0.276225,-0.245181 -0.215194,0 -0.293511,0.132997 -0.274814,0.248356 0.04868,0.290336 0.685095,0.08114 0.685095,0.516466 0,0.206023 -0.150989,0.327731 -0.410281,0.327731 m 1.656997,-0.02963 h -0.105833 v -1.001889 h -0.0032 l -0.3683,1.001889 h -0.09984 l -0.370064,-1.001889 h -0.0032 v 1.001889 h -0.105833 v -1.123245 h 0.162277 l 0.3683,0.9906 h 0.0032 l 0.36195,-0.9906 h 0.160514 v 1.123245"
         style="fill:#231f20;fill-opacity:1;fill-rule:nonzero;stroke:none;stroke-width:0.35277778"
         id="path174"
         inkscape:connector-curvature="0" />
    </g>
  </g>
</svg>
