<?xml version="1.0" encoding="UTF-8" standalone="no"?>
<svg
   xmlns:dc="http://purl.org/dc/elements/1.1/"
   xmlns:cc="http://creativecommons.org/ns#"
   xmlns:rdf="http://www.w3.org/1999/02/22-rdf-syntax-ns#"
   xmlns:svg="http://www.w3.org/2000/svg"
   xmlns="http://www.w3.org/2000/svg"
   xmlns:sodipodi="http://sodipodi.sourceforge.net/DTD/sodipodi-0.dtd"
   xmlns:inkscape="http://www.inkscape.org/namespaces/inkscape"
   viewBox="0 0 263.84207 145.56737"
   version="1.1"
   id="svg6"
   sodipodi:docname="Nubank logo 2021.svg"
   width="263.84207"
   height="145.56737"
   inkscape:export-filename="C:\Users\alex\sites\nubank-logo-0.png"
   inkscape:export-xdpi="561.73712"
   inkscape:export-ydpi="561.73712"
   inkscape:version="1.0.2 (e86c870879, 2021-01-15, custom)">
  <metadata
     id="metadata12">
    <rdf:RDF>
      <cc:Work
         rdf:about="">
        <dc:format>image/svg+xml</dc:format>
        <dc:type
           rdf:resource="http://purl.org/dc/dcmitype/StillImage" />
        <dc:title></dc:title>
      </cc:Work>
    </rdf:RDF>
  </metadata>
  <defs
     id="defs10" />
  <sodipodi:namedview
     pagecolor="#ffffff"
     bordercolor="#666666"
     borderopacity="1"
     objecttolerance="10"
     gridtolerance="10"
     guidetolerance="10"
     inkscape:pageopacity="0"
     inkscape:pageshadow="2"
     inkscape:window-width="1366"
     inkscape:window-height="705"
     id="namedview8"
     showgrid="false"
     inkscape:zoom="0.21459759"
     inkscape:cx="208.8936"
     inkscape:cy="128.51315"
     inkscape:window-x="-8"
     inkscape:window-y="-8"
     inkscape:window-maximized="1"
     inkscape:current-layer="svg6"
     inkscape:document-rotation="0"
     fit-margin-top="0"
     fit-margin-left="0"
     fit-margin-right="0"
     fit-margin-bottom="0" />
  <path
     d="M 47.627598,13.88565 C 55.970918,5.12022 67.038188,0 80.040158,0 c 25.329302,0 42.122862,18.49361 45.335812,46.19831 1.04173,8.99702 1.03217,21.68146 1.02172,36.37338 -0.002,1.50662 -0.002,3.03464 -0.002,4.58175 v 55.03839 H 91.563068 v -40.70812 c 0,0 -0.071,-34.84036 -0.28386,-41.3518 -0.93482,-28.35945 -17.72383,-46.17911 -43.65497,-46.19826 -7.8236,8.26577 -12.01559,18.3721 -12.63381,33.82498 -0.085,2.15531 -0.0636,9.79491 -0.0354,19.86367 0.0146,5.2168 0.031,11.08592 0.0354,17.18204 0.0258,26.53388 0,57.39341 0,57.39341 H 0.15770145 V 79.54842 c 0,-2.14668 -0.03915,-4.31155 -0.07839,-6.48506 -0.0789999971,-4.37205 -0.158626,-8.77775 0.07839,-13.14025 C 0.55125245,52.65062 1.8093225,45.5014 5.2028685,38.85995 12.970658,23.64481 28.886888,13.84835 45.854848,13.84835 c 0.59274,0 1.18593,0.0137 1.77275,0.0364 z"
     class="Path-xrtkpd-0 eqfYiR"
     id="path2"
     inkscape:connector-curvature="0"
     style="fill:#820ad1;fill-opacity:1;stroke-width:4.549"
     inkscape:export-filename="C:\Users\alex\sites\nubank-logo-5.png"
     inkscape:export-xdpi="132.76538"
     inkscape:export-ydpi="132.76538" />
  <path
     d="m 263.68433,85.64499 c 0.237,-4.36249 0.15739,-8.76866 0.0787,-13.14025 -0.0396,-2.17351 -0.0787,-4.33838 -0.0787,-6.48505 V 3.37022 h -34.83218 c 0,0 -0.026,30.85953 0,57.39309 0.004,6.09612 0.0205,11.96479 0.035,17.18159 0.0282,10.06921 0.0496,17.70881 -0.035,19.86413 -0.61821,15.45342 -4.81056,25.55948 -12.63394,33.82548 -25.93069,-0.0182 -42.71923,-17.83938 -43.65451,-46.19832 -0.2129,-6.51144 -0.30297,-22.66995 -0.30297,-41.38451 V 3.34361 l -34.80669,0.0318 v 55.03852 c 0,1.54712 -0.002,3.07468 -0.002,4.58176 -0.011,14.69191 -0.02,27.3759 1.0217,36.37338 3.20615,27.70479 19.9997,46.1983 45.329,46.1983 13.00242,0 24.06969,-5.12035 32.41301,-13.88582 0.58637,0.0227 1.17911,0.0364 1.77184,0.0364 16.96778,0 32.88429,-9.79628 40.65217,-25.01133 3.39355,-6.642 4.65135,-13.79076 5.04484,-21.06325 z"
     class="Path-xrtkpd-0 eqfYiR"
     id="path4"
     inkscape:connector-curvature="0"
     style="fill:#820ad1;fill-opacity:1;stroke-width:4.549"
     inkscape:export-filename="C:\Users\alex\sites\nubank-logo-5.png"
     inkscape:export-xdpi="132.76538"
     inkscape:export-ydpi="132.76538" />
  <path
     d="m 118.58731,794.60093 c 14.15846,-14.94464 32.93942,-23.67435 55.00378,-23.67435 42.98331,0 71.48165,31.53065 76.93401,78.76565 1.76777,15.3395 1.7516,36.9658 1.73389,62.0147 0,2.5688 0,5.1739 0,7.8117 v 93.83747 h -59.11044 v -69.40517 c 0,0 -0.12055,-59.4009 -0.48186,-70.5026 -1.58618,-48.3514 -30.07678,-78.733 -74.08169,-78.7656 -13.27642,14.0927 -20.390372,31.3234 -21.439402,57.6698 -0.14412,3.6747 -0.10791,16.6998 -0.0606,33.8665 0.0248,8.8944 0.0533,18.9009 0.0606,29.2945 0.045,45.2389 0,97.85267 0,97.85267 H 38.035068 V 906.55243 c 0,-3.6599 -0.067,-7.3509 -0.133,-11.0567 -0.13393,-7.4541 -0.26903,-14.9656 0.133,-22.4034 0.66803,-12.3992 2.80293,-24.5883 8.5618,-35.9115 13.18163,-25.9411 40.19134,-42.6435 68.985722,-42.6435 1.00577,0 2.01244,0.023 3.00821,0.062 z"
     class="Path-xrtkpd-0 eqfYiR"
     id="path2-6"
     inkscape:connector-curvature="0"
     style="fill:#ffffff;stroke-width:7.73768"
     inkscape:export-filename="C:\Users\alex\sites\nubank-logo-4.png"
     inkscape:export-xdpi="92.618095"
     inkscape:export-ydpi="92.618095" />
  <path
     d="m 485.23217,916.94683 c 0.40221,-7.4379 0.26714,-14.9501 0.1336,-22.4035 -0.0672,-3.7057 -0.1336,-7.3967 -0.1336,-11.0567 v -106.814 h -59.10962 c 0,0 -0.0443,52.6139 0,97.8522 0.01,10.3936 0.0346,20.3993 0.0593,29.2937 0.0478,17.1675 0.0841,30.1926 -0.0593,33.8673 -1.04911,26.3473 -8.16343,43.5776 -21.43959,57.6707 -44.00398,-0.031 -72.49385,-30.4153 -74.08105,-78.7657 -0.36125,-11.1017 -0.51418,-38.6511 -0.51418,-70.5584 v -69.40516 l -59.06635,0.0541 v 93.83786 c 0,2.6377 0,5.2421 0,7.8116 -0.0192,25.049 -0.033,46.6745 1.73387,62.0147 5.44071,47.2352 33.93905,78.76567 76.92255,78.76567 22.06501,0 40.84587,-8.7299 55.00436,-23.67457 0.99508,0.039 2.00094,0.062 3.00679,0.062 28.79408,0 55.80412,-16.7021 68.98605,-42.643 5.75889,-11.3243 7.89328,-23.5125 8.56105,-35.9117 z"
     class="Path-xrtkpd-0 eqfYiR"
     id="path4-5"
     inkscape:connector-curvature="0"
     style="fill:#ffffff;stroke-width:7.73768"
     inkscape:export-filename="C:\Users\alex\sites\nubank-logo-4.png"
     inkscape:export-xdpi="92.618095"
     inkscape:export-ydpi="92.618095" />
</svg>
