<svg xmlns="http://www.w3.org/2000/svg" width="238" height="38" viewBox="0 0 238 38" fill="none"><mask id="mask0_45_34" style="mask-type:luminance" maskUnits="userSpaceOnUse" x="0" y="0" width="238" height="38"><path d="M238 0H0V37.555H238V0Z" fill="white"></path></mask><g mask="url(#mask0_45_34)"><path d="M61.5431 31.3101C63.4814 31.357 65.3952 30.8688 67.0741 29.8991C68.6697 28.9276 69.9464 27.5108 70.7471 25.8231C71.6719 23.8414 72.1241 21.6721 72.0681 19.486C72.1258 17.3069 71.6734 15.1444 70.7471 13.1711C69.9415 11.4926 68.6654 10.0845 67.0741 9.11805C65.3952 8.14812 63.4814 7.6599 61.5431 7.70705C59.591 7.66375 57.6637 8.15144 55.9671 9.11805C54.3559 10.0734 53.0628 11.4834 52.2501 13.1711C51.3235 15.1443 50.8711 17.3069 50.9291 19.486C50.8728 21.6722 51.325 23.8415 52.2501 25.8231C53.0578 27.5201 54.3515 28.9388 55.9671 29.8991C57.6638 30.8654 59.591 31.3531 61.5431 31.3101ZM61.4981 35.6991C58.6446 35.7638 55.8272 35.0518 53.3471 33.639C51.0309 32.2795 49.139 30.302 47.8831 27.9281C46.5279 25.3241 45.85 22.4209 45.9121 19.486C45.8504 16.554 46.5199 13.6527 47.8601 11.0441C49.1078 8.66442 51.0017 6.68523 53.3241 5.33405C55.8403 3.98157 58.6525 3.27368 61.5091 3.27368C64.3658 3.27368 67.1779 3.98157 69.6941 5.33405C72.0065 6.69058 73.8916 8.66896 75.1351 11.0441C76.4753 13.6527 77.1448 16.554 77.0831 19.486C77.1446 22.4187 76.4744 25.3204 75.1331 27.9291C73.8902 30.3048 72.0049 32.2836 69.6921 33.64C67.1959 35.0571 64.3616 35.7691 61.4921 35.7001" fill="#00FDCF"></path><path d="M79.8604 35.1619V12.9479H84.7893V16.4859C85.5251 15.2426 86.5758 14.2154 87.8354 13.5079C89.1759 12.761 90.69 12.3815 92.2243 12.4079C93.4046 12.342 94.5851 12.5342 95.6835 12.9712C96.7819 13.4081 97.7718 14.0793 98.5844 14.9379C100.107 16.6252 100.868 19.1252 100.868 22.4379V35.1579H95.9413V22.9359C96.0617 21.262 95.612 19.5967 94.6653 18.2109C94.1879 17.6627 93.589 17.2335 92.9165 16.9575C92.244 16.6814 91.5163 16.5662 90.7914 16.6209C89.9844 16.5995 89.1824 16.7525 88.4399 17.0694C87.6975 17.3862 87.0322 17.8595 86.4893 18.4569C85.2722 19.9212 84.6636 21.7969 84.7893 23.6969V35.1619H79.8604Z" fill="#00FDCF"></path><path d="M114.703 35.7C112.66 35.7421 110.643 35.2399 108.858 34.245C107.182 33.2862 105.803 31.8838 104.872 30.192C103.871 28.337 103.369 26.2535 103.416 24.146C103.375 22.0205 103.867 19.9186 104.849 18.033C105.76 16.3031 107.142 14.8666 108.835 13.89C110.638 12.8768 112.679 12.3647 114.747 12.407C116.745 12.3608 118.718 12.856 120.457 13.84C122.045 14.7561 123.354 16.0878 124.242 17.692C125.15 19.3523 125.612 21.2191 125.585 23.111V24.074C125.582 24.4563 125.552 24.8379 125.495 25.216H107.047V21.907H120.662C120.652 21.1533 120.485 20.41 120.173 19.724C119.86 19.0379 119.409 18.424 118.848 17.921C117.716 16.9303 116.252 16.4026 114.748 16.443C113.625 16.4331 112.517 16.7025 111.523 17.227C110.534 17.7512 109.712 18.5408 109.147 19.507C108.506 20.6784 108.195 22.0018 108.247 23.336V24.59C108.21 25.9228 108.52 27.2425 109.147 28.419C109.689 29.4251 110.504 30.2572 111.499 30.819C112.479 31.3585 113.581 31.6361 114.699 31.625C115.869 31.664 117.024 31.3505 118.013 30.725C118.901 30.1379 119.588 29.294 119.983 28.306H124.954C124.567 29.7142 123.875 31.02 122.927 32.1307C121.979 33.2415 120.798 34.1299 119.468 34.733C117.967 35.398 116.339 35.7267 114.698 35.696" fill="#00FDCF"></path><path d="M140.097 35.6991C138.598 35.7041 137.106 35.5022 135.663 35.0991C134.257 34.7114 132.935 34.0673 131.763 33.1991C130.581 32.313 129.603 31.1827 128.897 29.8851C128.11 28.4028 127.652 26.7684 127.553 25.0931H132.21C132.341 26.4539 132.853 27.7502 133.688 28.8331C134.439 29.7562 135.432 30.4536 136.555 30.8481C137.706 31.2524 138.918 31.4553 140.138 31.4481C141.295 31.4638 142.446 31.2742 143.538 30.8881C144.488 30.561 145.327 29.9716 145.957 29.1881C146.574 28.3712 146.891 27.3672 146.857 26.3441C146.872 25.3486 146.566 24.3746 145.984 23.5671C145.079 22.5942 143.838 22.0018 142.513 21.9101L136.691 20.8351C134.51 20.4958 132.499 19.4586 130.958 17.8791C129.553 16.4279 128.78 14.4796 128.808 12.4601C128.755 10.691 129.281 8.95297 130.308 7.51109C131.335 6.13112 132.711 5.04914 134.294 4.37609C136.01 3.63141 137.865 3.25661 139.736 3.27609C141.634 3.24418 143.518 3.61038 145.267 4.35109C146.859 5.03973 148.236 6.14525 149.253 7.55109C150.352 9.16439 150.994 11.0447 151.112 12.9931H146.365C146.255 11.8299 145.838 10.7168 145.156 9.76809C144.555 8.9824 143.749 8.37811 142.827 8.02209C141.854 7.65508 140.821 7.47263 139.782 7.48409C138.762 7.48538 137.749 7.65187 136.782 7.97709C135.857 8.26524 135.027 8.79925 134.382 9.52209C133.744 10.2947 133.417 11.2766 133.463 12.2771C133.459 12.7849 133.56 13.2879 133.761 13.7544C133.961 14.2209 134.256 14.6407 134.628 14.9871C135.58 15.8316 136.765 16.37 138.028 16.5321L143.448 17.5621C145.695 17.872 147.795 18.8559 149.472 20.3841C150.204 21.1585 150.77 22.0744 151.136 23.0755C151.502 24.0767 151.659 25.142 151.599 26.2061C151.633 27.6489 151.293 29.0759 150.614 30.3491C149.965 31.5195 149.062 32.5296 147.971 33.3051C146.847 34.1054 145.596 34.7109 144.271 35.0961C142.912 35.4979 141.501 35.7 140.084 35.6961" fill="#00FDCF"></path><path d="M162.535 35.162C161.352 35.19 160.172 35.0234 159.042 34.669C158.577 34.5136 158.147 34.2673 157.778 33.9444C157.409 33.6215 157.108 33.2284 156.892 32.788C156.347 31.5171 156.102 30.1378 156.176 28.757V17.113H152.369V12.948H156.176V7.26001H161.104V12.948H167.061V17.113H161.104V28.086C161.072 28.7289 161.156 29.3724 161.35 29.986C161.425 30.1799 161.546 30.3526 161.703 30.4892C161.86 30.6258 162.048 30.7222 162.25 30.77C162.873 30.9091 163.512 30.9692 164.15 30.949H166.837V35.159L162.535 35.162Z" fill="#00FDCF"></path><path d="M179.018 31.4449C180.168 31.4561 181.302 31.1706 182.31 30.6159C183.331 30.0442 184.165 29.1887 184.71 28.1529C185.301 26.8668 185.607 25.4683 185.607 24.0529C185.607 22.6376 185.301 21.239 184.71 19.9529C184.165 18.9175 183.331 18.0621 182.31 17.4899C181.317 16.9394 180.199 16.6539 179.063 16.6609C177.913 16.6501 176.779 16.9356 175.771 17.4899C174.748 18.0653 173.91 18.9194 173.353 19.9529C172.7 21.2179 172.383 22.6301 172.435 24.0529C172.385 25.4736 172.695 26.8838 173.335 28.1529C173.88 29.1891 174.713 30.0447 175.735 30.6159C176.743 31.1707 177.877 31.4562 179.027 31.4449M179.027 35.6999C176.95 35.7326 174.899 35.2316 173.07 34.2449C171.324 33.2895 169.875 31.8708 168.883 30.1449C167.87 28.2715 167.339 26.175 167.339 24.0449C167.339 21.9149 167.87 19.8184 168.883 17.9449C169.885 16.2252 171.342 14.8149 173.093 13.8689C174.933 12.9128 176.976 12.4136 179.05 12.4136C181.123 12.4136 183.166 12.9128 185.006 13.8689C186.738 14.8251 188.178 16.234 189.171 17.9449C190.185 19.8184 190.715 21.9149 190.715 24.0449C190.715 26.175 190.185 28.2715 189.171 30.1449C188.179 31.8707 186.73 33.2894 184.984 34.2449C183.156 35.2314 181.105 35.7324 179.027 35.6999Z" fill="#00FDCF"></path><path d="M203.605 35.7C201.546 35.738 199.513 35.228 197.715 34.222C196.014 33.2523 194.612 31.8341 193.662 30.122C192.691 28.2465 192.185 26.1654 192.185 24.0535C192.185 21.9416 192.691 19.8605 193.662 17.985C194.612 16.2728 196.014 14.8545 197.715 13.885C199.513 12.8789 201.546 12.3688 203.605 12.407C206.095 12.326 208.539 13.0831 210.547 14.557C212.432 15.9968 213.71 18.0896 214.13 20.424H209.023C208.76 19.2801 208.071 18.2792 207.097 17.624C206.049 16.9337 204.814 16.5818 203.559 16.616C202.461 16.6139 201.383 16.9161 200.446 17.489C199.454 18.0946 198.648 18.9625 198.117 19.997C197.497 21.2556 197.197 22.6478 197.244 24.05C197.204 25.4517 197.504 26.8422 198.117 28.103C198.615 29.121 199.39 29.9781 200.352 30.576C201.315 31.174 202.426 31.4887 203.559 31.484C204.811 31.5186 206.044 31.1753 207.097 30.499C208.082 29.8444 208.772 28.8322 209.023 27.677H214.129C213.702 29.9844 212.433 32.0511 210.569 33.477C208.569 34.9891 206.112 35.7714 203.605 35.694" fill="#00FDCF"></path><path d="M231.909 35.1579L223.041 23.6929L226.086 20.6469L238 35.1579H231.909ZM221.339 28.2579L219.413 24.8089L230.745 12.9479H236.612L221.339 28.2579ZM216.816 2.90894H221.742V35.1579H216.816V2.90894Z" fill="#00FDCF"></path><path d="M21.677 37.555H14.6C9.652 37.5602 4.84221 35.923 0.925001 32.9L3.786 29.158C6.88326 31.5499 10.6867 32.8463 14.6 32.844H21.679C24.3753 32.8969 26.9826 31.8786 28.9295 30.0123C30.8763 28.1461 32.0038 25.5842 32.065 22.888C32.007 20.1863 30.8792 17.6181 28.9293 15.7471C26.9794 13.8761 24.3668 12.8554 21.665 12.909L14.382 12.85C14.1387 12.8332 13.8946 12.8666 13.6648 12.9482C13.435 13.0298 13.2244 13.1579 13.0463 13.3245C12.8682 13.491 12.7262 13.6925 12.6293 13.9163C12.5325 14.1401 12.4827 14.3814 12.4832 14.6253C12.4837 14.8692 12.5344 15.1103 12.6321 15.3337C12.7299 15.5571 12.8726 15.758 13.0514 15.9239C13.2302 16.0897 13.4413 16.217 13.6714 16.2977C13.9015 16.3784 14.1458 16.4108 14.389 16.393H22.106C22.9692 16.3745 23.8273 16.5284 24.6302 16.8459C25.4331 17.1634 26.1645 17.638 26.7815 18.2419C27.3985 18.8458 27.8887 19.5668 28.2234 20.3626C28.5581 21.1585 28.7305 22.0132 28.7305 22.8765C28.7305 23.7399 28.5581 24.5946 28.2234 25.3904C27.8887 26.1863 27.3985 26.9073 26.7815 27.5112C26.1645 28.115 25.4331 28.5897 24.6302 28.9071C23.8273 29.2246 22.9692 29.3786 22.106 29.36H15.1C11.1296 29.3796 7.30844 27.8478 4.451 25.091C3.04387 23.749 1.92383 22.1352 1.15874 20.3476C0.393653 18.5599 -0.000554332 16.6355 5.85043e-07 14.691C0.057427 10.7415 1.67979 6.97621 4.51088 4.2218C7.34198 1.46739 11.1504 -0.0509954 15.1 2.47043e-05H22.18C27.1267 -0.00262447 31.9345 1.63597 35.85 4.65902L32.988 8.40002C29.8919 6.00795 26.0895 4.71084 22.177 4.71202H15.1C12.4031 4.65865 9.795 5.6768 7.84754 7.54328C5.90009 9.40975 4.77215 11.9723 4.711 14.669C4.71083 15.984 4.97791 17.2854 5.49603 18.494C6.01414 19.7027 6.77248 20.7934 7.725 21.7C9.70482 23.6069 12.3513 24.6647 15.1 24.648H22.11C22.3533 24.6654 22.5975 24.6324 22.8274 24.5513C23.0574 24.4701 23.2682 24.3424 23.4467 24.1763C23.6251 24.0101 23.7675 23.8089 23.8648 23.5853C23.9621 23.3617 24.0123 23.1204 24.0123 22.8765C24.0123 22.6327 23.9621 22.3914 23.8648 22.1678C23.7675 21.9442 23.6251 21.743 23.4467 21.5768C23.2682 21.4106 23.0574 21.2829 22.8274 21.2018C22.5975 21.1206 22.3533 21.0877 22.11 21.105H14.39C12.6552 21.1218 10.9845 20.4499 9.74445 19.2366C8.50437 18.0234 7.7961 16.3678 7.775 14.633C7.79374 12.8937 8.50189 11.2328 9.74399 10.0151C10.9861 8.79739 12.6606 8.12229 14.4 8.13802L21.683 8.19702C25.6288 8.14945 29.4325 9.66777 32.261 12.4194C35.0894 15.1709 36.7119 18.9314 36.773 22.877C36.7132 26.8247 35.0897 30.5874 32.2588 33.3394C29.4279 36.0914 25.6208 37.6079 21.673 37.556" fill="#00FDCF"></path></g></svg>