<svg xmlns="http://www.w3.org/2000/svg" width="16" height="16" viewBox="0 0 16 16"><path style="stroke:none;fill-rule:nonzero;fill:#000;fill-opacity:1" d="M1.316.34a.693.693 0 0 0-.328.297C.941.738.878.973.86 1.105c-.004.047-.015.11-.02.141-.058.27-.046 1 .02 1.309a1.7 1.7 0 0 1 .024.12c.012.048.02.102.027.122.043.207.2.64.32.883a5.18 5.18 0 0 0 .618.941c.039.047.043.07.027.125a2.046 2.046 0 0 0-.031.188c-.008.066-.02.144-.024.175-.008.047-.015.13-.039.371a8.69 8.69 0 0 0 0 .903c.008.074.035.187.059.254.027.066.047.125.05.133 0 .007.04.074.083.152.168.277.547.738.777.95.04.034.11.1.152.14.047.043.114.097.145.12.035.024.07.056.086.067.039.04.344.239.414.274a.28.28 0 0 1 .098.093c.02.036.074.125.125.2l.09.14-.063.14a4.725 4.725 0 0 0-.184.548c-.004.023-.008.047-.011.047a.97.97 0 0 0-.032.152c-.004.039-.023.137-.043.219-.015.086-.039.21-.047.285-.007.07-.02.133-.02.14-.003.008-.01.09-.022.192l-.016.18-.121.066c-.13.074-.13.074-.305.246a1.8 1.8 0 0 0-.453.8c-.02.09-.031.099-.09.099-.039 0-.074.007-.082.015-.039.035-.062.684-.031.836.035.176.066.281.105.383.024.062.04.121.032.129-.004.012-.04.023-.079.031-.23.047-.464.242-.574.48-.144.31-.219.684-.168.825a.775.775 0 0 1 .035.113c.02.082.192.25.29.277.05.016.39.024.867.024h.789l.062.12a.94.94 0 0 0 .32.352c.172.086.27.094 1.231.086.504-.007.945-.015.98-.023.125-.027.223-.098.329-.242.027-.035.035-.04.035-.004 0 .047.105.152.191.2a.812.812 0 0 0 .184.05c.14.02 1.906.02 1.976 0a.799.799 0 0 0 .496-.418l.063-.121h.805c.441 0 .812 0 .824-.004.055-.008.183-.098.25-.172.18-.21.16-.594-.059-1.07a.872.872 0 0 0-.597-.48c-.094-.024-.094-.024-.063-.083.031-.062.094-.265.113-.37.04-.188.043-.278.04-.474 0-.12-.012-.25-.02-.285-.004-.039-.016-.09-.016-.12-.004-.048-.015-.055-.074-.048-.039 0-.074 0-.074-.007 0-.012.215-.442.265-.536.301-.523.747-1.07 1.036-1.261.406-.27.91-.2 1.129.16.027.047.066.12.082.164.132.344.304.578.503.672.27.12.575.129.86.015.05-.02.105-.039.129-.046.02-.008.035-.02.035-.032 0-.011.012-.02.027-.02.031 0 .188-.12.278-.218.117-.133.222-.363.234-.54a1.572 1.572 0 0 0-.102-.616c-.058-.153-.175-.383-.199-.39-.008-.005-.02-.017-.02-.028 0-.074-.425-.551-.609-.68a1.804 1.804 0 0 1-.11-.082c-.054-.059-.296-.191-.577-.32-.274-.121-.735-.176-1.082-.13-.067.009-.137.02-.153.02a.173.173 0 0 0-.062.024c-.012.008-.024.011-.024.004 0-.008-.027-.004-.054.008a.763.763 0 0 1-.106.03 3.05 3.05 0 0 0-.386.141.35.35 0 0 1-.094.032c-.008-.004-.016.004-.016.015a.025.025 0 0 1-.023.024c-.02 0-.18.086-.336.18-.184.109-.5.374-.723.593a5.266 5.266 0 0 0-.726.895l-.145.218-.027-.148c-.016-.078-.032-.18-.04-.219a4.5 4.5 0 0 0-.187-.719l-.062-.171.082-.114c.047-.062.12-.183.168-.265a.812.812 0 0 1 .097-.16c.032-.012.512-.332.524-.348.008-.008.074-.07.152-.137.207-.172.633-.613.633-.652 0-.008.031-.043.062-.078.18-.2.399-.594.442-.809.043-.203.035-.96-.008-1.3a4.096 4.096 0 0 1-.027-.173 3.02 3.02 0 0 0-.032-.222l-.027-.121.164-.207c.18-.235.176-.23.313-.453.164-.27.386-.754.414-.918a.3.3 0 0 1 .027-.075.407.407 0 0 0 .02-.047c.144-.644.144-.664.148-1.113 0-.394-.012-.515-.074-.86-.07-.366-.164-.53-.371-.64-.086-.043-.13-.047-.34-.047-.277 0-.402.008-.418.032-.004.007-.024.011-.047.003a1.976 1.976 0 0 0-.309.06l-.3.073a.11.11 0 0 0-.043.02c-.008.008-.032.015-.051.015a.422.422 0 0 0-.121.04c-.051.019-.102.039-.117.039-.067.015-.75.367-.957.5l-.227.14L9 1.176C8.64.976 8.156.773 7.941.73a.147.147 0 0 1-.054-.02A1.059 1.059 0 0 0 7.8.689C7.76.68 7.656.66 7.57.64a8.806 8.806 0 0 0-.255-.043 1.372 1.372 0 0 1-.164-.024A7.288 7.288 0 0 0 6.227.57l-.25.032c-.07.007-.157.023-.196.035-.039.008-.074.015-.078.008-.008-.008-.023 0-.043.011-.012.016-.027.02-.027.016 0-.027-.516.129-.73.219-.126.05-.493.23-.641.308l-.07.043-.247-.152C3.543.848 3.098.633 2.805.535A3.19 3.19 0 0 0 2.633.48C2.625.477 2.59.47 2.55.453a3.568 3.568 0 0 0-.41-.09C2.098.355 2.039.343 2.008.34A3.003 3.003 0 0 0 1.68.32c-.203-.008-.297 0-.364.02Zm.446.676c.183.125.597.504.597.55 0 .012.012.028.028.036.047.015.488.62.582.796.023.043.015.059-.047.141-.266.332-.52.82-.742 1.418l-.032.086-.058-.078a.377.377 0 0 1-.059-.094c0-.016-.008-.027-.02-.031a3.914 3.914 0 0 1-.543-1.262 1.02 1.02 0 0 0-.03-.148c-.04-.18-.07-.88-.04-.88a.37.37 0 0 0 .016-.105c.008-.12.063-.433.094-.504.008-.023.031-.046.043-.046.015 0 .11.054.21.12ZM11.816.988c.036.137.051.215.079.442.03.246.015.879-.024.996-.008.02-.016.066-.023.105-.055.38-.368 1.086-.633 1.442l-.055.074-.02-.055a2.493 2.493 0 0 1-.066-.183c-.031-.07-.058-.149-.07-.168a.174.174 0 0 1-.02-.07c0-.02-.011-.032-.02-.032-.01 0-.03-.035-.034-.074a.253.253 0 0 0-.032-.082 2.314 2.314 0 0 1-.132-.246 1.455 1.455 0 0 0-.137-.235c-.012 0-.016-.007-.016-.023 0-.02-.203-.328-.258-.387-.015-.015-.027-.039-.027-.05 0-.024.235-.41.262-.434.008-.004.074-.09.14-.184.262-.351.899-.93 1.028-.93.02 0 .043.043.058.094Zm-9.203.106c.235.082.719.316.961.46l.18.11-.055.047c-.031.023-.144.133-.254.234l-.199.188-.101-.156a5.505 5.505 0 0 0-.532-.696c-.035-.039-.105-.11-.152-.164-.05-.05-.078-.09-.066-.09.015 0 .113.032.218.067Zm8.192.066a5.18 5.18 0 0 0-.578.735l-.168.242-.176-.168-.25-.239-.074-.062.171-.105c.094-.055.188-.114.204-.125.207-.122.87-.403.98-.41.012 0-.035.058-.11.132Zm-4.278-.02c.012.012.012 1.587.004 1.633-.004.008-.039.012-.082.016a4.624 4.624 0 0 0-1.035.148 3.83 3.83 0 0 0-.633.239 2.37 2.37 0 0 0-.851.68c-.032.035-.059.07-.067.074-.035.039-.203.3-.289.46-.285.532-.394 1.036-.273 1.278.043.094.203.27.238.27.008 0 .031.015.047.03.07.071.547.278.715.31.02.003.035.007.035.011 0 0 .016.008.035.012.02.004.129.023.242.05.11.024.235.051.27.06l.074.015-.043.082c-.05.097-.086.379-.062.508l.011.082-.133-.012c-.074-.008-.152-.02-.18-.024-.023-.003-.081-.015-.128-.019a1.119 1.119 0 0 1-.145-.023c-.136-.024-.187-.032-.257-.047-.043-.004-.16-.032-.262-.055-.102-.023-.196-.047-.207-.047-.074-.016-.563-.16-.625-.184a.146.146 0 0 0-.043-.015 4.443 4.443 0 0 1-.395-.14c-.09-.036-.105-.055-.125-.13-.02-.082-.02-.843 0-.996.008-.039.016-.125.028-.199a4.54 4.54 0 0 1 .097-.555c.012-.043.024-.101.032-.132.007-.032.035-.137.066-.239.258-.879.789-1.695 1.441-2.218.063-.047.114-.094.121-.098.04-.05.47-.309.688-.418.25-.121.703-.285.86-.313a.71.71 0 0 0 .09-.02.763.763 0 0 1 .132-.023c.066-.011.125-.02.133-.023.008-.004.086-.016.176-.023a1.23 1.23 0 0 0 .164-.02c.015-.008.129 0 .136.016Zm.559.005c.2.02.55.085.644.117a.33.33 0 0 0 .067.02c.016 0 .074.019.129.038.054.02.113.04.133.043.078.02.375.153.543.246.187.102.574.356.636.418.02.02.075.067.117.102.188.144.668.668.668.726 0 .016.008.028.02.032.035.011.242.355.371.605.106.215.242.535.274.656.003.02.035.122.066.23.031.106.062.224.066.263.008.035.02.101.032.14.062.239.113.711.113 1.125.004.45-.016.586-.086.606l-.344.12c-.277.098-.805.25-.95.278-.03.004-.07.016-.085.02a.52.52 0 0 1-.11.023c-.097.016-.148.027-.234.043-.039.008-.105.016-.14.024l-.196.035c-.062.011-.172.023-.238.03l-.121.013.004-.137c.004-.172-.024-.367-.07-.457-.016-.04-.028-.074-.024-.078.008-.008.102-.028.215-.051.11-.023.234-.05.273-.063.04-.011.07-.015.07-.011 0 .008.016.004.032-.004a.081.081 0 0 1 .047-.02c.082-.015.398-.136.547-.21.21-.106.36-.227.437-.36.102-.176.086-.46-.047-.848a1.052 1.052 0 0 0-.078-.199.17.17 0 0 1-.027-.066 4.115 4.115 0 0 0-.281-.512 3.302 3.302 0 0 0-.594-.644 1.463 1.463 0 0 1-.102-.075c-.058-.062-.543-.293-.75-.36a4.617 4.617 0 0 0-1.246-.214l-.086-.004-.004-.82c-.004-.559 0-.824.02-.832.012-.008.05-.012.09-.008l.199.02ZM5.16 4.684c.223.105.43.453.434.722.004.106-.008.133-.063.168-.11.059-.207 0-.215-.136a.635.635 0 0 0-.195-.434.562.562 0 0 0-.348-.121.555.555 0 0 0-.335.238c-.094.137-.157.168-.243.106-.07-.055-.07-.13.004-.254a.734.734 0 0 1 .961-.29Zm3.645 0c.16.074.367.324.367.433 0 .07-.082.149-.145.137-.058-.004-.14-.074-.14-.11 0-.039-.145-.18-.227-.218-.289-.137-.617.086-.66.449-.016.14-.04.191-.102.21-.066.028-.164-.026-.183-.097a.55.55 0 0 1 .012-.187c.101-.551.613-.844 1.078-.617ZM7.008 6.035c.62.11 1.008.352 1.105.692a.822.822 0 0 1-.039.46c-.05.106-.187.274-.304.36-.122.094-.32.16-.512.176-.242.015-.403-.082-.524-.309-.03-.066-.066-.121-.078-.121a.969.969 0 0 0-.093.133c-.188.304-.45.386-.782.246-.265-.11-.43-.254-.535-.465-.05-.105-.059-.148-.059-.309 0-.156.008-.203.055-.289a.876.876 0 0 1 .356-.34c.043-.019.078-.042.078-.05 0-.012.015-.016.031-.016s.07-.02.113-.039c.051-.02.098-.035.11-.043.011 0 .074-.02.14-.035.067-.02.157-.04.203-.043a.467.467 0 0 0 .09-.02c.016-.015.563 0 .645.012Zm-3.742 1c.242.067.746.18.902.203l.121.02c.05.008.207.031.297.047.031.004.11.015.176.02.148.019.195.03.195.058 0 .035.098.172.2.273.093.102.347.285.347.254 0-.008.008-.008.016.004a.515.515 0 0 0 .214.098c.032 0 .032.008-.004.047-.02.023-.05.043-.062.043-.05 0-.184.168-.211.257-.008.047-.016.125-.008.18.008.078.004.09-.027.078-.024-.008-.063-.015-.094-.023-.11-.016-.242-.055-.547-.153a3.858 3.858 0 0 1-.582-.234c-.207-.098-.582-.316-.644-.375a1.385 1.385 0 0 0-.121-.09c-.145-.094-.532-.484-.704-.699a1.558 1.558 0 0 1-.152-.211c0-.008.117.023.266.074.148.047.336.106.422.13Zm7.437-.164c-.027.035-.066.09-.094.117a7.192 7.192 0 0 1-.676.703c-.195.168-.761.52-.84.52-.015 0-.03.008-.034.016-.012.023-.493.214-.653.257a5.224 5.224 0 0 1-.531.133c-.031.012-.035.004-.02-.027.032-.063.016-.207-.027-.3a.515.515 0 0 0-.223-.216c-.05-.027-.066-.062-.023-.062.012 0 .11-.04.207-.09.211-.106.438-.309.54-.484.046-.079.073-.102.116-.102a4.29 4.29 0 0 0 .422-.055c.028-.004.086-.011.13-.02.042-.003.1-.015.132-.023.027-.008.086-.015.129-.023.097-.016.152-.024.219-.043.03-.004.078-.016.109-.024.031-.007.113-.027.184-.046.074-.016.152-.036.175-.043.086-.02.11-.024.11-.028s.015-.008.035-.011a9.438 9.438 0 0 0 .648-.204.262.262 0 0 1-.035.055Zm-3.508 1.41c.258.059.371.125.344.207-.031.09-.203.215-.332.239a4.336 4.336 0 0 1-.852.023c-.3-.027-.355-.043-.503-.148-.079-.055-.102-.141-.051-.196.05-.054.285-.129.465-.144a.67.67 0 0 0 .148-.02c.024-.02.652.012.781.04Zm5.973.32c.055.016.11.032.117.036.16.035.531.226.442.226-.102 0-.395.235-.516.407a1.506 1.506 0 0 0-.168.378c-.016.09-.023.09-.168.036a.956.956 0 0 0-.313-.075c-.039 0-.062-.035-.12-.148-.063-.137-.07-.168-.07-.356 0-.18.003-.222.054-.316a.551.551 0 0 1 .125-.164c.07-.059.082-.059.297-.055.12.004.265.02.32.032Zm-1.027.098c0 .008-.012.04-.024.07-.078.204-.058.586.04.782.03.066.015.097-.055.101a.492.492 0 0 0-.086.024c-.032.015-.067.027-.07.031-.008 0-.055.023-.11.047-.094.043-.098.043-.164.004a.74.74 0 0 1-.309-.469.55.55 0 0 0-.02-.094c-.003-.004.005-.03.012-.066.02-.055.168-.176.22-.176.007 0 .019-.008.023-.02a3.08 3.08 0 0 1 .457-.226c.039-.016.086-.02.086-.008Zm-7.489.172c.078.027.145.055.153.055.004 0 .093.043.199.09.184.086.598.234.71.254.032.007.063.015.071.023.012.004.067.012.125.023a.564.564 0 0 1 .121.02c.035.023.344.043.653.043.382-.004.484-.012.804-.082.067-.016.133-.027.145-.031a2.883 2.883 0 0 0 .719-.27c.183-.086.468-.184.488-.164.02.02-.426.438-.578.54a1.028 1.028 0 0 1-.176.105c-.012 0-.031.011-.047.027a.187.187 0 0 1-.043.031.733.733 0 0 0-.156.063c-.152.05-.188.074-.098.062.235-.031.64-.133.735-.187.023-.008.05-.02.066-.02.012 0 .098-.035.184-.078.09-.04.168-.07.18-.063.027.012.148.395.167.512.02.13.035.215.043.239.051.148.051 1.019 0 1.374a7.675 7.675 0 0 1-.05.332c-.005.043-.012.09-.012.11a.173.173 0 0 1-.024.062c-.008.012-.008.036-.004.047.02.032-.011.028-.109-.011-.121-.055-.156-.059-.367-.067a1.855 1.855 0 0 0-.809.18c-.05.02-.101.039-.117.043-.016 0-.047.02-.066.035a.663.663 0 0 1-.094.055c-.063.023-.063.023-.067-.055 0-.043-.003-.098-.003-.113a2.88 2.88 0 0 1-.024-.2c-.012-.09-.02-.183-.027-.207l-.02-.12c-.004-.04-.015-.094-.02-.118-.003-.023-.011-.074-.019-.11-.008-.038-.02-.09-.023-.12-.055-.309-.196-.782-.254-.844-.055-.059-.16-.07-.223-.02-.047.036-.086.153-.058.18.015.016.078.29.097.434.008.035.016.09.02.117.015.066.023.11.066.418.059.41.07.52.09.773.008.098.016.188.02.203.015.036-.008.043-.133.063-.137.02-.696.016-.73-.004-.02-.012-.024-.074-.012-.215.011-.195.015-.23.043-.437a17.944 17.944 0 0 1 .16-1.04c.03-.16.054-.328.054-.37-.004-.172-.238-.208-.304-.047-.043.117-.07.187-.082.23a2.418 2.418 0 0 1-.055.219c-.024.094-.047.195-.055.219a.503.503 0 0 1-.023.097c-.004.031-.012.094-.02.14a.79.79 0 0 1-.02.099.476.476 0 0 0-.023.113c-.004.055-.015.12-.02.144a4.142 4.142 0 0 0-.054.516l-.004.062-.07-.046a3.175 3.175 0 0 0-.59-.27 1.704 1.704 0 0 0-.629.008.406.406 0 0 1-.101.023c-.004 0-.051.02-.106.043a.295.295 0 0 1-.113.035 3.63 3.63 0 0 1-.086-.43c-.004-.054-.016-.12-.02-.152-.054-.308-.054-1.086 0-1.386a5.26 5.26 0 0 1 .114-.492c.05-.16.129-.368.148-.387a.763.763 0 0 1 .149.078c.12.07.28.144.488.223.07.027.187.058.347.097.223.055.254.059.239.035-.004-.011-.028-.023-.043-.023-.051 0-.477-.234-.512-.285-.008-.004-.035-.031-.066-.051-.133-.09-.446-.43-.399-.43.012 0 .086.024.16.051Zm9.47.266c.05.015.237.218.358.394.082.117.211.375.227.45.004.023.016.062.02.085.07.22.039.399-.094.551-.188.211-.559.309-.766.203-.086-.043-.199-.156-.199-.191a.161.161 0 0 0-.027-.07c-.016-.024-.051-.106-.082-.176a1.253 1.253 0 0 0-.204-.363c-.05-.067-.058-.094-.05-.176a.504.504 0 0 1 .023-.125c.004-.02.027-.082.047-.137a.818.818 0 0 1 .453-.445.62.62 0 0 1 .293 0Zm-2.93.535c.023.043.093.133.163.203.114.117.137.168.079.172-.012 0-.086.074-.168.164l-.141.164-.117-.012a.589.589 0 0 1-.465-.347c-.055-.125-.047-.137.316-.5l.196-.196.047.137c.03.078.07.176.09.215Zm-.813.633c.125.164.277.27.48.34.036.007.036.011 0 .07-.023.035-.043.066-.05.07-.02.02-.207.309-.254.395a.25.25 0 0 1-.055.082c-.012.004-.02.02-.02.031 0 .008-.027.07-.066.133-.055.094-.062.105-.078.07-.04-.101-.285-.379-.422-.469a.827.827 0 0 1-.082-.058c-.02-.012.426-.77.453-.774.008 0 .05.051.094.11Zm-.684 1.004c.246.18.45.504.489.777.007.047.02.101.023.121.012.023-.012.043-.078.066-.121.04-.54.215-.688.29-.066.03-.12.058-.129.058-.015 0-.007-.039.063-.36.074-.335.152-.812.164-1 .004-.042.05-.03.156.048Zm-6.09-.004c0 .035.004.082.008.105l.02.14a5.747 5.747 0 0 0 .113.634c.012.078.024.125.063.28.02.079.03.145.027.15a1.195 1.195 0 0 1-.203-.083 9.586 9.586 0 0 0-.649-.27c-.035-.011-.039-.027-.027-.105.016-.12.145-.472.168-.472.012 0 .02-.012.02-.028 0-.074.351-.41.43-.41.015 0 .027.027.03.059Zm1.426 1.02c.176.034.473.187.621.312.07.062.07.062.078.289.012.222.02.351.043.535.008.047.016.137.024.195.008.063.016.137.023.164.024.125.035.168.043.242.028.145.121.493.157.555.02.035.05.094.066.133.039.07.062.305.043.387-.012.05-.016.05-.39.054-.813.012-1.376.004-1.462-.011-.027-.008-.097-.086-.132-.149-.11-.199-.082-.511.054-.648a.908.908 0 0 1 .254-.14c.168-.024.242-.02.36.027.144.058.335.187.41.27.023.03.082.097.12.144l.079.086-.016-.098a.91.91 0 0 0-.234-.445 2.12 2.12 0 0 0-.219-.157c-.105-.062-.191-.16-.203-.226-.004-.008-.023-.051-.05-.102a6.006 6.006 0 0 1-.329-.808c-.16-.477-.16-.473-.031-.54.18-.09.46-.12.691-.07Zm3.535-.009c.137.028.344.13.344.164 0 .043-.215.704-.242.743-.008.007-.04.086-.066.168a.484.484 0 0 1-.067.148c-.012 0-.02.016-.02.031a.19.19 0 0 1-.035.086c-.02.031-.027.055-.02.055.013 0 .005.02-.015.039a.85.85 0 0 0-.058.105.451.451 0 0 1-.2.22c-.25.128-.421.355-.449.609l-.011.086.058-.075c.18-.218.395-.379.59-.441.105-.035.164-.035.313-.008.113.02.265.113.265.164 0 .012.012.024.02.024.043 0 .082.12.093.273.016.172-.113.465-.207.473a.549.549 0 0 0-.07.008c-.094.019-1.75.003-1.77-.02a.493.493 0 0 1-.015-.16c0-.13.012-.176.082-.32.043-.09.09-.204.101-.25.008-.043.024-.098.028-.114.02-.062.074-.316.09-.402a.857.857 0 0 1 .02-.121c.01-.035.034-.203.046-.328.004-.043.012-.137.02-.207.011-.118.027-.364.03-.52.005-.047.032-.078.134-.152.32-.239.71-.348 1.011-.278Zm-5.546.313c.207.074.433.176.777.351l.183.094.094.239c.047.128.121.304.156.386.067.137.07.176.032.176-.008 0-.063.027-.121.055a.945.945 0 0 0-.465.64c-.008.059-.02.106-.028.106-.007.004-.347.004-.761.008-.64 0-.754-.004-.782-.032-.046-.054-.023-.277.04-.41.136-.262.386-.394.726-.387.192.008.45.07.656.16.121.055.118.047-.097-.128-.422-.344-.614-.68-.649-1.125-.008-.07-.015-.149-.02-.168-.011-.055.024-.051.259.035Zm7.34.074c-.024.395-.16.703-.446.988-.101.106-.23.223-.285.27-.055.047-.078.074-.055.066.395-.14.52-.168.742-.168.313 0 .559.145.68.395.063.133.082.355.035.402-.023.024-.215.028-.8.028-.426 0-.778-.004-.778-.012a.193.193 0 0 1-.012-.055.885.885 0 0 0-.238-.5c-.098-.094-.273-.207-.324-.207-.078-.004-.078-.039.008-.23.043-.11.11-.274.14-.371a1.48 1.48 0 0 1 .082-.2 7.477 7.477 0 0 1 .79-.39c.156-.07.374-.156.421-.16.051-.004.051 0 .04.144Zm-3.833.145c.082 0 .23-.008.332-.016l.192-.016-.008.106c-.004.055-.016.191-.02.3l-.023.25c-.008.032-.016.102-.023.165-.02.168-.098.535-.133.625-.016.047-.028.086-.02.086s-.015.047-.043.109l-.054.105h-.278l-.05-.097a2.89 2.89 0 0 1-.184-.707c-.008-.043-.012-.078-.012-.078-.004 0-.008-.024-.012-.055-.003-.031-.015-.098-.02-.152a8.151 8.151 0 0 1-.042-.54c-.008-.05-.004-.097.004-.105.004-.008.066-.008.133.004l.261.016Zm0 0"/><path style="stroke:none;fill-rule:nonzero;fill:#000;fill-opacity:1" d="M6.168 1.594c-.086.031-.106.148-.04.222.075.082.231.012.231-.101 0-.098-.097-.156-.191-.121Zm.012.605c-.094.035-.121.168-.047.23.082.075.199.032.226-.085.02-.082-.093-.176-.18-.145Zm.808-.566c-.113.14.074.304.196.176.054-.059.054-.11.007-.168-.062-.075-.152-.075-.203-.008ZM7 2.234c-.066.067-.07.13-.012.188.055.058.14.055.196-.004.054-.059.054-.106.007-.164-.066-.074-.128-.082-.191-.02Zm-.563 4c-.003 0-.054.012-.117.02-.152.02-.293.07-.41.144-.215.133-.183.391.067.567.078.05.355.16.37.144.008-.007.036 0 .071.012.074.031.414.027.492-.004.04-.012.07-.023.074-.02.02.012.164-.038.266-.09.305-.152.383-.417.18-.585-.086-.07-.27-.14-.465-.176-.11-.016-.512-.031-.527-.012Zm0 0"/></svg>